G04 #@! TF.GenerationSoftware,KiCad,Pcbnew,5.1.8-5.1.8*
G04 #@! TF.CreationDate,2022-09-04T11:36:30-07:00*
G04 #@! TF.ProjectId,80cvc,38306376-632e-46b6-9963-61645f706362,rev?*
G04 #@! TF.SameCoordinates,Original*
G04 #@! TF.FileFunction,Legend,Top*
G04 #@! TF.FilePolarity,Positive*
%FSLAX46Y46*%
G04 Gerber Fmt 4.6, Leading zero omitted, Abs format (unit mm)*
G04 Created by KiCad (PCBNEW 5.1.8-5.1.8) date 2022-09-04 11:36:30*
%MOMM*%
%LPD*%
G01*
G04 APERTURE LIST*
%ADD10C,0.150000*%
%ADD11C,0.120000*%
%ADD12C,0.100000*%
%ADD13C,0.254000*%
G04 APERTURE END LIST*
D10*
X170601428Y-169641780D02*
X170030000Y-169641780D01*
X170315714Y-169641780D02*
X170315714Y-168641780D01*
X170220476Y-168784638D01*
X170125238Y-168879876D01*
X170030000Y-168927495D01*
X171458571Y-168975114D02*
X171458571Y-169641780D01*
X171220476Y-168594161D02*
X170982380Y-169308447D01*
X171601428Y-169308447D01*
X172172857Y-168641780D02*
X172268095Y-168641780D01*
X172363333Y-168689400D01*
X172410952Y-168737019D01*
X172458571Y-168832257D01*
X172506190Y-169022733D01*
X172506190Y-169260828D01*
X172458571Y-169451304D01*
X172410952Y-169546542D01*
X172363333Y-169594161D01*
X172268095Y-169641780D01*
X172172857Y-169641780D01*
X172077619Y-169594161D01*
X172030000Y-169546542D01*
X171982380Y-169451304D01*
X171934761Y-169260828D01*
X171934761Y-169022733D01*
X171982380Y-168832257D01*
X172030000Y-168737019D01*
X172077619Y-168689400D01*
X172172857Y-168641780D01*
X172934761Y-169641780D02*
X172934761Y-168975114D01*
X172934761Y-169070352D02*
X172982380Y-169022733D01*
X173077619Y-168975114D01*
X173220476Y-168975114D01*
X173315714Y-169022733D01*
X173363333Y-169117971D01*
X173363333Y-169641780D01*
X173363333Y-169117971D02*
X173410952Y-169022733D01*
X173506190Y-168975114D01*
X173649047Y-168975114D01*
X173744285Y-169022733D01*
X173791904Y-169117971D01*
X173791904Y-169641780D01*
X174268095Y-169641780D02*
X174268095Y-168975114D01*
X174268095Y-169070352D02*
X174315714Y-169022733D01*
X174410952Y-168975114D01*
X174553809Y-168975114D01*
X174649047Y-169022733D01*
X174696666Y-169117971D01*
X174696666Y-169641780D01*
X174696666Y-169117971D02*
X174744285Y-169022733D01*
X174839523Y-168975114D01*
X174982380Y-168975114D01*
X175077619Y-169022733D01*
X175125238Y-169117971D01*
X175125238Y-169641780D01*
X176268095Y-169641780D02*
X176791904Y-168975114D01*
X176268095Y-168975114D02*
X176791904Y-169641780D01*
X177887142Y-168737019D02*
X177934761Y-168689400D01*
X178030000Y-168641780D01*
X178268095Y-168641780D01*
X178363333Y-168689400D01*
X178410952Y-168737019D01*
X178458571Y-168832257D01*
X178458571Y-168927495D01*
X178410952Y-169070352D01*
X177839523Y-169641780D01*
X178458571Y-169641780D01*
X178839523Y-168737019D02*
X178887142Y-168689400D01*
X178982380Y-168641780D01*
X179220476Y-168641780D01*
X179315714Y-168689400D01*
X179363333Y-168737019D01*
X179410952Y-168832257D01*
X179410952Y-168927495D01*
X179363333Y-169070352D01*
X178791904Y-169641780D01*
X179410952Y-169641780D01*
X179887142Y-169641780D02*
X180077619Y-169641780D01*
X180172857Y-169594161D01*
X180220476Y-169546542D01*
X180315714Y-169403685D01*
X180363333Y-169213209D01*
X180363333Y-168832257D01*
X180315714Y-168737019D01*
X180268095Y-168689400D01*
X180172857Y-168641780D01*
X179982380Y-168641780D01*
X179887142Y-168689400D01*
X179839523Y-168737019D01*
X179791904Y-168832257D01*
X179791904Y-169070352D01*
X179839523Y-169165590D01*
X179887142Y-169213209D01*
X179982380Y-169260828D01*
X180172857Y-169260828D01*
X180268095Y-169213209D01*
X180315714Y-169165590D01*
X180363333Y-169070352D01*
X180791904Y-169641780D02*
X180791904Y-168975114D01*
X180791904Y-169070352D02*
X180839523Y-169022733D01*
X180934761Y-168975114D01*
X181077619Y-168975114D01*
X181172857Y-169022733D01*
X181220476Y-169117971D01*
X181220476Y-169641780D01*
X181220476Y-169117971D02*
X181268095Y-169022733D01*
X181363333Y-168975114D01*
X181506190Y-168975114D01*
X181601428Y-169022733D01*
X181649047Y-169117971D01*
X181649047Y-169641780D01*
X182125238Y-169641780D02*
X182125238Y-168975114D01*
X182125238Y-169070352D02*
X182172857Y-169022733D01*
X182268095Y-168975114D01*
X182410952Y-168975114D01*
X182506190Y-169022733D01*
X182553809Y-169117971D01*
X182553809Y-169641780D01*
X182553809Y-169117971D02*
X182601428Y-169022733D01*
X182696666Y-168975114D01*
X182839523Y-168975114D01*
X182934761Y-169022733D01*
X182982380Y-169117971D01*
X182982380Y-169641780D01*
D11*
X146329400Y-118237000D02*
X146075400Y-118237000D01*
X146329400Y-118237000D02*
X146329400Y-118059200D01*
X146329400Y-118237000D02*
X146329400Y-118846600D01*
X146329400Y-118237000D02*
X147116800Y-118237000D01*
D10*
X234041914Y-156560780D02*
X233470485Y-156560780D01*
X233756200Y-156560780D02*
X233756200Y-155560780D01*
X233660961Y-155703638D01*
X233565723Y-155798876D01*
X233470485Y-155846495D01*
X170072085Y-155944914D02*
X170072085Y-156611580D01*
X169833990Y-155563961D02*
X169595895Y-156278247D01*
X170214942Y-156278247D01*
X170643514Y-156611580D02*
X170833990Y-156611580D01*
X170929228Y-156563961D01*
X170976847Y-156516342D01*
X171072085Y-156373485D01*
X171119704Y-156183009D01*
X171119704Y-155802057D01*
X171072085Y-155706819D01*
X171024466Y-155659200D01*
X170929228Y-155611580D01*
X170738752Y-155611580D01*
X170643514Y-155659200D01*
X170595895Y-155706819D01*
X170548276Y-155802057D01*
X170548276Y-156040152D01*
X170595895Y-156135390D01*
X170643514Y-156183009D01*
X170738752Y-156230628D01*
X170929228Y-156230628D01*
X171024466Y-156183009D01*
X171072085Y-156135390D01*
X171119704Y-156040152D01*
D11*
X226464000Y-37553000D02*
X228704000Y-37553000D01*
X228704000Y-37553000D02*
X228704000Y-33313000D01*
X228704000Y-33313000D02*
X226464000Y-33313000D01*
X226464000Y-33313000D02*
X226464000Y-37553000D01*
X227584000Y-39473000D02*
X227584000Y-37553000D01*
X227584000Y-31393000D02*
X227584000Y-33313000D01*
X226464000Y-36833000D02*
X228704000Y-36833000D01*
X226464000Y-36713000D02*
X228704000Y-36713000D01*
X226464000Y-36953000D02*
X228704000Y-36953000D01*
X249450000Y-87917600D02*
X249450000Y-99917600D01*
X249330000Y-87917600D02*
X249450000Y-87917600D01*
X249330000Y-99917600D02*
X249330000Y-87917600D01*
X249450000Y-99917600D02*
X249330000Y-99917600D01*
X248600000Y-91467600D02*
X248600000Y-91467600D01*
X249450000Y-91467600D02*
X248600000Y-91467600D01*
X248600000Y-96367600D02*
X248600000Y-96367600D01*
X249450000Y-96367600D02*
X248600000Y-96367600D01*
X249450000Y-88267600D02*
X249450000Y-99567600D01*
X262850000Y-88267600D02*
X249450000Y-88267600D01*
X262850000Y-99567600D02*
X262850000Y-88267600D01*
X249450000Y-99567600D02*
X262850000Y-99567600D01*
D12*
X64622600Y-70228600D02*
X64622600Y-70228600D01*
X80822600Y-70228600D02*
X80822600Y-70228600D01*
X64622600Y-70228600D02*
G75*
G02*
X80822600Y-70228600I8100000J0D01*
G01*
X80822600Y-70228600D02*
G75*
G02*
X64622600Y-70228600I-8100000J0D01*
G01*
X265434700Y-49597600D02*
X256004700Y-49597600D01*
X265434700Y-49297600D02*
X265434700Y-49597600D01*
X265434700Y-38997600D02*
X265434700Y-49297600D01*
X256044700Y-38997600D02*
X265434700Y-38997600D01*
D11*
X76172200Y-29187400D02*
X73332200Y-29187400D01*
X73332200Y-29187400D02*
X73332200Y-33227400D01*
X73332200Y-33227400D02*
X76172200Y-33227400D01*
X76172200Y-33227400D02*
X76172200Y-29187400D01*
X74752200Y-28497400D02*
X74752200Y-29187400D01*
X74752200Y-33917400D02*
X74752200Y-33227400D01*
X248759200Y-82169000D02*
X249449200Y-82169000D01*
X254179200Y-82169000D02*
X253489200Y-82169000D01*
X249449200Y-83589000D02*
X253489200Y-83589000D01*
X249449200Y-80749000D02*
X249449200Y-83589000D01*
X253489200Y-80749000D02*
X249449200Y-80749000D01*
X253489200Y-83589000D02*
X253489200Y-80749000D01*
X70298800Y-94513400D02*
X70988800Y-94513400D01*
X75718800Y-94513400D02*
X75028800Y-94513400D01*
X70988800Y-95933400D02*
X75028800Y-95933400D01*
X70988800Y-93093400D02*
X70988800Y-95933400D01*
X75028800Y-93093400D02*
X70988800Y-93093400D01*
X75028800Y-95933400D02*
X75028800Y-93093400D01*
X98346400Y-54587400D02*
X95506400Y-54587400D01*
X95506400Y-54587400D02*
X95506400Y-58627400D01*
X95506400Y-58627400D02*
X98346400Y-58627400D01*
X98346400Y-58627400D02*
X98346400Y-54587400D01*
X96926400Y-53897400D02*
X96926400Y-54587400D01*
X96926400Y-59317400D02*
X96926400Y-58627400D01*
X96926400Y-87765400D02*
X96926400Y-87075400D01*
X96926400Y-82345400D02*
X96926400Y-83035400D01*
X98346400Y-87075400D02*
X98346400Y-83035400D01*
X95506400Y-87075400D02*
X98346400Y-87075400D01*
X95506400Y-83035400D02*
X95506400Y-87075400D01*
X98346400Y-83035400D02*
X95506400Y-83035400D01*
X98346400Y-111737400D02*
X95506400Y-111737400D01*
X95506400Y-111737400D02*
X95506400Y-115777400D01*
X95506400Y-115777400D02*
X98346400Y-115777400D01*
X98346400Y-115777400D02*
X98346400Y-111737400D01*
X96926400Y-111047400D02*
X96926400Y-111737400D01*
X96926400Y-116467400D02*
X96926400Y-115777400D01*
X117703600Y-33917400D02*
X117703600Y-33227400D01*
X117703600Y-28497400D02*
X117703600Y-29187400D01*
X119123600Y-33227400D02*
X119123600Y-29187400D01*
X116283600Y-33227400D02*
X119123600Y-33227400D01*
X116283600Y-29187400D02*
X116283600Y-33227400D01*
X119123600Y-29187400D02*
X116283600Y-29187400D01*
X141018400Y-29187400D02*
X138178400Y-29187400D01*
X138178400Y-29187400D02*
X138178400Y-33227400D01*
X138178400Y-33227400D02*
X141018400Y-33227400D01*
X141018400Y-33227400D02*
X141018400Y-29187400D01*
X139598400Y-28497400D02*
X139598400Y-29187400D01*
X139598400Y-33917400D02*
X139598400Y-33227400D01*
X161290000Y-33917400D02*
X161290000Y-33227400D01*
X161290000Y-28497400D02*
X161290000Y-29187400D01*
X162710000Y-33227400D02*
X162710000Y-29187400D01*
X159870000Y-33227400D02*
X162710000Y-33227400D01*
X159870000Y-29187400D02*
X159870000Y-33227400D01*
X162710000Y-29187400D02*
X159870000Y-29187400D01*
X162710000Y-57127400D02*
X159870000Y-57127400D01*
X159870000Y-57127400D02*
X159870000Y-61167400D01*
X159870000Y-61167400D02*
X162710000Y-61167400D01*
X162710000Y-61167400D02*
X162710000Y-57127400D01*
X161290000Y-56437400D02*
X161290000Y-57127400D01*
X161290000Y-61857400D02*
X161290000Y-61167400D01*
X162735400Y-84280000D02*
X159895400Y-84280000D01*
X159895400Y-84280000D02*
X159895400Y-88320000D01*
X159895400Y-88320000D02*
X162735400Y-88320000D01*
X162735400Y-88320000D02*
X162735400Y-84280000D01*
X161315400Y-83590000D02*
X161315400Y-84280000D01*
X161315400Y-89010000D02*
X161315400Y-88320000D01*
X161290000Y-115527600D02*
X161290000Y-114837600D01*
X161290000Y-110107600D02*
X161290000Y-110797600D01*
X162710000Y-114837600D02*
X162710000Y-110797600D01*
X159870000Y-114837600D02*
X162710000Y-114837600D01*
X159870000Y-110797600D02*
X159870000Y-114837600D01*
X162710000Y-110797600D02*
X159870000Y-110797600D01*
X183385600Y-59286400D02*
X180545600Y-59286400D01*
X180545600Y-59286400D02*
X180545600Y-63326400D01*
X180545600Y-63326400D02*
X183385600Y-63326400D01*
X183385600Y-63326400D02*
X183385600Y-59286400D01*
X181965600Y-58596400D02*
X181965600Y-59286400D01*
X181965600Y-64016400D02*
X181965600Y-63326400D01*
X182118000Y-89035400D02*
X182118000Y-88345400D01*
X182118000Y-83615400D02*
X182118000Y-84305400D01*
X183538000Y-88345400D02*
X183538000Y-84305400D01*
X180698000Y-88345400D02*
X183538000Y-88345400D01*
X180698000Y-84305400D02*
X180698000Y-88345400D01*
X183538000Y-84305400D02*
X180698000Y-84305400D01*
X183512600Y-110746800D02*
X180672600Y-110746800D01*
X180672600Y-110746800D02*
X180672600Y-114786800D01*
X180672600Y-114786800D02*
X183512600Y-114786800D01*
X183512600Y-114786800D02*
X183512600Y-110746800D01*
X182092600Y-110056800D02*
X182092600Y-110746800D01*
X182092600Y-115476800D02*
X182092600Y-114786800D01*
X202819000Y-33917400D02*
X202819000Y-33227400D01*
X202819000Y-28497400D02*
X202819000Y-29187400D01*
X204239000Y-33227400D02*
X204239000Y-29187400D01*
X201399000Y-33227400D02*
X204239000Y-33227400D01*
X201399000Y-29187400D02*
X201399000Y-33227400D01*
X204239000Y-29187400D02*
X201399000Y-29187400D01*
X204213600Y-59286400D02*
X201373600Y-59286400D01*
X201373600Y-59286400D02*
X201373600Y-63326400D01*
X201373600Y-63326400D02*
X204213600Y-63326400D01*
X204213600Y-63326400D02*
X204213600Y-59286400D01*
X202793600Y-58596400D02*
X202793600Y-59286400D01*
X202793600Y-64016400D02*
X202793600Y-63326400D01*
X204391400Y-84305400D02*
X201551400Y-84305400D01*
X201551400Y-84305400D02*
X201551400Y-88345400D01*
X201551400Y-88345400D02*
X204391400Y-88345400D01*
X204391400Y-88345400D02*
X204391400Y-84305400D01*
X202971400Y-83615400D02*
X202971400Y-84305400D01*
X202971400Y-89035400D02*
X202971400Y-88345400D01*
X202971400Y-115476800D02*
X202971400Y-114786800D01*
X202971400Y-110056800D02*
X202971400Y-110746800D01*
X204391400Y-114786800D02*
X204391400Y-110746800D01*
X201551400Y-114786800D02*
X204391400Y-114786800D01*
X201551400Y-110746800D02*
X201551400Y-114786800D01*
X204391400Y-110746800D02*
X201551400Y-110746800D01*
X222958800Y-59286400D02*
X220118800Y-59286400D01*
X220118800Y-59286400D02*
X220118800Y-63326400D01*
X220118800Y-63326400D02*
X222958800Y-63326400D01*
X222958800Y-63326400D02*
X222958800Y-59286400D01*
X221538800Y-58596400D02*
X221538800Y-59286400D01*
X221538800Y-64016400D02*
X221538800Y-63326400D01*
X221742000Y-89035400D02*
X221742000Y-88345400D01*
X221742000Y-83615400D02*
X221742000Y-84305400D01*
X223162000Y-88345400D02*
X223162000Y-84305400D01*
X220322000Y-88345400D02*
X223162000Y-88345400D01*
X220322000Y-84305400D02*
X220322000Y-88345400D01*
X223162000Y-84305400D02*
X220322000Y-84305400D01*
X230985200Y-110797600D02*
X228145200Y-110797600D01*
X228145200Y-110797600D02*
X228145200Y-114837600D01*
X228145200Y-114837600D02*
X230985200Y-114837600D01*
X230985200Y-114837600D02*
X230985200Y-110797600D01*
X229565200Y-110107600D02*
X229565200Y-110797600D01*
X229565200Y-115527600D02*
X229565200Y-114837600D01*
X240334800Y-64016400D02*
X240334800Y-63326400D01*
X240334800Y-58596400D02*
X240334800Y-59286400D01*
X241754800Y-63326400D02*
X241754800Y-59286400D01*
X238914800Y-63326400D02*
X241754800Y-63326400D01*
X238914800Y-59286400D02*
X238914800Y-63326400D01*
X241754800Y-59286400D02*
X238914800Y-59286400D01*
X41579800Y-65616600D02*
X41579800Y-64926600D01*
X41579800Y-60196600D02*
X41579800Y-60886600D01*
X42999800Y-64926600D02*
X42999800Y-60886600D01*
X40159800Y-64926600D02*
X42999800Y-64926600D01*
X40159800Y-60886600D02*
X40159800Y-64926600D01*
X42999800Y-60886600D02*
X40159800Y-60886600D01*
X201018000Y-60297200D02*
X201018000Y-67537200D01*
X198778000Y-60297200D02*
X198778000Y-67537200D01*
X201018000Y-60297200D02*
X198778000Y-60297200D01*
X201018000Y-67537200D02*
X198778000Y-67537200D01*
X247750200Y-50624600D02*
X240510200Y-50624600D01*
X247750200Y-48384600D02*
X240510200Y-48384600D01*
X247750200Y-50624600D02*
X247750200Y-48384600D01*
X240510200Y-50624600D02*
X240510200Y-48384600D01*
X120677600Y-115198375D02*
X121177600Y-115198375D01*
X120927600Y-115448375D02*
X120927600Y-114948375D01*
X122118600Y-110042600D02*
X122686600Y-110042600D01*
X121884600Y-110082600D02*
X122920600Y-110082600D01*
X121725600Y-110122600D02*
X123079600Y-110122600D01*
X121597600Y-110162600D02*
X123207600Y-110162600D01*
X121487600Y-110202600D02*
X123317600Y-110202600D01*
X121391600Y-110242600D02*
X123413600Y-110242600D01*
X121304600Y-110282600D02*
X123500600Y-110282600D01*
X121224600Y-110322600D02*
X123580600Y-110322600D01*
X123442600Y-110362600D02*
X123653600Y-110362600D01*
X121151600Y-110362600D02*
X121362600Y-110362600D01*
X123442600Y-110402600D02*
X123721600Y-110402600D01*
X121083600Y-110402600D02*
X121362600Y-110402600D01*
X123442600Y-110442600D02*
X123785600Y-110442600D01*
X121019600Y-110442600D02*
X121362600Y-110442600D01*
X123442600Y-110482600D02*
X123845600Y-110482600D01*
X120959600Y-110482600D02*
X121362600Y-110482600D01*
X123442600Y-110522600D02*
X123902600Y-110522600D01*
X120902600Y-110522600D02*
X121362600Y-110522600D01*
X123442600Y-110562600D02*
X123956600Y-110562600D01*
X120848600Y-110562600D02*
X121362600Y-110562600D01*
X123442600Y-110602600D02*
X124007600Y-110602600D01*
X120797600Y-110602600D02*
X121362600Y-110602600D01*
X123442600Y-110642600D02*
X124055600Y-110642600D01*
X120749600Y-110642600D02*
X121362600Y-110642600D01*
X123442600Y-110682600D02*
X124101600Y-110682600D01*
X120703600Y-110682600D02*
X121362600Y-110682600D01*
X123442600Y-110722600D02*
X124145600Y-110722600D01*
X120659600Y-110722600D02*
X121362600Y-110722600D01*
X123442600Y-110762600D02*
X124187600Y-110762600D01*
X120617600Y-110762600D02*
X121362600Y-110762600D01*
X123442600Y-110802600D02*
X124228600Y-110802600D01*
X120576600Y-110802600D02*
X121362600Y-110802600D01*
X123442600Y-110842600D02*
X124266600Y-110842600D01*
X120538600Y-110842600D02*
X121362600Y-110842600D01*
X123442600Y-110882600D02*
X124303600Y-110882600D01*
X120501600Y-110882600D02*
X121362600Y-110882600D01*
X123442600Y-110922600D02*
X124339600Y-110922600D01*
X120465600Y-110922600D02*
X121362600Y-110922600D01*
X123442600Y-110962600D02*
X124373600Y-110962600D01*
X120431600Y-110962600D02*
X121362600Y-110962600D01*
X123442600Y-111002600D02*
X124406600Y-111002600D01*
X120398600Y-111002600D02*
X121362600Y-111002600D01*
X123442600Y-111042600D02*
X124437600Y-111042600D01*
X120367600Y-111042600D02*
X121362600Y-111042600D01*
X123442600Y-111082600D02*
X124467600Y-111082600D01*
X120337600Y-111082600D02*
X121362600Y-111082600D01*
X123442600Y-111122600D02*
X124497600Y-111122600D01*
X120307600Y-111122600D02*
X121362600Y-111122600D01*
X123442600Y-111162600D02*
X124524600Y-111162600D01*
X120280600Y-111162600D02*
X121362600Y-111162600D01*
X123442600Y-111202600D02*
X124551600Y-111202600D01*
X120253600Y-111202600D02*
X121362600Y-111202600D01*
X123442600Y-111242600D02*
X124577600Y-111242600D01*
X120227600Y-111242600D02*
X121362600Y-111242600D01*
X123442600Y-111282600D02*
X124602600Y-111282600D01*
X120202600Y-111282600D02*
X121362600Y-111282600D01*
X123442600Y-111322600D02*
X124626600Y-111322600D01*
X120178600Y-111322600D02*
X121362600Y-111322600D01*
X123442600Y-111362600D02*
X124649600Y-111362600D01*
X120155600Y-111362600D02*
X121362600Y-111362600D01*
X123442600Y-111402600D02*
X124670600Y-111402600D01*
X120134600Y-111402600D02*
X121362600Y-111402600D01*
X123442600Y-111442600D02*
X124692600Y-111442600D01*
X120112600Y-111442600D02*
X121362600Y-111442600D01*
X123442600Y-111482600D02*
X124712600Y-111482600D01*
X120092600Y-111482600D02*
X121362600Y-111482600D01*
X123442600Y-111522600D02*
X124731600Y-111522600D01*
X120073600Y-111522600D02*
X121362600Y-111522600D01*
X123442600Y-111562600D02*
X124750600Y-111562600D01*
X120054600Y-111562600D02*
X121362600Y-111562600D01*
X123442600Y-111602600D02*
X124767600Y-111602600D01*
X120037600Y-111602600D02*
X121362600Y-111602600D01*
X123442600Y-111642600D02*
X124784600Y-111642600D01*
X120020600Y-111642600D02*
X121362600Y-111642600D01*
X123442600Y-111682600D02*
X124800600Y-111682600D01*
X120004600Y-111682600D02*
X121362600Y-111682600D01*
X123442600Y-111722600D02*
X124816600Y-111722600D01*
X119988600Y-111722600D02*
X121362600Y-111722600D01*
X123442600Y-111762600D02*
X124830600Y-111762600D01*
X119974600Y-111762600D02*
X121362600Y-111762600D01*
X123442600Y-111802600D02*
X124844600Y-111802600D01*
X119960600Y-111802600D02*
X121362600Y-111802600D01*
X123442600Y-111842600D02*
X124857600Y-111842600D01*
X119947600Y-111842600D02*
X121362600Y-111842600D01*
X123442600Y-111882600D02*
X124870600Y-111882600D01*
X119934600Y-111882600D02*
X121362600Y-111882600D01*
X123442600Y-111922600D02*
X124882600Y-111922600D01*
X119922600Y-111922600D02*
X121362600Y-111922600D01*
X123442600Y-111963600D02*
X124893600Y-111963600D01*
X119911600Y-111963600D02*
X121362600Y-111963600D01*
X123442600Y-112003600D02*
X124903600Y-112003600D01*
X119901600Y-112003600D02*
X121362600Y-112003600D01*
X123442600Y-112043600D02*
X124913600Y-112043600D01*
X119891600Y-112043600D02*
X121362600Y-112043600D01*
X123442600Y-112083600D02*
X124922600Y-112083600D01*
X119882600Y-112083600D02*
X121362600Y-112083600D01*
X123442600Y-112123600D02*
X124930600Y-112123600D01*
X119874600Y-112123600D02*
X121362600Y-112123600D01*
X123442600Y-112163600D02*
X124938600Y-112163600D01*
X119866600Y-112163600D02*
X121362600Y-112163600D01*
X123442600Y-112203600D02*
X124945600Y-112203600D01*
X119859600Y-112203600D02*
X121362600Y-112203600D01*
X123442600Y-112243600D02*
X124952600Y-112243600D01*
X119852600Y-112243600D02*
X121362600Y-112243600D01*
X123442600Y-112283600D02*
X124958600Y-112283600D01*
X119846600Y-112283600D02*
X121362600Y-112283600D01*
X123442600Y-112323600D02*
X124963600Y-112323600D01*
X119841600Y-112323600D02*
X121362600Y-112323600D01*
X123442600Y-112363600D02*
X124967600Y-112363600D01*
X119837600Y-112363600D02*
X121362600Y-112363600D01*
X123442600Y-112403600D02*
X124971600Y-112403600D01*
X119833600Y-112403600D02*
X121362600Y-112403600D01*
X119829600Y-112443600D02*
X124975600Y-112443600D01*
X119826600Y-112483600D02*
X124978600Y-112483600D01*
X119824600Y-112523600D02*
X124980600Y-112523600D01*
X119823600Y-112563600D02*
X124981600Y-112563600D01*
X119822600Y-112603600D02*
X124982600Y-112603600D01*
X119822600Y-112643600D02*
X124982600Y-112643600D01*
X125022600Y-112643600D02*
G75*
G03*
X125022600Y-112643600I-2620000J0D01*
G01*
X238535400Y-141564500D02*
X238535400Y-143804500D01*
X238775400Y-141564500D02*
X238775400Y-143804500D01*
X238655400Y-141564500D02*
X238655400Y-143804500D01*
X244095400Y-142684500D02*
X242175400Y-142684500D01*
X236015400Y-142684500D02*
X237935400Y-142684500D01*
X242175400Y-141564500D02*
X237935400Y-141564500D01*
X242175400Y-143804500D02*
X242175400Y-141564500D01*
X237935400Y-143804500D02*
X242175400Y-143804500D01*
X237935400Y-141564500D02*
X237935400Y-143804500D01*
X196891600Y-26152800D02*
X198221600Y-26152800D01*
X196891600Y-27482800D02*
X196891600Y-26152800D01*
X196891600Y-28752800D02*
X199551600Y-28752800D01*
X199551600Y-28752800D02*
X199551600Y-33892800D01*
X196891600Y-28752800D02*
X196891600Y-33892800D01*
X196891600Y-33892800D02*
X199551600Y-33892800D01*
X241703000Y-36983000D02*
X238103000Y-36983000D01*
X241741478Y-36994522D02*
G75*
G02*
X239903000Y-41433000I-1838478J-1838478D01*
G01*
X238064522Y-36994522D02*
G75*
G03*
X239903000Y-41433000I1838478J-1838478D01*
G01*
X241703000Y-29463000D02*
X238103000Y-29463000D01*
X238064522Y-29474522D02*
G75*
G03*
X239903000Y-33913000I1838478J-1838478D01*
G01*
X241741478Y-29474522D02*
G75*
G02*
X239903000Y-33913000I-1838478J-1838478D01*
G01*
X248261000Y-46558200D02*
X247491000Y-46558200D01*
X240181000Y-46558200D02*
X240951000Y-46558200D01*
X247491000Y-45188200D02*
X240951000Y-45188200D01*
X247491000Y-47928200D02*
X247491000Y-45188200D01*
X240951000Y-47928200D02*
X247491000Y-47928200D01*
X240951000Y-45188200D02*
X240951000Y-47928200D01*
X256025400Y-86841000D02*
X256025400Y-84101000D01*
X256025400Y-84101000D02*
X249485400Y-84101000D01*
X249485400Y-84101000D02*
X249485400Y-86841000D01*
X249485400Y-86841000D02*
X256025400Y-86841000D01*
X256795400Y-85471000D02*
X256025400Y-85471000D01*
X248715400Y-85471000D02*
X249485400Y-85471000D01*
X248766200Y-78867000D02*
X249536200Y-78867000D01*
X256846200Y-78867000D02*
X256076200Y-78867000D01*
X249536200Y-80237000D02*
X256076200Y-80237000D01*
X249536200Y-77497000D02*
X249536200Y-80237000D01*
X256076200Y-77497000D02*
X249536200Y-77497000D01*
X256076200Y-80237000D02*
X256076200Y-77497000D01*
X217678000Y-28497400D02*
X217678000Y-29267400D01*
X217678000Y-36577400D02*
X217678000Y-35807400D01*
X216308000Y-29267400D02*
X216308000Y-35807400D01*
X219048000Y-29267400D02*
X216308000Y-29267400D01*
X219048000Y-35807400D02*
X219048000Y-29267400D01*
X216308000Y-35807400D02*
X219048000Y-35807400D01*
X223254900Y-38703000D02*
X225994900Y-38703000D01*
X225994900Y-38703000D02*
X225994900Y-32163000D01*
X225994900Y-32163000D02*
X223254900Y-32163000D01*
X223254900Y-32163000D02*
X223254900Y-38703000D01*
X224624900Y-39473000D02*
X224624900Y-38703000D01*
X224624900Y-31393000D02*
X224624900Y-32163000D01*
X231894600Y-32163000D02*
X229154600Y-32163000D01*
X229154600Y-32163000D02*
X229154600Y-38703000D01*
X229154600Y-38703000D02*
X231894600Y-38703000D01*
X231894600Y-38703000D02*
X231894600Y-32163000D01*
X230524600Y-31393000D02*
X230524600Y-32163000D01*
X230524600Y-39473000D02*
X230524600Y-38703000D01*
X235100800Y-29267400D02*
X232360800Y-29267400D01*
X232360800Y-29267400D02*
X232360800Y-35807400D01*
X232360800Y-35807400D02*
X235100800Y-35807400D01*
X235100800Y-35807400D02*
X235100800Y-29267400D01*
X233730800Y-28497400D02*
X233730800Y-29267400D01*
X233730800Y-36577400D02*
X233730800Y-35807400D01*
X247877000Y-32163000D02*
X245137000Y-32163000D01*
X245137000Y-32163000D02*
X245137000Y-38703000D01*
X245137000Y-38703000D02*
X247877000Y-38703000D01*
X247877000Y-38703000D02*
X247877000Y-32163000D01*
X246507000Y-31393000D02*
X246507000Y-32163000D01*
X246507000Y-39473000D02*
X246507000Y-38703000D01*
X249732800Y-31367600D02*
X249732800Y-32137600D01*
X249732800Y-39447600D02*
X249732800Y-38677600D01*
X248362800Y-32137600D02*
X248362800Y-38677600D01*
X251102800Y-32137600D02*
X248362800Y-32137600D01*
X251102800Y-38677600D02*
X251102800Y-32137600D01*
X248362800Y-38677600D02*
X251102800Y-38677600D01*
X218211400Y-66676400D02*
X218211400Y-65906400D01*
X218211400Y-58596400D02*
X218211400Y-59366400D01*
X219581400Y-65906400D02*
X219581400Y-59366400D01*
X216841400Y-65906400D02*
X219581400Y-65906400D01*
X216841400Y-59366400D02*
X216841400Y-65906400D01*
X219581400Y-59366400D02*
X216841400Y-59366400D01*
X196824600Y-70359400D02*
X196824600Y-69589400D01*
X196824600Y-62279400D02*
X196824600Y-63049400D01*
X198194600Y-69589400D02*
X198194600Y-63049400D01*
X195454600Y-69589400D02*
X198194600Y-69589400D01*
X195454600Y-63049400D02*
X195454600Y-69589400D01*
X198194600Y-63049400D02*
X195454600Y-63049400D01*
X179601800Y-85934800D02*
X176861800Y-85934800D01*
X176861800Y-85934800D02*
X176861800Y-92474800D01*
X176861800Y-92474800D02*
X179601800Y-92474800D01*
X179601800Y-92474800D02*
X179601800Y-85934800D01*
X178231800Y-85164800D02*
X178231800Y-85934800D01*
X178231800Y-93244800D02*
X178231800Y-92474800D01*
X180033600Y-63151000D02*
X177293600Y-63151000D01*
X177293600Y-63151000D02*
X177293600Y-69691000D01*
X177293600Y-69691000D02*
X180033600Y-69691000D01*
X180033600Y-69691000D02*
X180033600Y-63151000D01*
X178663600Y-62381000D02*
X178663600Y-63151000D01*
X178663600Y-70461000D02*
X178663600Y-69691000D01*
X157810200Y-101293800D02*
X157810200Y-102063800D01*
X157810200Y-109373800D02*
X157810200Y-108603800D01*
X156440200Y-102063800D02*
X156440200Y-108603800D01*
X159180200Y-102063800D02*
X156440200Y-102063800D01*
X159180200Y-108603800D02*
X159180200Y-102063800D01*
X156440200Y-108603800D02*
X159180200Y-108603800D01*
X188093900Y-109972800D02*
X186443900Y-109972800D01*
X186443900Y-109972800D02*
X186443900Y-127872800D01*
X186443900Y-127872800D02*
X191743900Y-127872800D01*
X191743900Y-127872800D02*
X191743900Y-109972800D01*
X191743900Y-109972800D02*
X190093900Y-109972800D01*
X190093900Y-109972800D02*
G75*
G02*
X188093900Y-109972800I-1000000J0D01*
G01*
X144102600Y-67097600D02*
X138642600Y-67097600D01*
X144102600Y-118017600D02*
X144102600Y-67097600D01*
X131182600Y-118017600D02*
X144102600Y-118017600D01*
X131182600Y-67097600D02*
X131182600Y-118017600D01*
X136642600Y-67097600D02*
X131182600Y-67097600D01*
X138642600Y-67097600D02*
G75*
G02*
X136642600Y-67097600I-1000000J0D01*
G01*
X75573400Y-96801000D02*
X70113400Y-96801000D01*
X75573400Y-127401000D02*
X75573400Y-96801000D01*
X62653400Y-127401000D02*
X75573400Y-127401000D01*
X62653400Y-96801000D02*
X62653400Y-127401000D01*
X68113400Y-96801000D02*
X62653400Y-96801000D01*
X70113400Y-96801000D02*
G75*
G02*
X68113400Y-96801000I-1000000J0D01*
G01*
X208753200Y-58741000D02*
X207103200Y-58741000D01*
X207103200Y-58741000D02*
X207103200Y-76641000D01*
X207103200Y-76641000D02*
X212403200Y-76641000D01*
X212403200Y-76641000D02*
X212403200Y-58741000D01*
X212403200Y-58741000D02*
X210753200Y-58741000D01*
X210753200Y-58741000D02*
G75*
G02*
X208753200Y-58741000I-1000000J0D01*
G01*
X231173800Y-58512400D02*
X229523800Y-58512400D01*
X231173800Y-76412400D02*
X231173800Y-58512400D01*
X225873800Y-76412400D02*
X231173800Y-76412400D01*
X225873800Y-58512400D02*
X225873800Y-76412400D01*
X227523800Y-58512400D02*
X225873800Y-58512400D01*
X229523800Y-58512400D02*
G75*
G02*
X227523800Y-58512400I-1000000J0D01*
G01*
X188093900Y-83455200D02*
X186443900Y-83455200D01*
X186443900Y-83455200D02*
X186443900Y-103895200D01*
X186443900Y-103895200D02*
X191743900Y-103895200D01*
X191743900Y-103895200D02*
X191743900Y-83455200D01*
X191743900Y-83455200D02*
X190093900Y-83455200D01*
X190093900Y-83455200D02*
G75*
G02*
X188093900Y-83455200I-1000000J0D01*
G01*
X170906800Y-109972800D02*
X169256800Y-109972800D01*
X170906800Y-130412800D02*
X170906800Y-109972800D01*
X165606800Y-130412800D02*
X170906800Y-130412800D01*
X165606800Y-109972800D02*
X165606800Y-130412800D01*
X167256800Y-109972800D02*
X165606800Y-109972800D01*
X169256800Y-109972800D02*
G75*
G02*
X167256800Y-109972800I-1000000J0D01*
G01*
X102883400Y-110658600D02*
X101233400Y-110658600D01*
X101233400Y-110658600D02*
X101233400Y-131098600D01*
X101233400Y-131098600D02*
X106533400Y-131098600D01*
X106533400Y-131098600D02*
X106533400Y-110658600D01*
X106533400Y-110658600D02*
X104883400Y-110658600D01*
X104883400Y-110658600D02*
G75*
G02*
X102883400Y-110658600I-1000000J0D01*
G01*
X102883400Y-82155532D02*
X101233400Y-82155532D01*
X101233400Y-82155532D02*
X101233400Y-102595532D01*
X101233400Y-102595532D02*
X106533400Y-102595532D01*
X106533400Y-102595532D02*
X106533400Y-82155532D01*
X106533400Y-82155532D02*
X104883400Y-82155532D01*
X104883400Y-82155532D02*
G75*
G02*
X102883400Y-82155532I-1000000J0D01*
G01*
X106533400Y-53652466D02*
X104883400Y-53652466D01*
X106533400Y-74092466D02*
X106533400Y-53652466D01*
X101233400Y-74092466D02*
X106533400Y-74092466D01*
X101233400Y-53652466D02*
X101233400Y-74092466D01*
X102883400Y-53652466D02*
X101233400Y-53652466D01*
X104883400Y-53652466D02*
G75*
G02*
X102883400Y-53652466I-1000000J0D01*
G01*
X170906800Y-83455200D02*
X169256800Y-83455200D01*
X170906800Y-101355200D02*
X170906800Y-83455200D01*
X165606800Y-101355200D02*
X170906800Y-101355200D01*
X165606800Y-83455200D02*
X165606800Y-101355200D01*
X167256800Y-83455200D02*
X165606800Y-83455200D01*
X169256800Y-83455200D02*
G75*
G02*
X167256800Y-83455200I-1000000J0D01*
G01*
X212581000Y-109972800D02*
X210931000Y-109972800D01*
X212581000Y-130412800D02*
X212581000Y-109972800D01*
X207281000Y-130412800D02*
X212581000Y-130412800D01*
X207281000Y-109972800D02*
X207281000Y-130412800D01*
X208931000Y-109972800D02*
X207281000Y-109972800D01*
X210931000Y-109972800D02*
G75*
G02*
X208931000Y-109972800I-1000000J0D01*
G01*
X212581000Y-83455200D02*
X210931000Y-83455200D01*
X212581000Y-101355200D02*
X212581000Y-83455200D01*
X207281000Y-101355200D02*
X212581000Y-101355200D01*
X207281000Y-83455200D02*
X207281000Y-101355200D01*
X208931000Y-83455200D02*
X207281000Y-83455200D01*
X210931000Y-83455200D02*
G75*
G02*
X208931000Y-83455200I-1000000J0D01*
G01*
X77943400Y-30649400D02*
X77943400Y-36109400D01*
X108543400Y-30649400D02*
X77943400Y-30649400D01*
X108543400Y-43569400D02*
X108543400Y-30649400D01*
X77943400Y-43569400D02*
X108543400Y-43569400D01*
X77943400Y-38109400D02*
X77943400Y-43569400D01*
X77943400Y-36109400D02*
G75*
G02*
X77943400Y-38109400I0J-1000000D01*
G01*
X129159600Y-28649400D02*
X127509600Y-28649400D01*
X129159600Y-54169400D02*
X129159600Y-28649400D01*
X123859600Y-54169400D02*
X129159600Y-54169400D01*
X123859600Y-28649400D02*
X123859600Y-54169400D01*
X125509600Y-28649400D02*
X123859600Y-28649400D01*
X127509600Y-28649400D02*
G75*
G02*
X125509600Y-28649400I-1000000J0D01*
G01*
X249944400Y-58410800D02*
X248294400Y-58410800D01*
X249944400Y-76310800D02*
X249944400Y-58410800D01*
X244644400Y-76310800D02*
X249944400Y-76310800D01*
X244644400Y-58410800D02*
X244644400Y-76310800D01*
X246294400Y-58410800D02*
X244644400Y-58410800D01*
X248294400Y-58410800D02*
G75*
G02*
X246294400Y-58410800I-1000000J0D01*
G01*
X147196000Y-28649400D02*
X145546000Y-28649400D01*
X145546000Y-28649400D02*
X145546000Y-54169400D01*
X145546000Y-54169400D02*
X150846000Y-54169400D01*
X150846000Y-54169400D02*
X150846000Y-28649400D01*
X150846000Y-28649400D02*
X149196000Y-28649400D01*
X149196000Y-28649400D02*
G75*
G02*
X147196000Y-28649400I-1000000J0D01*
G01*
X167256800Y-56251800D02*
X165606800Y-56251800D01*
X165606800Y-56251800D02*
X165606800Y-76691800D01*
X165606800Y-76691800D02*
X170906800Y-76691800D01*
X170906800Y-76691800D02*
X170906800Y-56251800D01*
X170906800Y-56251800D02*
X169256800Y-56251800D01*
X169256800Y-56251800D02*
G75*
G02*
X167256800Y-56251800I-1000000J0D01*
G01*
X163566800Y-38109400D02*
X163566800Y-43569400D01*
X163566800Y-43569400D02*
X194166800Y-43569400D01*
X194166800Y-43569400D02*
X194166800Y-30649400D01*
X194166800Y-30649400D02*
X163566800Y-30649400D01*
X163566800Y-30649400D02*
X163566800Y-36109400D01*
X163566800Y-36109400D02*
G75*
G02*
X163566800Y-38109400I0J-1000000D01*
G01*
X212581000Y-28794400D02*
X210931000Y-28794400D01*
X212581000Y-49234400D02*
X212581000Y-28794400D01*
X207281000Y-49234400D02*
X212581000Y-49234400D01*
X207281000Y-28794400D02*
X207281000Y-49234400D01*
X208931000Y-28794400D02*
X207281000Y-28794400D01*
X210931000Y-28794400D02*
G75*
G02*
X208931000Y-28794400I-1000000J0D01*
G01*
X49809400Y-51906400D02*
X49809400Y-53866400D01*
X47269400Y-51906400D02*
X47269400Y-53866400D01*
X44729400Y-51906400D02*
X44729400Y-53866400D01*
X52519400Y-35796400D02*
X52519400Y-51906400D01*
X42019400Y-35796400D02*
X42019400Y-51906400D01*
X42019400Y-35796400D02*
X52519400Y-35796400D01*
X42019400Y-51906400D02*
X52519400Y-51906400D01*
X227701600Y-83455200D02*
X226051600Y-83455200D01*
X226051600Y-83455200D02*
X226051600Y-101355200D01*
X226051600Y-101355200D02*
X231351600Y-101355200D01*
X231351600Y-101355200D02*
X231351600Y-83455200D01*
X231351600Y-83455200D02*
X229701600Y-83455200D01*
X229701600Y-83455200D02*
G75*
G02*
X227701600Y-83455200I-1000000J0D01*
G01*
X187916100Y-58715600D02*
X186266100Y-58715600D01*
X186266100Y-58715600D02*
X186266100Y-76615600D01*
X186266100Y-76615600D02*
X191566100Y-76615600D01*
X191566100Y-76615600D02*
X191566100Y-58715600D01*
X191566100Y-58715600D02*
X189916100Y-58715600D01*
X189916100Y-58715600D02*
G75*
G02*
X187916100Y-58715600I-1000000J0D01*
G01*
X55057400Y-58211800D02*
X55057400Y-59711800D01*
X55807400Y-58961800D02*
X54307400Y-58961800D01*
X55227400Y-59961800D02*
X50487400Y-59961800D01*
X55227400Y-70201800D02*
X50487400Y-70201800D01*
X55227400Y-59961800D02*
X55227400Y-61461800D01*
X55227400Y-61461800D02*
X54477400Y-62211800D01*
X54477400Y-62211800D02*
X55227400Y-62961800D01*
X55227400Y-62961800D02*
X55227400Y-70201800D01*
X50487400Y-59961800D02*
X50487400Y-61461800D01*
X50487400Y-61461800D02*
X51237400Y-62211800D01*
X51237400Y-62211800D02*
X50487400Y-62961800D01*
X50487400Y-62961800D02*
X50487400Y-70201800D01*
X52857400Y-58821800D02*
X52857400Y-59961800D01*
X52857400Y-71341800D02*
X52857400Y-70201800D01*
X56278600Y-53491800D02*
X61018600Y-53491800D01*
X61018600Y-53491800D02*
X61018600Y-41351800D01*
X61018600Y-41351800D02*
X56278600Y-41351800D01*
X56278600Y-41351800D02*
X56278600Y-53491800D01*
X58648600Y-56141800D02*
X58648600Y-53491800D01*
X58648600Y-38701800D02*
X58648600Y-41351800D01*
X125503800Y-114932200D02*
X128343800Y-114932200D01*
X128343800Y-114932200D02*
X128343800Y-110892200D01*
X128343800Y-110892200D02*
X125503800Y-110892200D01*
X125503800Y-110892200D02*
X125503800Y-114932200D01*
X126923800Y-115622200D02*
X126923800Y-114932200D01*
X126923800Y-110202200D02*
X126923800Y-110892200D01*
X235550200Y-109972800D02*
X233900200Y-109972800D01*
X233900200Y-109972800D02*
X233900200Y-140572800D01*
X233900200Y-140572800D02*
X239200200Y-140572800D01*
X239200200Y-140572800D02*
X239200200Y-109972800D01*
X239200200Y-109972800D02*
X237550200Y-109972800D01*
X237550200Y-109972800D02*
G75*
G02*
X235550200Y-109972800I-1000000J0D01*
G01*
X231035600Y-152677000D02*
X231035600Y-149837000D01*
X231035600Y-149837000D02*
X226995600Y-149837000D01*
X226995600Y-149837000D02*
X226995600Y-152677000D01*
X226995600Y-152677000D02*
X231035600Y-152677000D01*
X231725600Y-151257000D02*
X231035600Y-151257000D01*
X226305600Y-151257000D02*
X226995600Y-151257000D01*
D10*
X228068142Y-43922866D02*
X228115761Y-43970485D01*
X228163380Y-44113342D01*
X228163380Y-44208580D01*
X228115761Y-44351438D01*
X228020523Y-44446676D01*
X227925285Y-44494295D01*
X227734809Y-44541914D01*
X227591952Y-44541914D01*
X227401476Y-44494295D01*
X227306238Y-44446676D01*
X227211000Y-44351438D01*
X227163380Y-44208580D01*
X227163380Y-44113342D01*
X227211000Y-43970485D01*
X227258619Y-43922866D01*
X228163380Y-42922866D02*
X227687190Y-43256200D01*
X228163380Y-43494295D02*
X227163380Y-43494295D01*
X227163380Y-43113342D01*
X227211000Y-43018104D01*
X227258619Y-42970485D01*
X227353857Y-42922866D01*
X227496714Y-42922866D01*
X227591952Y-42970485D01*
X227639571Y-43018104D01*
X227687190Y-43113342D01*
X227687190Y-43494295D01*
X228163380Y-41970485D02*
X228163380Y-42541914D01*
X228163380Y-42256200D02*
X227163380Y-42256200D01*
X227306238Y-42351438D01*
X227401476Y-42446676D01*
X227449095Y-42541914D01*
X226236380Y-40774904D02*
X225236380Y-40774904D01*
X226236380Y-40203476D02*
X225664952Y-40632047D01*
X225236380Y-40203476D02*
X225807809Y-40774904D01*
X244964009Y-93905390D02*
X244964009Y-94381580D01*
X244630676Y-93381580D02*
X244964009Y-93905390D01*
X245297342Y-93381580D01*
X246154485Y-94381580D02*
X245583057Y-94381580D01*
X245868771Y-94381580D02*
X245868771Y-93381580D01*
X245773533Y-93524438D01*
X245678295Y-93619676D01*
X245583057Y-93667295D01*
D13*
X72004980Y-80902647D02*
X72186409Y-80963123D01*
X72488790Y-80963123D01*
X72609742Y-80902647D01*
X72670219Y-80842171D01*
X72730695Y-80721219D01*
X72730695Y-80600266D01*
X72670219Y-80479314D01*
X72609742Y-80418838D01*
X72488790Y-80358361D01*
X72246885Y-80297885D01*
X72125933Y-80237409D01*
X72065457Y-80176933D01*
X72004980Y-80055980D01*
X72004980Y-79935028D01*
X72065457Y-79814076D01*
X72125933Y-79753600D01*
X72246885Y-79693123D01*
X72549266Y-79693123D01*
X72730695Y-79753600D01*
X73940219Y-80963123D02*
X73214504Y-80963123D01*
X73577361Y-80963123D02*
X73577361Y-79693123D01*
X73456409Y-79874552D01*
X73335457Y-79995504D01*
X73214504Y-80055980D01*
X262244223Y-44720933D02*
X263151366Y-44720933D01*
X263332795Y-44781409D01*
X263453747Y-44902361D01*
X263514223Y-45083790D01*
X263514223Y-45204742D01*
X263514223Y-43450933D02*
X263514223Y-44176647D01*
X263514223Y-43813790D02*
X262244223Y-43813790D01*
X262425652Y-43934742D01*
X262546604Y-44055695D01*
X262607080Y-44176647D01*
D10*
X75083942Y-37733266D02*
X75131561Y-37780885D01*
X75179180Y-37923742D01*
X75179180Y-38018980D01*
X75131561Y-38161838D01*
X75036323Y-38257076D01*
X74941085Y-38304695D01*
X74750609Y-38352314D01*
X74607752Y-38352314D01*
X74417276Y-38304695D01*
X74322038Y-38257076D01*
X74226800Y-38161838D01*
X74179180Y-38018980D01*
X74179180Y-37923742D01*
X74226800Y-37780885D01*
X74274419Y-37733266D01*
X74179180Y-37399933D02*
X74179180Y-36780885D01*
X74560133Y-37114219D01*
X74560133Y-36971361D01*
X74607752Y-36876123D01*
X74655371Y-36828504D01*
X74750609Y-36780885D01*
X74988704Y-36780885D01*
X75083942Y-36828504D01*
X75131561Y-36876123D01*
X75179180Y-36971361D01*
X75179180Y-37257076D01*
X75131561Y-37352314D01*
X75083942Y-37399933D01*
X245324333Y-82322942D02*
X245276714Y-82370561D01*
X245133857Y-82418180D01*
X245038619Y-82418180D01*
X244895761Y-82370561D01*
X244800523Y-82275323D01*
X244752904Y-82180085D01*
X244705285Y-81989609D01*
X244705285Y-81846752D01*
X244752904Y-81656276D01*
X244800523Y-81561038D01*
X244895761Y-81465800D01*
X245038619Y-81418180D01*
X245133857Y-81418180D01*
X245276714Y-81465800D01*
X245324333Y-81513419D01*
X246181476Y-81751514D02*
X246181476Y-82418180D01*
X245943380Y-81370561D02*
X245705285Y-82084847D01*
X246324333Y-82084847D01*
X66355933Y-94083142D02*
X66308314Y-94130761D01*
X66165457Y-94178380D01*
X66070219Y-94178380D01*
X65927361Y-94130761D01*
X65832123Y-94035523D01*
X65784504Y-93940285D01*
X65736885Y-93749809D01*
X65736885Y-93606952D01*
X65784504Y-93416476D01*
X65832123Y-93321238D01*
X65927361Y-93226000D01*
X66070219Y-93178380D01*
X66165457Y-93178380D01*
X66308314Y-93226000D01*
X66355933Y-93273619D01*
X67213076Y-93178380D02*
X67022600Y-93178380D01*
X66927361Y-93226000D01*
X66879742Y-93273619D01*
X66784504Y-93416476D01*
X66736885Y-93606952D01*
X66736885Y-93987904D01*
X66784504Y-94083142D01*
X66832123Y-94130761D01*
X66927361Y-94178380D01*
X67117838Y-94178380D01*
X67213076Y-94130761D01*
X67260695Y-94083142D01*
X67308314Y-93987904D01*
X67308314Y-93749809D01*
X67260695Y-93654571D01*
X67213076Y-93606952D01*
X67117838Y-93559333D01*
X66927361Y-93559333D01*
X66832123Y-93606952D01*
X66784504Y-93654571D01*
X66736885Y-93749809D01*
X96369142Y-62599866D02*
X96416761Y-62647485D01*
X96464380Y-62790342D01*
X96464380Y-62885580D01*
X96416761Y-63028438D01*
X96321523Y-63123676D01*
X96226285Y-63171295D01*
X96035809Y-63218914D01*
X95892952Y-63218914D01*
X95702476Y-63171295D01*
X95607238Y-63123676D01*
X95512000Y-63028438D01*
X95464380Y-62885580D01*
X95464380Y-62790342D01*
X95512000Y-62647485D01*
X95559619Y-62599866D01*
X95464380Y-62266533D02*
X95464380Y-61599866D01*
X96464380Y-62028438D01*
X96318342Y-90946266D02*
X96365961Y-90993885D01*
X96413580Y-91136742D01*
X96413580Y-91231980D01*
X96365961Y-91374838D01*
X96270723Y-91470076D01*
X96175485Y-91517695D01*
X95985009Y-91565314D01*
X95842152Y-91565314D01*
X95651676Y-91517695D01*
X95556438Y-91470076D01*
X95461200Y-91374838D01*
X95413580Y-91231980D01*
X95413580Y-91136742D01*
X95461200Y-90993885D01*
X95508819Y-90946266D01*
X95842152Y-90374838D02*
X95794533Y-90470076D01*
X95746914Y-90517695D01*
X95651676Y-90565314D01*
X95604057Y-90565314D01*
X95508819Y-90517695D01*
X95461200Y-90470076D01*
X95413580Y-90374838D01*
X95413580Y-90184361D01*
X95461200Y-90089123D01*
X95508819Y-90041504D01*
X95604057Y-89993885D01*
X95651676Y-89993885D01*
X95746914Y-90041504D01*
X95794533Y-90089123D01*
X95842152Y-90184361D01*
X95842152Y-90374838D01*
X95889771Y-90470076D01*
X95937390Y-90517695D01*
X96032628Y-90565314D01*
X96223104Y-90565314D01*
X96318342Y-90517695D01*
X96365961Y-90470076D01*
X96413580Y-90374838D01*
X96413580Y-90184361D01*
X96365961Y-90089123D01*
X96318342Y-90041504D01*
X96223104Y-89993885D01*
X96032628Y-89993885D01*
X95937390Y-90041504D01*
X95889771Y-90089123D01*
X95842152Y-90184361D01*
X96318342Y-119699066D02*
X96365961Y-119746685D01*
X96413580Y-119889542D01*
X96413580Y-119984780D01*
X96365961Y-120127638D01*
X96270723Y-120222876D01*
X96175485Y-120270495D01*
X95985009Y-120318114D01*
X95842152Y-120318114D01*
X95651676Y-120270495D01*
X95556438Y-120222876D01*
X95461200Y-120127638D01*
X95413580Y-119984780D01*
X95413580Y-119889542D01*
X95461200Y-119746685D01*
X95508819Y-119699066D01*
X96413580Y-119222876D02*
X96413580Y-119032400D01*
X96365961Y-118937161D01*
X96318342Y-118889542D01*
X96175485Y-118794304D01*
X95985009Y-118746685D01*
X95604057Y-118746685D01*
X95508819Y-118794304D01*
X95461200Y-118841923D01*
X95413580Y-118937161D01*
X95413580Y-119127638D01*
X95461200Y-119222876D01*
X95508819Y-119270495D01*
X95604057Y-119318114D01*
X95842152Y-119318114D01*
X95937390Y-119270495D01*
X95985009Y-119222876D01*
X96032628Y-119127638D01*
X96032628Y-118937161D01*
X95985009Y-118841923D01*
X95937390Y-118794304D01*
X95842152Y-118746685D01*
X120480742Y-31850257D02*
X120528361Y-31897876D01*
X120575980Y-32040733D01*
X120575980Y-32135971D01*
X120528361Y-32278828D01*
X120433123Y-32374066D01*
X120337885Y-32421685D01*
X120147409Y-32469304D01*
X120004552Y-32469304D01*
X119814076Y-32421685D01*
X119718838Y-32374066D01*
X119623600Y-32278828D01*
X119575980Y-32135971D01*
X119575980Y-32040733D01*
X119623600Y-31897876D01*
X119671219Y-31850257D01*
X120575980Y-30897876D02*
X120575980Y-31469304D01*
X120575980Y-31183590D02*
X119575980Y-31183590D01*
X119718838Y-31278828D01*
X119814076Y-31374066D01*
X119861695Y-31469304D01*
X119575980Y-30278828D02*
X119575980Y-30183590D01*
X119623600Y-30088352D01*
X119671219Y-30040733D01*
X119766457Y-29993114D01*
X119956933Y-29945495D01*
X120195028Y-29945495D01*
X120385504Y-29993114D01*
X120480742Y-30040733D01*
X120528361Y-30088352D01*
X120575980Y-30183590D01*
X120575980Y-30278828D01*
X120528361Y-30374066D01*
X120480742Y-30421685D01*
X120385504Y-30469304D01*
X120195028Y-30516923D01*
X119956933Y-30516923D01*
X119766457Y-30469304D01*
X119671219Y-30421685D01*
X119623600Y-30374066D01*
X119575980Y-30278828D01*
X142375542Y-31850257D02*
X142423161Y-31897876D01*
X142470780Y-32040733D01*
X142470780Y-32135971D01*
X142423161Y-32278828D01*
X142327923Y-32374066D01*
X142232685Y-32421685D01*
X142042209Y-32469304D01*
X141899352Y-32469304D01*
X141708876Y-32421685D01*
X141613638Y-32374066D01*
X141518400Y-32278828D01*
X141470780Y-32135971D01*
X141470780Y-32040733D01*
X141518400Y-31897876D01*
X141566019Y-31850257D01*
X142470780Y-30897876D02*
X142470780Y-31469304D01*
X142470780Y-31183590D02*
X141470780Y-31183590D01*
X141613638Y-31278828D01*
X141708876Y-31374066D01*
X141756495Y-31469304D01*
X142470780Y-29945495D02*
X142470780Y-30516923D01*
X142470780Y-30231209D02*
X141470780Y-30231209D01*
X141613638Y-30326447D01*
X141708876Y-30421685D01*
X141756495Y-30516923D01*
X161384343Y-38404056D02*
X161431962Y-38451675D01*
X161479581Y-38594532D01*
X161479581Y-38689770D01*
X161431962Y-38832627D01*
X161336724Y-38927865D01*
X161241486Y-38975484D01*
X161051010Y-39023103D01*
X160908153Y-39023103D01*
X160717677Y-38975484D01*
X160622439Y-38927865D01*
X160527201Y-38832627D01*
X160479581Y-38689770D01*
X160479581Y-38594532D01*
X160527201Y-38451675D01*
X160574820Y-38404056D01*
X161479581Y-37451675D02*
X161479581Y-38023103D01*
X161479581Y-37737389D02*
X160479581Y-37737389D01*
X160622439Y-37832627D01*
X160717677Y-37927865D01*
X160765296Y-38023103D01*
X160574820Y-37070722D02*
X160527201Y-37023103D01*
X160479581Y-36927865D01*
X160479581Y-36689770D01*
X160527201Y-36594532D01*
X160574820Y-36546913D01*
X160670058Y-36499294D01*
X160765296Y-36499294D01*
X160908153Y-36546913D01*
X161479581Y-37118341D01*
X161479581Y-36499294D01*
X160732742Y-66505057D02*
X160780361Y-66552676D01*
X160827980Y-66695533D01*
X160827980Y-66790771D01*
X160780361Y-66933628D01*
X160685123Y-67028866D01*
X160589885Y-67076485D01*
X160399409Y-67124104D01*
X160256552Y-67124104D01*
X160066076Y-67076485D01*
X159970838Y-67028866D01*
X159875600Y-66933628D01*
X159827980Y-66790771D01*
X159827980Y-66695533D01*
X159875600Y-66552676D01*
X159923219Y-66505057D01*
X160827980Y-65552676D02*
X160827980Y-66124104D01*
X160827980Y-65838390D02*
X159827980Y-65838390D01*
X159970838Y-65933628D01*
X160066076Y-66028866D01*
X160113695Y-66124104D01*
X159827980Y-65219342D02*
X159827980Y-64600295D01*
X160208933Y-64933628D01*
X160208933Y-64790771D01*
X160256552Y-64695533D01*
X160304171Y-64647914D01*
X160399409Y-64600295D01*
X160637504Y-64600295D01*
X160732742Y-64647914D01*
X160780361Y-64695533D01*
X160827980Y-64790771D01*
X160827980Y-65076485D01*
X160780361Y-65171723D01*
X160732742Y-65219342D01*
X160783542Y-93175057D02*
X160831161Y-93222676D01*
X160878780Y-93365533D01*
X160878780Y-93460771D01*
X160831161Y-93603628D01*
X160735923Y-93698866D01*
X160640685Y-93746485D01*
X160450209Y-93794104D01*
X160307352Y-93794104D01*
X160116876Y-93746485D01*
X160021638Y-93698866D01*
X159926400Y-93603628D01*
X159878780Y-93460771D01*
X159878780Y-93365533D01*
X159926400Y-93222676D01*
X159974019Y-93175057D01*
X160878780Y-92222676D02*
X160878780Y-92794104D01*
X160878780Y-92508390D02*
X159878780Y-92508390D01*
X160021638Y-92603628D01*
X160116876Y-92698866D01*
X160164495Y-92794104D01*
X160212114Y-91365533D02*
X160878780Y-91365533D01*
X159831161Y-91603628D02*
X160545447Y-91841723D01*
X160545447Y-91222676D01*
X160631142Y-120022857D02*
X160678761Y-120070476D01*
X160726380Y-120213333D01*
X160726380Y-120308571D01*
X160678761Y-120451428D01*
X160583523Y-120546666D01*
X160488285Y-120594285D01*
X160297809Y-120641904D01*
X160154952Y-120641904D01*
X159964476Y-120594285D01*
X159869238Y-120546666D01*
X159774000Y-120451428D01*
X159726380Y-120308571D01*
X159726380Y-120213333D01*
X159774000Y-120070476D01*
X159821619Y-120022857D01*
X160726380Y-119070476D02*
X160726380Y-119641904D01*
X160726380Y-119356190D02*
X159726380Y-119356190D01*
X159869238Y-119451428D01*
X159964476Y-119546666D01*
X160012095Y-119641904D01*
X159726380Y-118165714D02*
X159726380Y-118641904D01*
X160202571Y-118689523D01*
X160154952Y-118641904D01*
X160107333Y-118546666D01*
X160107333Y-118308571D01*
X160154952Y-118213333D01*
X160202571Y-118165714D01*
X160297809Y-118118095D01*
X160535904Y-118118095D01*
X160631142Y-118165714D01*
X160678761Y-118213333D01*
X160726380Y-118308571D01*
X160726380Y-118546666D01*
X160678761Y-118641904D01*
X160631142Y-118689523D01*
X181332142Y-55557657D02*
X181379761Y-55605276D01*
X181427380Y-55748133D01*
X181427380Y-55843371D01*
X181379761Y-55986228D01*
X181284523Y-56081466D01*
X181189285Y-56129085D01*
X180998809Y-56176704D01*
X180855952Y-56176704D01*
X180665476Y-56129085D01*
X180570238Y-56081466D01*
X180475000Y-55986228D01*
X180427380Y-55843371D01*
X180427380Y-55748133D01*
X180475000Y-55605276D01*
X180522619Y-55557657D01*
X181427380Y-54605276D02*
X181427380Y-55176704D01*
X181427380Y-54890990D02*
X180427380Y-54890990D01*
X180570238Y-54986228D01*
X180665476Y-55081466D01*
X180713095Y-55176704D01*
X180427380Y-53748133D02*
X180427380Y-53938609D01*
X180475000Y-54033847D01*
X180522619Y-54081466D01*
X180665476Y-54176704D01*
X180855952Y-54224323D01*
X181236904Y-54224323D01*
X181332142Y-54176704D01*
X181379761Y-54129085D01*
X181427380Y-54033847D01*
X181427380Y-53843371D01*
X181379761Y-53748133D01*
X181332142Y-53700514D01*
X181236904Y-53652895D01*
X180998809Y-53652895D01*
X180903571Y-53700514D01*
X180855952Y-53748133D01*
X180808333Y-53843371D01*
X180808333Y-54033847D01*
X180855952Y-54129085D01*
X180903571Y-54176704D01*
X180998809Y-54224323D01*
X181611542Y-80627457D02*
X181659161Y-80675076D01*
X181706780Y-80817933D01*
X181706780Y-80913171D01*
X181659161Y-81056028D01*
X181563923Y-81151266D01*
X181468685Y-81198885D01*
X181278209Y-81246504D01*
X181135352Y-81246504D01*
X180944876Y-81198885D01*
X180849638Y-81151266D01*
X180754400Y-81056028D01*
X180706780Y-80913171D01*
X180706780Y-80817933D01*
X180754400Y-80675076D01*
X180802019Y-80627457D01*
X181706780Y-79675076D02*
X181706780Y-80246504D01*
X181706780Y-79960790D02*
X180706780Y-79960790D01*
X180849638Y-80056028D01*
X180944876Y-80151266D01*
X180992495Y-80246504D01*
X180706780Y-79341742D02*
X180706780Y-78675076D01*
X181706780Y-79103647D01*
X180290742Y-118549657D02*
X180338361Y-118597276D01*
X180385980Y-118740133D01*
X180385980Y-118835371D01*
X180338361Y-118978228D01*
X180243123Y-119073466D01*
X180147885Y-119121085D01*
X179957409Y-119168704D01*
X179814552Y-119168704D01*
X179624076Y-119121085D01*
X179528838Y-119073466D01*
X179433600Y-118978228D01*
X179385980Y-118835371D01*
X179385980Y-118740133D01*
X179433600Y-118597276D01*
X179481219Y-118549657D01*
X180385980Y-117597276D02*
X180385980Y-118168704D01*
X180385980Y-117882990D02*
X179385980Y-117882990D01*
X179528838Y-117978228D01*
X179624076Y-118073466D01*
X179671695Y-118168704D01*
X179814552Y-117025847D02*
X179766933Y-117121085D01*
X179719314Y-117168704D01*
X179624076Y-117216323D01*
X179576457Y-117216323D01*
X179481219Y-117168704D01*
X179433600Y-117121085D01*
X179385980Y-117025847D01*
X179385980Y-116835371D01*
X179433600Y-116740133D01*
X179481219Y-116692514D01*
X179576457Y-116644895D01*
X179624076Y-116644895D01*
X179719314Y-116692514D01*
X179766933Y-116740133D01*
X179814552Y-116835371D01*
X179814552Y-117025847D01*
X179862171Y-117121085D01*
X179909790Y-117168704D01*
X180005028Y-117216323D01*
X180195504Y-117216323D01*
X180290742Y-117168704D01*
X180338361Y-117121085D01*
X180385980Y-117025847D01*
X180385980Y-116835371D01*
X180338361Y-116740133D01*
X180290742Y-116692514D01*
X180195504Y-116644895D01*
X180005028Y-116644895D01*
X179909790Y-116692514D01*
X179862171Y-116740133D01*
X179814552Y-116835371D01*
X205596142Y-31850257D02*
X205643761Y-31897876D01*
X205691380Y-32040733D01*
X205691380Y-32135971D01*
X205643761Y-32278828D01*
X205548523Y-32374066D01*
X205453285Y-32421685D01*
X205262809Y-32469304D01*
X205119952Y-32469304D01*
X204929476Y-32421685D01*
X204834238Y-32374066D01*
X204739000Y-32278828D01*
X204691380Y-32135971D01*
X204691380Y-32040733D01*
X204739000Y-31897876D01*
X204786619Y-31850257D01*
X205691380Y-30897876D02*
X205691380Y-31469304D01*
X205691380Y-31183590D02*
X204691380Y-31183590D01*
X204834238Y-31278828D01*
X204929476Y-31374066D01*
X204977095Y-31469304D01*
X205691380Y-30421685D02*
X205691380Y-30231209D01*
X205643761Y-30135971D01*
X205596142Y-30088352D01*
X205453285Y-29993114D01*
X205262809Y-29945495D01*
X204881857Y-29945495D01*
X204786619Y-29993114D01*
X204739000Y-30040733D01*
X204691380Y-30135971D01*
X204691380Y-30326447D01*
X204739000Y-30421685D01*
X204786619Y-30469304D01*
X204881857Y-30516923D01*
X205119952Y-30516923D01*
X205215190Y-30469304D01*
X205262809Y-30421685D01*
X205310428Y-30326447D01*
X205310428Y-30135971D01*
X205262809Y-30040733D01*
X205215190Y-29993114D01*
X205119952Y-29945495D01*
X202261742Y-55506857D02*
X202309361Y-55554476D01*
X202356980Y-55697333D01*
X202356980Y-55792571D01*
X202309361Y-55935428D01*
X202214123Y-56030666D01*
X202118885Y-56078285D01*
X201928409Y-56125904D01*
X201785552Y-56125904D01*
X201595076Y-56078285D01*
X201499838Y-56030666D01*
X201404600Y-55935428D01*
X201356980Y-55792571D01*
X201356980Y-55697333D01*
X201404600Y-55554476D01*
X201452219Y-55506857D01*
X201452219Y-55125904D02*
X201404600Y-55078285D01*
X201356980Y-54983047D01*
X201356980Y-54744952D01*
X201404600Y-54649714D01*
X201452219Y-54602095D01*
X201547457Y-54554476D01*
X201642695Y-54554476D01*
X201785552Y-54602095D01*
X202356980Y-55173523D01*
X202356980Y-54554476D01*
X201356980Y-53935428D02*
X201356980Y-53840190D01*
X201404600Y-53744952D01*
X201452219Y-53697333D01*
X201547457Y-53649714D01*
X201737933Y-53602095D01*
X201976028Y-53602095D01*
X202166504Y-53649714D01*
X202261742Y-53697333D01*
X202309361Y-53744952D01*
X202356980Y-53840190D01*
X202356980Y-53935428D01*
X202309361Y-54030666D01*
X202261742Y-54078285D01*
X202166504Y-54125904D01*
X201976028Y-54173523D01*
X201737933Y-54173523D01*
X201547457Y-54125904D01*
X201452219Y-54078285D01*
X201404600Y-54030666D01*
X201356980Y-53935428D01*
X202388742Y-93302057D02*
X202436361Y-93349676D01*
X202483980Y-93492533D01*
X202483980Y-93587771D01*
X202436361Y-93730628D01*
X202341123Y-93825866D01*
X202245885Y-93873485D01*
X202055409Y-93921104D01*
X201912552Y-93921104D01*
X201722076Y-93873485D01*
X201626838Y-93825866D01*
X201531600Y-93730628D01*
X201483980Y-93587771D01*
X201483980Y-93492533D01*
X201531600Y-93349676D01*
X201579219Y-93302057D01*
X201579219Y-92921104D02*
X201531600Y-92873485D01*
X201483980Y-92778247D01*
X201483980Y-92540152D01*
X201531600Y-92444914D01*
X201579219Y-92397295D01*
X201674457Y-92349676D01*
X201769695Y-92349676D01*
X201912552Y-92397295D01*
X202483980Y-92968723D01*
X202483980Y-92349676D01*
X202483980Y-91397295D02*
X202483980Y-91968723D01*
X202483980Y-91683009D02*
X201483980Y-91683009D01*
X201626838Y-91778247D01*
X201722076Y-91873485D01*
X201769695Y-91968723D01*
X201042542Y-118625857D02*
X201090161Y-118673476D01*
X201137780Y-118816333D01*
X201137780Y-118911571D01*
X201090161Y-119054428D01*
X200994923Y-119149666D01*
X200899685Y-119197285D01*
X200709209Y-119244904D01*
X200566352Y-119244904D01*
X200375876Y-119197285D01*
X200280638Y-119149666D01*
X200185400Y-119054428D01*
X200137780Y-118911571D01*
X200137780Y-118816333D01*
X200185400Y-118673476D01*
X200233019Y-118625857D01*
X200233019Y-118244904D02*
X200185400Y-118197285D01*
X200137780Y-118102047D01*
X200137780Y-117863952D01*
X200185400Y-117768714D01*
X200233019Y-117721095D01*
X200328257Y-117673476D01*
X200423495Y-117673476D01*
X200566352Y-117721095D01*
X201137780Y-118292523D01*
X201137780Y-117673476D01*
X200233019Y-117292523D02*
X200185400Y-117244904D01*
X200137780Y-117149666D01*
X200137780Y-116911571D01*
X200185400Y-116816333D01*
X200233019Y-116768714D01*
X200328257Y-116721095D01*
X200423495Y-116721095D01*
X200566352Y-116768714D01*
X201137780Y-117340142D01*
X201137780Y-116721095D01*
X222937342Y-55710057D02*
X222984961Y-55757676D01*
X223032580Y-55900533D01*
X223032580Y-55995771D01*
X222984961Y-56138628D01*
X222889723Y-56233866D01*
X222794485Y-56281485D01*
X222604009Y-56329104D01*
X222461152Y-56329104D01*
X222270676Y-56281485D01*
X222175438Y-56233866D01*
X222080200Y-56138628D01*
X222032580Y-55995771D01*
X222032580Y-55900533D01*
X222080200Y-55757676D01*
X222127819Y-55710057D01*
X222127819Y-55329104D02*
X222080200Y-55281485D01*
X222032580Y-55186247D01*
X222032580Y-54948152D01*
X222080200Y-54852914D01*
X222127819Y-54805295D01*
X222223057Y-54757676D01*
X222318295Y-54757676D01*
X222461152Y-54805295D01*
X223032580Y-55376723D01*
X223032580Y-54757676D01*
X222032580Y-54424342D02*
X222032580Y-53805295D01*
X222413533Y-54138628D01*
X222413533Y-53995771D01*
X222461152Y-53900533D01*
X222508771Y-53852914D01*
X222604009Y-53805295D01*
X222842104Y-53805295D01*
X222937342Y-53852914D01*
X222984961Y-53900533D01*
X223032580Y-53995771D01*
X223032580Y-54281485D01*
X222984961Y-54376723D01*
X222937342Y-54424342D01*
X221184742Y-93403657D02*
X221232361Y-93451276D01*
X221279980Y-93594133D01*
X221279980Y-93689371D01*
X221232361Y-93832228D01*
X221137123Y-93927466D01*
X221041885Y-93975085D01*
X220851409Y-94022704D01*
X220708552Y-94022704D01*
X220518076Y-93975085D01*
X220422838Y-93927466D01*
X220327600Y-93832228D01*
X220279980Y-93689371D01*
X220279980Y-93594133D01*
X220327600Y-93451276D01*
X220375219Y-93403657D01*
X220375219Y-93022704D02*
X220327600Y-92975085D01*
X220279980Y-92879847D01*
X220279980Y-92641752D01*
X220327600Y-92546514D01*
X220375219Y-92498895D01*
X220470457Y-92451276D01*
X220565695Y-92451276D01*
X220708552Y-92498895D01*
X221279980Y-93070323D01*
X221279980Y-92451276D01*
X220613314Y-91594133D02*
X221279980Y-91594133D01*
X220232361Y-91832228D02*
X220946647Y-92070323D01*
X220946647Y-91451276D01*
X228880942Y-106967257D02*
X228928561Y-107014876D01*
X228976180Y-107157733D01*
X228976180Y-107252971D01*
X228928561Y-107395828D01*
X228833323Y-107491066D01*
X228738085Y-107538685D01*
X228547609Y-107586304D01*
X228404752Y-107586304D01*
X228214276Y-107538685D01*
X228119038Y-107491066D01*
X228023800Y-107395828D01*
X227976180Y-107252971D01*
X227976180Y-107157733D01*
X228023800Y-107014876D01*
X228071419Y-106967257D01*
X228071419Y-106586304D02*
X228023800Y-106538685D01*
X227976180Y-106443447D01*
X227976180Y-106205352D01*
X228023800Y-106110114D01*
X228071419Y-106062495D01*
X228166657Y-106014876D01*
X228261895Y-106014876D01*
X228404752Y-106062495D01*
X228976180Y-106633923D01*
X228976180Y-106014876D01*
X227976180Y-105110114D02*
X227976180Y-105586304D01*
X228452371Y-105633923D01*
X228404752Y-105586304D01*
X228357133Y-105491066D01*
X228357133Y-105252971D01*
X228404752Y-105157733D01*
X228452371Y-105110114D01*
X228547609Y-105062495D01*
X228785704Y-105062495D01*
X228880942Y-105110114D01*
X228928561Y-105157733D01*
X228976180Y-105252971D01*
X228976180Y-105491066D01*
X228928561Y-105586304D01*
X228880942Y-105633923D01*
X239447342Y-68206857D02*
X239494961Y-68254476D01*
X239542580Y-68397333D01*
X239542580Y-68492571D01*
X239494961Y-68635428D01*
X239399723Y-68730666D01*
X239304485Y-68778285D01*
X239114009Y-68825904D01*
X238971152Y-68825904D01*
X238780676Y-68778285D01*
X238685438Y-68730666D01*
X238590200Y-68635428D01*
X238542580Y-68492571D01*
X238542580Y-68397333D01*
X238590200Y-68254476D01*
X238637819Y-68206857D01*
X238637819Y-67825904D02*
X238590200Y-67778285D01*
X238542580Y-67683047D01*
X238542580Y-67444952D01*
X238590200Y-67349714D01*
X238637819Y-67302095D01*
X238733057Y-67254476D01*
X238828295Y-67254476D01*
X238971152Y-67302095D01*
X239542580Y-67873523D01*
X239542580Y-67254476D01*
X238542580Y-66397333D02*
X238542580Y-66587809D01*
X238590200Y-66683047D01*
X238637819Y-66730666D01*
X238780676Y-66825904D01*
X238971152Y-66873523D01*
X239352104Y-66873523D01*
X239447342Y-66825904D01*
X239494961Y-66778285D01*
X239542580Y-66683047D01*
X239542580Y-66492571D01*
X239494961Y-66397333D01*
X239447342Y-66349714D01*
X239352104Y-66302095D01*
X239114009Y-66302095D01*
X239018771Y-66349714D01*
X238971152Y-66397333D01*
X238923533Y-66492571D01*
X238923533Y-66683047D01*
X238971152Y-66778285D01*
X239018771Y-66825904D01*
X239114009Y-66873523D01*
X44356942Y-63549457D02*
X44404561Y-63597076D01*
X44452180Y-63739933D01*
X44452180Y-63835171D01*
X44404561Y-63978028D01*
X44309323Y-64073266D01*
X44214085Y-64120885D01*
X44023609Y-64168504D01*
X43880752Y-64168504D01*
X43690276Y-64120885D01*
X43595038Y-64073266D01*
X43499800Y-63978028D01*
X43452180Y-63835171D01*
X43452180Y-63739933D01*
X43499800Y-63597076D01*
X43547419Y-63549457D01*
X43547419Y-63168504D02*
X43499800Y-63120885D01*
X43452180Y-63025647D01*
X43452180Y-62787552D01*
X43499800Y-62692314D01*
X43547419Y-62644695D01*
X43642657Y-62597076D01*
X43737895Y-62597076D01*
X43880752Y-62644695D01*
X44452180Y-63216123D01*
X44452180Y-62597076D01*
X43452180Y-62263742D02*
X43452180Y-61597076D01*
X44452180Y-62025647D01*
X200331342Y-70188057D02*
X200378961Y-70235676D01*
X200426580Y-70378533D01*
X200426580Y-70473771D01*
X200378961Y-70616628D01*
X200283723Y-70711866D01*
X200188485Y-70759485D01*
X199998009Y-70807104D01*
X199855152Y-70807104D01*
X199664676Y-70759485D01*
X199569438Y-70711866D01*
X199474200Y-70616628D01*
X199426580Y-70473771D01*
X199426580Y-70378533D01*
X199474200Y-70235676D01*
X199521819Y-70188057D01*
X199521819Y-69807104D02*
X199474200Y-69759485D01*
X199426580Y-69664247D01*
X199426580Y-69426152D01*
X199474200Y-69330914D01*
X199521819Y-69283295D01*
X199617057Y-69235676D01*
X199712295Y-69235676D01*
X199855152Y-69283295D01*
X200426580Y-69854723D01*
X200426580Y-69235676D01*
X199855152Y-68664247D02*
X199807533Y-68759485D01*
X199759914Y-68807104D01*
X199664676Y-68854723D01*
X199617057Y-68854723D01*
X199521819Y-68807104D01*
X199474200Y-68759485D01*
X199426580Y-68664247D01*
X199426580Y-68473771D01*
X199474200Y-68378533D01*
X199521819Y-68330914D01*
X199617057Y-68283295D01*
X199664676Y-68283295D01*
X199759914Y-68330914D01*
X199807533Y-68378533D01*
X199855152Y-68473771D01*
X199855152Y-68664247D01*
X199902771Y-68759485D01*
X199950390Y-68807104D01*
X200045628Y-68854723D01*
X200236104Y-68854723D01*
X200331342Y-68807104D01*
X200378961Y-68759485D01*
X200426580Y-68664247D01*
X200426580Y-68473771D01*
X200378961Y-68378533D01*
X200331342Y-68330914D01*
X200236104Y-68283295D01*
X200045628Y-68283295D01*
X199950390Y-68330914D01*
X199902771Y-68378533D01*
X199855152Y-68473771D01*
X237986342Y-49836342D02*
X237938723Y-49883961D01*
X237795866Y-49931580D01*
X237700628Y-49931580D01*
X237557771Y-49883961D01*
X237462533Y-49788723D01*
X237414914Y-49693485D01*
X237367295Y-49503009D01*
X237367295Y-49360152D01*
X237414914Y-49169676D01*
X237462533Y-49074438D01*
X237557771Y-48979200D01*
X237700628Y-48931580D01*
X237795866Y-48931580D01*
X237938723Y-48979200D01*
X237986342Y-49026819D01*
X238367295Y-49026819D02*
X238414914Y-48979200D01*
X238510152Y-48931580D01*
X238748247Y-48931580D01*
X238843485Y-48979200D01*
X238891104Y-49026819D01*
X238938723Y-49122057D01*
X238938723Y-49217295D01*
X238891104Y-49360152D01*
X238319676Y-49931580D01*
X238938723Y-49931580D01*
X239414914Y-49931580D02*
X239605390Y-49931580D01*
X239700628Y-49883961D01*
X239748247Y-49836342D01*
X239843485Y-49693485D01*
X239891104Y-49503009D01*
X239891104Y-49122057D01*
X239843485Y-49026819D01*
X239795866Y-48979200D01*
X239700628Y-48931580D01*
X239510152Y-48931580D01*
X239414914Y-48979200D01*
X239367295Y-49026819D01*
X239319676Y-49122057D01*
X239319676Y-49360152D01*
X239367295Y-49455390D01*
X239414914Y-49503009D01*
X239510152Y-49550628D01*
X239700628Y-49550628D01*
X239795866Y-49503009D01*
X239843485Y-49455390D01*
X239891104Y-49360152D01*
X119533942Y-115069857D02*
X119581561Y-115117476D01*
X119629180Y-115260333D01*
X119629180Y-115355571D01*
X119581561Y-115498428D01*
X119486323Y-115593666D01*
X119391085Y-115641285D01*
X119200609Y-115688904D01*
X119057752Y-115688904D01*
X118867276Y-115641285D01*
X118772038Y-115593666D01*
X118676800Y-115498428D01*
X118629180Y-115355571D01*
X118629180Y-115260333D01*
X118676800Y-115117476D01*
X118724419Y-115069857D01*
X118629180Y-114736523D02*
X118629180Y-114117476D01*
X119010133Y-114450809D01*
X119010133Y-114307952D01*
X119057752Y-114212714D01*
X119105371Y-114165095D01*
X119200609Y-114117476D01*
X119438704Y-114117476D01*
X119533942Y-114165095D01*
X119581561Y-114212714D01*
X119629180Y-114307952D01*
X119629180Y-114593666D01*
X119581561Y-114688904D01*
X119533942Y-114736523D01*
X118629180Y-113498428D02*
X118629180Y-113403190D01*
X118676800Y-113307952D01*
X118724419Y-113260333D01*
X118819657Y-113212714D01*
X119010133Y-113165095D01*
X119248228Y-113165095D01*
X119438704Y-113212714D01*
X119533942Y-113260333D01*
X119581561Y-113307952D01*
X119629180Y-113403190D01*
X119629180Y-113498428D01*
X119581561Y-113593666D01*
X119533942Y-113641285D01*
X119438704Y-113688904D01*
X119248228Y-113736523D01*
X119010133Y-113736523D01*
X118819657Y-113688904D01*
X118724419Y-113641285D01*
X118676800Y-113593666D01*
X118629180Y-113498428D01*
X247656732Y-142874641D02*
X247609113Y-142922260D01*
X247466256Y-142969879D01*
X247371018Y-142969879D01*
X247228160Y-142922260D01*
X247132922Y-142827022D01*
X247085303Y-142731784D01*
X247037684Y-142541308D01*
X247037684Y-142398451D01*
X247085303Y-142207975D01*
X247132922Y-142112737D01*
X247228160Y-142017499D01*
X247371018Y-141969879D01*
X247466256Y-141969879D01*
X247609113Y-142017499D01*
X247656732Y-142065118D01*
X248656732Y-142969879D02*
X248323399Y-142493689D01*
X248085303Y-142969879D02*
X248085303Y-141969879D01*
X248466256Y-141969879D01*
X248561494Y-142017499D01*
X248609113Y-142065118D01*
X248656732Y-142160356D01*
X248656732Y-142303213D01*
X248609113Y-142398451D01*
X248561494Y-142446070D01*
X248466256Y-142493689D01*
X248085303Y-142493689D01*
X249037684Y-142065118D02*
X249085303Y-142017499D01*
X249180541Y-141969879D01*
X249418637Y-141969879D01*
X249513875Y-142017499D01*
X249561494Y-142065118D01*
X249609113Y-142160356D01*
X249609113Y-142255594D01*
X249561494Y-142398451D01*
X248990065Y-142969879D01*
X249609113Y-142969879D01*
X234713495Y-141336880D02*
X234713495Y-140336880D01*
X235284923Y-141336880D02*
X234856352Y-140765452D01*
X235284923Y-140336880D02*
X234713495Y-140908309D01*
X197888266Y-24605180D02*
X197888266Y-25319466D01*
X197840647Y-25462323D01*
X197745409Y-25557561D01*
X197602552Y-25605180D01*
X197507314Y-25605180D01*
X198316838Y-24700419D02*
X198364457Y-24652800D01*
X198459695Y-24605180D01*
X198697790Y-24605180D01*
X198793028Y-24652800D01*
X198840647Y-24700419D01*
X198888266Y-24795657D01*
X198888266Y-24890895D01*
X198840647Y-25033752D01*
X198269219Y-25605180D01*
X198888266Y-25605180D01*
X239807761Y-42940619D02*
X239712523Y-42893000D01*
X239617285Y-42797761D01*
X239474428Y-42654904D01*
X239379190Y-42607285D01*
X239283952Y-42607285D01*
X239331571Y-42845380D02*
X239236333Y-42797761D01*
X239141095Y-42702523D01*
X239093476Y-42512047D01*
X239093476Y-42178714D01*
X239141095Y-41988238D01*
X239236333Y-41893000D01*
X239331571Y-41845380D01*
X239522047Y-41845380D01*
X239617285Y-41893000D01*
X239712523Y-41988238D01*
X239760142Y-42178714D01*
X239760142Y-42512047D01*
X239712523Y-42702523D01*
X239617285Y-42797761D01*
X239522047Y-42845380D01*
X239331571Y-42845380D01*
X240712523Y-42845380D02*
X240141095Y-42845380D01*
X240426809Y-42845380D02*
X240426809Y-41845380D01*
X240331571Y-41988238D01*
X240236333Y-42083476D01*
X240141095Y-42131095D01*
X239807761Y-35420619D02*
X239712523Y-35373000D01*
X239617285Y-35277761D01*
X239474428Y-35134904D01*
X239379190Y-35087285D01*
X239283952Y-35087285D01*
X239331571Y-35325380D02*
X239236333Y-35277761D01*
X239141095Y-35182523D01*
X239093476Y-34992047D01*
X239093476Y-34658714D01*
X239141095Y-34468238D01*
X239236333Y-34373000D01*
X239331571Y-34325380D01*
X239522047Y-34325380D01*
X239617285Y-34373000D01*
X239712523Y-34468238D01*
X239760142Y-34658714D01*
X239760142Y-34992047D01*
X239712523Y-35182523D01*
X239617285Y-35277761D01*
X239522047Y-35325380D01*
X239331571Y-35325380D01*
X240141095Y-34420619D02*
X240188714Y-34373000D01*
X240283952Y-34325380D01*
X240522047Y-34325380D01*
X240617285Y-34373000D01*
X240664904Y-34420619D01*
X240712523Y-34515857D01*
X240712523Y-34611095D01*
X240664904Y-34753952D01*
X240093476Y-35325380D01*
X240712523Y-35325380D01*
X237043933Y-47010580D02*
X236710600Y-46534390D01*
X236472504Y-47010580D02*
X236472504Y-46010580D01*
X236853457Y-46010580D01*
X236948695Y-46058200D01*
X236996314Y-46105819D01*
X237043933Y-46201057D01*
X237043933Y-46343914D01*
X236996314Y-46439152D01*
X236948695Y-46486771D01*
X236853457Y-46534390D01*
X236472504Y-46534390D01*
X237996314Y-47010580D02*
X237424885Y-47010580D01*
X237710600Y-47010580D02*
X237710600Y-46010580D01*
X237615361Y-46153438D01*
X237520123Y-46248676D01*
X237424885Y-46296295D01*
X245298933Y-85770980D02*
X244965600Y-85294790D01*
X244727504Y-85770980D02*
X244727504Y-84770980D01*
X245108457Y-84770980D01*
X245203695Y-84818600D01*
X245251314Y-84866219D01*
X245298933Y-84961457D01*
X245298933Y-85104314D01*
X245251314Y-85199552D01*
X245203695Y-85247171D01*
X245108457Y-85294790D01*
X244727504Y-85294790D01*
X245679885Y-84866219D02*
X245727504Y-84818600D01*
X245822742Y-84770980D01*
X246060838Y-84770980D01*
X246156076Y-84818600D01*
X246203695Y-84866219D01*
X246251314Y-84961457D01*
X246251314Y-85056695D01*
X246203695Y-85199552D01*
X245632266Y-85770980D01*
X246251314Y-85770980D01*
X245324333Y-79243180D02*
X244991000Y-78766990D01*
X244752904Y-79243180D02*
X244752904Y-78243180D01*
X245133857Y-78243180D01*
X245229095Y-78290800D01*
X245276714Y-78338419D01*
X245324333Y-78433657D01*
X245324333Y-78576514D01*
X245276714Y-78671752D01*
X245229095Y-78719371D01*
X245133857Y-78766990D01*
X244752904Y-78766990D01*
X245657666Y-78243180D02*
X246276714Y-78243180D01*
X245943380Y-78624133D01*
X246086238Y-78624133D01*
X246181476Y-78671752D01*
X246229095Y-78719371D01*
X246276714Y-78814609D01*
X246276714Y-79052704D01*
X246229095Y-79147942D01*
X246181476Y-79195561D01*
X246086238Y-79243180D01*
X245800523Y-79243180D01*
X245705285Y-79195561D01*
X245657666Y-79147942D01*
X220492580Y-32488166D02*
X220016390Y-32821500D01*
X220492580Y-33059595D02*
X219492580Y-33059595D01*
X219492580Y-32678642D01*
X219540200Y-32583404D01*
X219587819Y-32535785D01*
X219683057Y-32488166D01*
X219825914Y-32488166D01*
X219921152Y-32535785D01*
X219968771Y-32583404D01*
X220016390Y-32678642D01*
X220016390Y-33059595D01*
X219825914Y-31631023D02*
X220492580Y-31631023D01*
X219444961Y-31869119D02*
X220159247Y-32107214D01*
X220159247Y-31488166D01*
X225906879Y-43151667D02*
X225430689Y-43485001D01*
X225906879Y-43723096D02*
X224906879Y-43723096D01*
X224906879Y-43342143D01*
X224954499Y-43246905D01*
X225002118Y-43199286D01*
X225097356Y-43151667D01*
X225240213Y-43151667D01*
X225335451Y-43199286D01*
X225383070Y-43246905D01*
X225430689Y-43342143D01*
X225430689Y-43723096D01*
X224906879Y-42246905D02*
X224906879Y-42723096D01*
X225383070Y-42770715D01*
X225335451Y-42723096D01*
X225287832Y-42627858D01*
X225287832Y-42389762D01*
X225335451Y-42294524D01*
X225383070Y-42246905D01*
X225478308Y-42199286D01*
X225716403Y-42199286D01*
X225811641Y-42246905D01*
X225859260Y-42294524D01*
X225906879Y-42389762D01*
X225906879Y-42627858D01*
X225859260Y-42723096D01*
X225811641Y-42770715D01*
X230316580Y-28386066D02*
X229840390Y-28719400D01*
X230316580Y-28957495D02*
X229316580Y-28957495D01*
X229316580Y-28576542D01*
X229364200Y-28481304D01*
X229411819Y-28433685D01*
X229507057Y-28386066D01*
X229649914Y-28386066D01*
X229745152Y-28433685D01*
X229792771Y-28481304D01*
X229840390Y-28576542D01*
X229840390Y-28957495D01*
X229316580Y-27528923D02*
X229316580Y-27719400D01*
X229364200Y-27814638D01*
X229411819Y-27862257D01*
X229554676Y-27957495D01*
X229745152Y-28005114D01*
X230126104Y-28005114D01*
X230221342Y-27957495D01*
X230268961Y-27909876D01*
X230316580Y-27814638D01*
X230316580Y-27624161D01*
X230268961Y-27528923D01*
X230221342Y-27481304D01*
X230126104Y-27433685D01*
X229888009Y-27433685D01*
X229792771Y-27481304D01*
X229745152Y-27528923D01*
X229697533Y-27624161D01*
X229697533Y-27814638D01*
X229745152Y-27909876D01*
X229792771Y-27957495D01*
X229888009Y-28005114D01*
X234005380Y-40247866D02*
X233529190Y-40581200D01*
X234005380Y-40819295D02*
X233005380Y-40819295D01*
X233005380Y-40438342D01*
X233053000Y-40343104D01*
X233100619Y-40295485D01*
X233195857Y-40247866D01*
X233338714Y-40247866D01*
X233433952Y-40295485D01*
X233481571Y-40343104D01*
X233529190Y-40438342D01*
X233529190Y-40819295D01*
X233005380Y-39914533D02*
X233005380Y-39247866D01*
X234005380Y-39676438D01*
X246781580Y-28335266D02*
X246305390Y-28668600D01*
X246781580Y-28906695D02*
X245781580Y-28906695D01*
X245781580Y-28525742D01*
X245829200Y-28430504D01*
X245876819Y-28382885D01*
X245972057Y-28335266D01*
X246114914Y-28335266D01*
X246210152Y-28382885D01*
X246257771Y-28430504D01*
X246305390Y-28525742D01*
X246305390Y-28906695D01*
X246210152Y-27763838D02*
X246162533Y-27859076D01*
X246114914Y-27906695D01*
X246019676Y-27954314D01*
X245972057Y-27954314D01*
X245876819Y-27906695D01*
X245829200Y-27859076D01*
X245781580Y-27763838D01*
X245781580Y-27573361D01*
X245829200Y-27478123D01*
X245876819Y-27430504D01*
X245972057Y-27382885D01*
X246019676Y-27382885D01*
X246114914Y-27430504D01*
X246162533Y-27478123D01*
X246210152Y-27573361D01*
X246210152Y-27763838D01*
X246257771Y-27859076D01*
X246305390Y-27906695D01*
X246400628Y-27954314D01*
X246591104Y-27954314D01*
X246686342Y-27906695D01*
X246733961Y-27859076D01*
X246781580Y-27763838D01*
X246781580Y-27573361D01*
X246733961Y-27478123D01*
X246686342Y-27430504D01*
X246591104Y-27382885D01*
X246400628Y-27382885D01*
X246305390Y-27430504D01*
X246257771Y-27478123D01*
X246210152Y-27573361D01*
X250185180Y-28360666D02*
X249708990Y-28694000D01*
X250185180Y-28932095D02*
X249185180Y-28932095D01*
X249185180Y-28551142D01*
X249232800Y-28455904D01*
X249280419Y-28408285D01*
X249375657Y-28360666D01*
X249518514Y-28360666D01*
X249613752Y-28408285D01*
X249661371Y-28455904D01*
X249708990Y-28551142D01*
X249708990Y-28932095D01*
X250185180Y-27884476D02*
X250185180Y-27694000D01*
X250137561Y-27598761D01*
X250089942Y-27551142D01*
X249947085Y-27455904D01*
X249756609Y-27408285D01*
X249375657Y-27408285D01*
X249280419Y-27455904D01*
X249232800Y-27503523D01*
X249185180Y-27598761D01*
X249185180Y-27789238D01*
X249232800Y-27884476D01*
X249280419Y-27932095D01*
X249375657Y-27979714D01*
X249613752Y-27979714D01*
X249708990Y-27932095D01*
X249756609Y-27884476D01*
X249804228Y-27789238D01*
X249804228Y-27598761D01*
X249756609Y-27503523D01*
X249708990Y-27455904D01*
X249613752Y-27408285D01*
X217800180Y-55329057D02*
X217323990Y-55662390D01*
X217800180Y-55900485D02*
X216800180Y-55900485D01*
X216800180Y-55519533D01*
X216847800Y-55424295D01*
X216895419Y-55376676D01*
X216990657Y-55329057D01*
X217133514Y-55329057D01*
X217228752Y-55376676D01*
X217276371Y-55424295D01*
X217323990Y-55519533D01*
X217323990Y-55900485D01*
X217800180Y-54376676D02*
X217800180Y-54948104D01*
X217800180Y-54662390D02*
X216800180Y-54662390D01*
X216943038Y-54757628D01*
X217038276Y-54852866D01*
X217085895Y-54948104D01*
X216800180Y-53757628D02*
X216800180Y-53662390D01*
X216847800Y-53567152D01*
X216895419Y-53519533D01*
X216990657Y-53471914D01*
X217181133Y-53424295D01*
X217419228Y-53424295D01*
X217609704Y-53471914D01*
X217704942Y-53519533D01*
X217752561Y-53567152D01*
X217800180Y-53662390D01*
X217800180Y-53757628D01*
X217752561Y-53852866D01*
X217704942Y-53900485D01*
X217609704Y-53948104D01*
X217419228Y-53995723D01*
X217181133Y-53995723D01*
X216990657Y-53948104D01*
X216895419Y-53900485D01*
X216847800Y-53852866D01*
X216800180Y-53757628D01*
X196616580Y-74709257D02*
X196140390Y-75042590D01*
X196616580Y-75280685D02*
X195616580Y-75280685D01*
X195616580Y-74899733D01*
X195664200Y-74804495D01*
X195711819Y-74756876D01*
X195807057Y-74709257D01*
X195949914Y-74709257D01*
X196045152Y-74756876D01*
X196092771Y-74804495D01*
X196140390Y-74899733D01*
X196140390Y-75280685D01*
X196616580Y-73756876D02*
X196616580Y-74328304D01*
X196616580Y-74042590D02*
X195616580Y-74042590D01*
X195759438Y-74137828D01*
X195854676Y-74233066D01*
X195902295Y-74328304D01*
X195711819Y-73375923D02*
X195664200Y-73328304D01*
X195616580Y-73233066D01*
X195616580Y-72994971D01*
X195664200Y-72899733D01*
X195711819Y-72852114D01*
X195807057Y-72804495D01*
X195902295Y-72804495D01*
X196045152Y-72852114D01*
X196616580Y-73423542D01*
X196616580Y-72804495D01*
X178684180Y-82303857D02*
X178207990Y-82637190D01*
X178684180Y-82875285D02*
X177684180Y-82875285D01*
X177684180Y-82494333D01*
X177731800Y-82399095D01*
X177779419Y-82351476D01*
X177874657Y-82303857D01*
X178017514Y-82303857D01*
X178112752Y-82351476D01*
X178160371Y-82399095D01*
X178207990Y-82494333D01*
X178207990Y-82875285D01*
X178684180Y-81351476D02*
X178684180Y-81922904D01*
X178684180Y-81637190D02*
X177684180Y-81637190D01*
X177827038Y-81732428D01*
X177922276Y-81827666D01*
X177969895Y-81922904D01*
X177684180Y-81018142D02*
X177684180Y-80399095D01*
X178065133Y-80732428D01*
X178065133Y-80589571D01*
X178112752Y-80494333D01*
X178160371Y-80446714D01*
X178255609Y-80399095D01*
X178493704Y-80399095D01*
X178588942Y-80446714D01*
X178636561Y-80494333D01*
X178684180Y-80589571D01*
X178684180Y-80875285D01*
X178636561Y-80970523D01*
X178588942Y-81018142D01*
X177820580Y-59545457D02*
X177344390Y-59878790D01*
X177820580Y-60116885D02*
X176820580Y-60116885D01*
X176820580Y-59735933D01*
X176868200Y-59640695D01*
X176915819Y-59593076D01*
X177011057Y-59545457D01*
X177153914Y-59545457D01*
X177249152Y-59593076D01*
X177296771Y-59640695D01*
X177344390Y-59735933D01*
X177344390Y-60116885D01*
X177820580Y-58593076D02*
X177820580Y-59164504D01*
X177820580Y-58878790D02*
X176820580Y-58878790D01*
X176963438Y-58974028D01*
X177058676Y-59069266D01*
X177106295Y-59164504D01*
X177153914Y-57735933D02*
X177820580Y-57735933D01*
X176772961Y-57974028D02*
X177487247Y-58212123D01*
X177487247Y-57593076D01*
X155892580Y-105976657D02*
X155416390Y-106309990D01*
X155892580Y-106548085D02*
X154892580Y-106548085D01*
X154892580Y-106167133D01*
X154940200Y-106071895D01*
X154987819Y-106024276D01*
X155083057Y-105976657D01*
X155225914Y-105976657D01*
X155321152Y-106024276D01*
X155368771Y-106071895D01*
X155416390Y-106167133D01*
X155416390Y-106548085D01*
X155892580Y-105024276D02*
X155892580Y-105595704D01*
X155892580Y-105309990D02*
X154892580Y-105309990D01*
X155035438Y-105405228D01*
X155130676Y-105500466D01*
X155178295Y-105595704D01*
X154892580Y-104119514D02*
X154892580Y-104595704D01*
X155368771Y-104643323D01*
X155321152Y-104595704D01*
X155273533Y-104500466D01*
X155273533Y-104262371D01*
X155321152Y-104167133D01*
X155368771Y-104119514D01*
X155464009Y-104071895D01*
X155702104Y-104071895D01*
X155797342Y-104119514D01*
X155844961Y-104167133D01*
X155892580Y-104262371D01*
X155892580Y-104500466D01*
X155844961Y-104595704D01*
X155797342Y-104643323D01*
X184267995Y-108164380D02*
X184267995Y-108973904D01*
X184315614Y-109069142D01*
X184363233Y-109116761D01*
X184458471Y-109164380D01*
X184648947Y-109164380D01*
X184744185Y-109116761D01*
X184791804Y-109069142D01*
X184839423Y-108973904D01*
X184839423Y-108164380D01*
X185839423Y-109164380D02*
X185267995Y-109164380D01*
X185553709Y-109164380D02*
X185553709Y-108164380D01*
X185458471Y-108307238D01*
X185363233Y-108402476D01*
X185267995Y-108450095D01*
X136880695Y-65549980D02*
X136880695Y-66359504D01*
X136928314Y-66454742D01*
X136975933Y-66502361D01*
X137071171Y-66549980D01*
X137261647Y-66549980D01*
X137356885Y-66502361D01*
X137404504Y-66454742D01*
X137452123Y-66359504D01*
X137452123Y-65549980D01*
X137880695Y-65645219D02*
X137928314Y-65597600D01*
X138023552Y-65549980D01*
X138261647Y-65549980D01*
X138356885Y-65597600D01*
X138404504Y-65645219D01*
X138452123Y-65740457D01*
X138452123Y-65835695D01*
X138404504Y-65978552D01*
X137833076Y-66549980D01*
X138452123Y-66549980D01*
X57480295Y-99782380D02*
X57480295Y-100591904D01*
X57527914Y-100687142D01*
X57575533Y-100734761D01*
X57670771Y-100782380D01*
X57861247Y-100782380D01*
X57956485Y-100734761D01*
X58004104Y-100687142D01*
X58051723Y-100591904D01*
X58051723Y-99782380D01*
X58432676Y-99782380D02*
X59051723Y-99782380D01*
X58718390Y-100163333D01*
X58861247Y-100163333D01*
X58956485Y-100210952D01*
X59004104Y-100258571D01*
X59051723Y-100353809D01*
X59051723Y-100591904D01*
X59004104Y-100687142D01*
X58956485Y-100734761D01*
X58861247Y-100782380D01*
X58575533Y-100782380D01*
X58480295Y-100734761D01*
X58432676Y-100687142D01*
X207162495Y-57161180D02*
X207162495Y-57970704D01*
X207210114Y-58065942D01*
X207257733Y-58113561D01*
X207352971Y-58161180D01*
X207543447Y-58161180D01*
X207638685Y-58113561D01*
X207686304Y-58065942D01*
X207733923Y-57970704D01*
X207733923Y-57161180D01*
X208686304Y-57161180D02*
X208210114Y-57161180D01*
X208162495Y-57637371D01*
X208210114Y-57589752D01*
X208305352Y-57542133D01*
X208543447Y-57542133D01*
X208638685Y-57589752D01*
X208686304Y-57637371D01*
X208733923Y-57732609D01*
X208733923Y-57970704D01*
X208686304Y-58065942D01*
X208638685Y-58113561D01*
X208543447Y-58161180D01*
X208305352Y-58161180D01*
X208210114Y-58113561D01*
X208162495Y-58065942D01*
X225831495Y-57059580D02*
X225831495Y-57869104D01*
X225879114Y-57964342D01*
X225926733Y-58011961D01*
X226021971Y-58059580D01*
X226212447Y-58059580D01*
X226307685Y-58011961D01*
X226355304Y-57964342D01*
X226402923Y-57869104D01*
X226402923Y-57059580D01*
X227307685Y-57059580D02*
X227117209Y-57059580D01*
X227021971Y-57107200D01*
X226974352Y-57154819D01*
X226879114Y-57297676D01*
X226831495Y-57488152D01*
X226831495Y-57869104D01*
X226879114Y-57964342D01*
X226926733Y-58011961D01*
X227021971Y-58059580D01*
X227212447Y-58059580D01*
X227307685Y-58011961D01*
X227355304Y-57964342D01*
X227402923Y-57869104D01*
X227402923Y-57631009D01*
X227355304Y-57535771D01*
X227307685Y-57488152D01*
X227212447Y-57440533D01*
X227021971Y-57440533D01*
X226926733Y-57488152D01*
X226879114Y-57535771D01*
X226831495Y-57631009D01*
X188331995Y-81907580D02*
X188331995Y-82717104D01*
X188379614Y-82812342D01*
X188427233Y-82859961D01*
X188522471Y-82907580D01*
X188712947Y-82907580D01*
X188808185Y-82859961D01*
X188855804Y-82812342D01*
X188903423Y-82717104D01*
X188903423Y-81907580D01*
X189284376Y-81907580D02*
X189951042Y-81907580D01*
X189522471Y-82907580D01*
X167494895Y-108425180D02*
X167494895Y-109234704D01*
X167542514Y-109329942D01*
X167590133Y-109377561D01*
X167685371Y-109425180D01*
X167875847Y-109425180D01*
X167971085Y-109377561D01*
X168018704Y-109329942D01*
X168066323Y-109234704D01*
X168066323Y-108425180D01*
X168685371Y-108853752D02*
X168590133Y-108806133D01*
X168542514Y-108758514D01*
X168494895Y-108663276D01*
X168494895Y-108615657D01*
X168542514Y-108520419D01*
X168590133Y-108472800D01*
X168685371Y-108425180D01*
X168875847Y-108425180D01*
X168971085Y-108472800D01*
X169018704Y-108520419D01*
X169066323Y-108615657D01*
X169066323Y-108663276D01*
X169018704Y-108758514D01*
X168971085Y-108806133D01*
X168875847Y-108853752D01*
X168685371Y-108853752D01*
X168590133Y-108901371D01*
X168542514Y-108948990D01*
X168494895Y-109044228D01*
X168494895Y-109234704D01*
X168542514Y-109329942D01*
X168590133Y-109377561D01*
X168685371Y-109425180D01*
X168875847Y-109425180D01*
X168971085Y-109377561D01*
X169018704Y-109329942D01*
X169066323Y-109234704D01*
X169066323Y-109044228D01*
X169018704Y-108948990D01*
X168971085Y-108901371D01*
X168875847Y-108853752D01*
X99060095Y-109078780D02*
X99060095Y-109888304D01*
X99107714Y-109983542D01*
X99155333Y-110031161D01*
X99250571Y-110078780D01*
X99441047Y-110078780D01*
X99536285Y-110031161D01*
X99583904Y-109983542D01*
X99631523Y-109888304D01*
X99631523Y-109078780D01*
X100155333Y-110078780D02*
X100345809Y-110078780D01*
X100441047Y-110031161D01*
X100488666Y-109983542D01*
X100583904Y-109840685D01*
X100631523Y-109650209D01*
X100631523Y-109269257D01*
X100583904Y-109174019D01*
X100536285Y-109126400D01*
X100441047Y-109078780D01*
X100250571Y-109078780D01*
X100155333Y-109126400D01*
X100107714Y-109174019D01*
X100060095Y-109269257D01*
X100060095Y-109507352D01*
X100107714Y-109602590D01*
X100155333Y-109650209D01*
X100250571Y-109697828D01*
X100441047Y-109697828D01*
X100536285Y-109650209D01*
X100583904Y-109602590D01*
X100631523Y-109507352D01*
X99041104Y-80579980D02*
X99041104Y-81389504D01*
X99088723Y-81484742D01*
X99136342Y-81532361D01*
X99231580Y-81579980D01*
X99422057Y-81579980D01*
X99517295Y-81532361D01*
X99564914Y-81484742D01*
X99612533Y-81389504D01*
X99612533Y-80579980D01*
X100612533Y-81579980D02*
X100041104Y-81579980D01*
X100326819Y-81579980D02*
X100326819Y-80579980D01*
X100231580Y-80722838D01*
X100136342Y-80818076D01*
X100041104Y-80865695D01*
X101231580Y-80579980D02*
X101326819Y-80579980D01*
X101422057Y-80627600D01*
X101469676Y-80675219D01*
X101517295Y-80770457D01*
X101564914Y-80960933D01*
X101564914Y-81199028D01*
X101517295Y-81389504D01*
X101469676Y-81484742D01*
X101422057Y-81532361D01*
X101326819Y-81579980D01*
X101231580Y-81579980D01*
X101136342Y-81532361D01*
X101088723Y-81484742D01*
X101041104Y-81389504D01*
X100993485Y-81199028D01*
X100993485Y-80960933D01*
X101041104Y-80770457D01*
X101088723Y-80675219D01*
X101136342Y-80627600D01*
X101231580Y-80579980D01*
X99295104Y-52081180D02*
X99295104Y-52890704D01*
X99342723Y-52985942D01*
X99390342Y-53033561D01*
X99485580Y-53081180D01*
X99676057Y-53081180D01*
X99771295Y-53033561D01*
X99818914Y-52985942D01*
X99866533Y-52890704D01*
X99866533Y-52081180D01*
X100866533Y-53081180D02*
X100295104Y-53081180D01*
X100580819Y-53081180D02*
X100580819Y-52081180D01*
X100485580Y-52224038D01*
X100390342Y-52319276D01*
X100295104Y-52366895D01*
X101818914Y-53081180D02*
X101247485Y-53081180D01*
X101533200Y-53081180D02*
X101533200Y-52081180D01*
X101437961Y-52224038D01*
X101342723Y-52319276D01*
X101247485Y-52366895D01*
X167018704Y-81907580D02*
X167018704Y-82717104D01*
X167066323Y-82812342D01*
X167113942Y-82859961D01*
X167209180Y-82907580D01*
X167399657Y-82907580D01*
X167494895Y-82859961D01*
X167542514Y-82812342D01*
X167590133Y-82717104D01*
X167590133Y-81907580D01*
X168590133Y-82907580D02*
X168018704Y-82907580D01*
X168304419Y-82907580D02*
X168304419Y-81907580D01*
X168209180Y-82050438D01*
X168113942Y-82145676D01*
X168018704Y-82193295D01*
X168971085Y-82002819D02*
X169018704Y-81955200D01*
X169113942Y-81907580D01*
X169352038Y-81907580D01*
X169447276Y-81955200D01*
X169494895Y-82002819D01*
X169542514Y-82098057D01*
X169542514Y-82193295D01*
X169494895Y-82336152D01*
X168923466Y-82907580D01*
X169542514Y-82907580D01*
X205162304Y-108469180D02*
X205162304Y-109278704D01*
X205209923Y-109373942D01*
X205257542Y-109421561D01*
X205352780Y-109469180D01*
X205543257Y-109469180D01*
X205638495Y-109421561D01*
X205686114Y-109373942D01*
X205733733Y-109278704D01*
X205733733Y-108469180D01*
X206733733Y-109469180D02*
X206162304Y-109469180D01*
X206448019Y-109469180D02*
X206448019Y-108469180D01*
X206352780Y-108612038D01*
X206257542Y-108707276D01*
X206162304Y-108754895D01*
X207067066Y-108469180D02*
X207686114Y-108469180D01*
X207352780Y-108850133D01*
X207495638Y-108850133D01*
X207590876Y-108897752D01*
X207638495Y-108945371D01*
X207686114Y-109040609D01*
X207686114Y-109278704D01*
X207638495Y-109373942D01*
X207590876Y-109421561D01*
X207495638Y-109469180D01*
X207209923Y-109469180D01*
X207114685Y-109421561D01*
X207067066Y-109373942D01*
X208692904Y-81907580D02*
X208692904Y-82717104D01*
X208740523Y-82812342D01*
X208788142Y-82859961D01*
X208883380Y-82907580D01*
X209073857Y-82907580D01*
X209169095Y-82859961D01*
X209216714Y-82812342D01*
X209264333Y-82717104D01*
X209264333Y-81907580D01*
X210264333Y-82907580D02*
X209692904Y-82907580D01*
X209978619Y-82907580D02*
X209978619Y-81907580D01*
X209883380Y-82050438D01*
X209788142Y-82145676D01*
X209692904Y-82193295D01*
X211121476Y-82240914D02*
X211121476Y-82907580D01*
X210883380Y-81859961D02*
X210645285Y-82574247D01*
X211264333Y-82574247D01*
X76689104Y-46366180D02*
X76689104Y-47175704D01*
X76736723Y-47270942D01*
X76784342Y-47318561D01*
X76879580Y-47366180D01*
X77070057Y-47366180D01*
X77165295Y-47318561D01*
X77212914Y-47270942D01*
X77260533Y-47175704D01*
X77260533Y-46366180D01*
X78260533Y-47366180D02*
X77689104Y-47366180D01*
X77974819Y-47366180D02*
X77974819Y-46366180D01*
X77879580Y-46509038D01*
X77784342Y-46604276D01*
X77689104Y-46651895D01*
X79165295Y-46366180D02*
X78689104Y-46366180D01*
X78641485Y-46842371D01*
X78689104Y-46794752D01*
X78784342Y-46747133D01*
X79022438Y-46747133D01*
X79117676Y-46794752D01*
X79165295Y-46842371D01*
X79212914Y-46937609D01*
X79212914Y-47175704D01*
X79165295Y-47270942D01*
X79117676Y-47318561D01*
X79022438Y-47366180D01*
X78784342Y-47366180D01*
X78689104Y-47318561D01*
X78641485Y-47270942D01*
X121494704Y-55129180D02*
X121494704Y-55938704D01*
X121542323Y-56033942D01*
X121589942Y-56081561D01*
X121685180Y-56129180D01*
X121875657Y-56129180D01*
X121970895Y-56081561D01*
X122018514Y-56033942D01*
X122066133Y-55938704D01*
X122066133Y-55129180D01*
X123066133Y-56129180D02*
X122494704Y-56129180D01*
X122780419Y-56129180D02*
X122780419Y-55129180D01*
X122685180Y-55272038D01*
X122589942Y-55367276D01*
X122494704Y-55414895D01*
X123923276Y-55129180D02*
X123732800Y-55129180D01*
X123637561Y-55176800D01*
X123589942Y-55224419D01*
X123494704Y-55367276D01*
X123447085Y-55557752D01*
X123447085Y-55938704D01*
X123494704Y-56033942D01*
X123542323Y-56081561D01*
X123637561Y-56129180D01*
X123828038Y-56129180D01*
X123923276Y-56081561D01*
X123970895Y-56033942D01*
X124018514Y-55938704D01*
X124018514Y-55700609D01*
X123970895Y-55605371D01*
X123923276Y-55557752D01*
X123828038Y-55510133D01*
X123637561Y-55510133D01*
X123542323Y-55557752D01*
X123494704Y-55605371D01*
X123447085Y-55700609D01*
X246056304Y-56863180D02*
X246056304Y-57672704D01*
X246103923Y-57767942D01*
X246151542Y-57815561D01*
X246246780Y-57863180D01*
X246437257Y-57863180D01*
X246532495Y-57815561D01*
X246580114Y-57767942D01*
X246627733Y-57672704D01*
X246627733Y-56863180D01*
X247627733Y-57863180D02*
X247056304Y-57863180D01*
X247342019Y-57863180D02*
X247342019Y-56863180D01*
X247246780Y-57006038D01*
X247151542Y-57101276D01*
X247056304Y-57148895D01*
X247961066Y-56863180D02*
X248627733Y-56863180D01*
X248199161Y-57863180D01*
X143313304Y-55103780D02*
X143313304Y-55913304D01*
X143360923Y-56008542D01*
X143408542Y-56056161D01*
X143503780Y-56103780D01*
X143694257Y-56103780D01*
X143789495Y-56056161D01*
X143837114Y-56008542D01*
X143884733Y-55913304D01*
X143884733Y-55103780D01*
X144884733Y-56103780D02*
X144313304Y-56103780D01*
X144599019Y-56103780D02*
X144599019Y-55103780D01*
X144503780Y-55246638D01*
X144408542Y-55341876D01*
X144313304Y-55389495D01*
X145456161Y-55532352D02*
X145360923Y-55484733D01*
X145313304Y-55437114D01*
X145265685Y-55341876D01*
X145265685Y-55294257D01*
X145313304Y-55199019D01*
X145360923Y-55151400D01*
X145456161Y-55103780D01*
X145646638Y-55103780D01*
X145741876Y-55151400D01*
X145789495Y-55199019D01*
X145837114Y-55294257D01*
X145837114Y-55341876D01*
X145789495Y-55437114D01*
X145741876Y-55484733D01*
X145646638Y-55532352D01*
X145456161Y-55532352D01*
X145360923Y-55579971D01*
X145313304Y-55627590D01*
X145265685Y-55722828D01*
X145265685Y-55913304D01*
X145313304Y-56008542D01*
X145360923Y-56056161D01*
X145456161Y-56103780D01*
X145646638Y-56103780D01*
X145741876Y-56056161D01*
X145789495Y-56008542D01*
X145837114Y-55913304D01*
X145837114Y-55722828D01*
X145789495Y-55627590D01*
X145741876Y-55579971D01*
X145646638Y-55532352D01*
X163488104Y-54671980D02*
X163488104Y-55481504D01*
X163535723Y-55576742D01*
X163583342Y-55624361D01*
X163678580Y-55671980D01*
X163869057Y-55671980D01*
X163964295Y-55624361D01*
X164011914Y-55576742D01*
X164059533Y-55481504D01*
X164059533Y-54671980D01*
X165059533Y-55671980D02*
X164488104Y-55671980D01*
X164773819Y-55671980D02*
X164773819Y-54671980D01*
X164678580Y-54814838D01*
X164583342Y-54910076D01*
X164488104Y-54957695D01*
X165535723Y-55671980D02*
X165726200Y-55671980D01*
X165821438Y-55624361D01*
X165869057Y-55576742D01*
X165964295Y-55433885D01*
X166011914Y-55243409D01*
X166011914Y-54862457D01*
X165964295Y-54767219D01*
X165916676Y-54719600D01*
X165821438Y-54671980D01*
X165630961Y-54671980D01*
X165535723Y-54719600D01*
X165488104Y-54767219D01*
X165440485Y-54862457D01*
X165440485Y-55100552D01*
X165488104Y-55195790D01*
X165535723Y-55243409D01*
X165630961Y-55291028D01*
X165821438Y-55291028D01*
X165916676Y-55243409D01*
X165964295Y-55195790D01*
X166011914Y-55100552D01*
X162363304Y-46747180D02*
X162363304Y-47556704D01*
X162410923Y-47651942D01*
X162458542Y-47699561D01*
X162553780Y-47747180D01*
X162744257Y-47747180D01*
X162839495Y-47699561D01*
X162887114Y-47651942D01*
X162934733Y-47556704D01*
X162934733Y-46747180D01*
X163363304Y-46842419D02*
X163410923Y-46794800D01*
X163506161Y-46747180D01*
X163744257Y-46747180D01*
X163839495Y-46794800D01*
X163887114Y-46842419D01*
X163934733Y-46937657D01*
X163934733Y-47032895D01*
X163887114Y-47175752D01*
X163315685Y-47747180D01*
X163934733Y-47747180D01*
X164553780Y-46747180D02*
X164649019Y-46747180D01*
X164744257Y-46794800D01*
X164791876Y-46842419D01*
X164839495Y-46937657D01*
X164887114Y-47128133D01*
X164887114Y-47366228D01*
X164839495Y-47556704D01*
X164791876Y-47651942D01*
X164744257Y-47699561D01*
X164649019Y-47747180D01*
X164553780Y-47747180D01*
X164458542Y-47699561D01*
X164410923Y-47651942D01*
X164363304Y-47556704D01*
X164315685Y-47366228D01*
X164315685Y-47128133D01*
X164363304Y-46937657D01*
X164410923Y-46842419D01*
X164458542Y-46794800D01*
X164553780Y-46747180D01*
X208692904Y-27246780D02*
X208692904Y-28056304D01*
X208740523Y-28151542D01*
X208788142Y-28199161D01*
X208883380Y-28246780D01*
X209073857Y-28246780D01*
X209169095Y-28199161D01*
X209216714Y-28151542D01*
X209264333Y-28056304D01*
X209264333Y-27246780D01*
X209692904Y-27342019D02*
X209740523Y-27294400D01*
X209835761Y-27246780D01*
X210073857Y-27246780D01*
X210169095Y-27294400D01*
X210216714Y-27342019D01*
X210264333Y-27437257D01*
X210264333Y-27532495D01*
X210216714Y-27675352D01*
X209645285Y-28246780D01*
X210264333Y-28246780D01*
X211216714Y-28246780D02*
X210645285Y-28246780D01*
X210931000Y-28246780D02*
X210931000Y-27246780D01*
X210835761Y-27389638D01*
X210740523Y-27484876D01*
X210645285Y-27532495D01*
X46031304Y-34248780D02*
X46031304Y-35058304D01*
X46078923Y-35153542D01*
X46126542Y-35201161D01*
X46221780Y-35248780D01*
X46412257Y-35248780D01*
X46507495Y-35201161D01*
X46555114Y-35153542D01*
X46602733Y-35058304D01*
X46602733Y-34248780D01*
X47031304Y-34344019D02*
X47078923Y-34296400D01*
X47174161Y-34248780D01*
X47412257Y-34248780D01*
X47507495Y-34296400D01*
X47555114Y-34344019D01*
X47602733Y-34439257D01*
X47602733Y-34534495D01*
X47555114Y-34677352D01*
X46983685Y-35248780D01*
X47602733Y-35248780D01*
X47983685Y-34344019D02*
X48031304Y-34296400D01*
X48126542Y-34248780D01*
X48364638Y-34248780D01*
X48459876Y-34296400D01*
X48507495Y-34344019D01*
X48555114Y-34439257D01*
X48555114Y-34534495D01*
X48507495Y-34677352D01*
X47936066Y-35248780D01*
X48555114Y-35248780D01*
X223882104Y-81847714D02*
X223882104Y-82657238D01*
X223929723Y-82752476D01*
X223977342Y-82800095D01*
X224072580Y-82847714D01*
X224263057Y-82847714D01*
X224358295Y-82800095D01*
X224405914Y-82752476D01*
X224453533Y-82657238D01*
X224453533Y-81847714D01*
X224882104Y-81942953D02*
X224929723Y-81895334D01*
X225024961Y-81847714D01*
X225263057Y-81847714D01*
X225358295Y-81895334D01*
X225405914Y-81942953D01*
X225453533Y-82038191D01*
X225453533Y-82133429D01*
X225405914Y-82276286D01*
X224834485Y-82847714D01*
X225453533Y-82847714D01*
X225786866Y-81847714D02*
X226405914Y-81847714D01*
X226072580Y-82228667D01*
X226215438Y-82228667D01*
X226310676Y-82276286D01*
X226358295Y-82323905D01*
X226405914Y-82419143D01*
X226405914Y-82657238D01*
X226358295Y-82752476D01*
X226310676Y-82800095D01*
X226215438Y-82847714D01*
X225929723Y-82847714D01*
X225834485Y-82800095D01*
X225786866Y-82752476D01*
X184147404Y-57084980D02*
X184147404Y-57894504D01*
X184195023Y-57989742D01*
X184242642Y-58037361D01*
X184337880Y-58084980D01*
X184528357Y-58084980D01*
X184623595Y-58037361D01*
X184671214Y-57989742D01*
X184718833Y-57894504D01*
X184718833Y-57084980D01*
X185147404Y-57180219D02*
X185195023Y-57132600D01*
X185290261Y-57084980D01*
X185528357Y-57084980D01*
X185623595Y-57132600D01*
X185671214Y-57180219D01*
X185718833Y-57275457D01*
X185718833Y-57370695D01*
X185671214Y-57513552D01*
X185099785Y-58084980D01*
X185718833Y-58084980D01*
X186575976Y-57418314D02*
X186575976Y-58084980D01*
X186337880Y-57037361D02*
X186099785Y-57751647D01*
X186718833Y-57751647D01*
X52147742Y-75553866D02*
X52195361Y-75601485D01*
X52242980Y-75744342D01*
X52242980Y-75839580D01*
X52195361Y-75982438D01*
X52100123Y-76077676D01*
X52004885Y-76125295D01*
X51814409Y-76172914D01*
X51671552Y-76172914D01*
X51481076Y-76125295D01*
X51385838Y-76077676D01*
X51290600Y-75982438D01*
X51242980Y-75839580D01*
X51242980Y-75744342D01*
X51290600Y-75601485D01*
X51338219Y-75553866D01*
X51338219Y-75172914D02*
X51290600Y-75125295D01*
X51242980Y-75030057D01*
X51242980Y-74791961D01*
X51290600Y-74696723D01*
X51338219Y-74649104D01*
X51433457Y-74601485D01*
X51528695Y-74601485D01*
X51671552Y-74649104D01*
X52242980Y-75220533D01*
X52242980Y-74601485D01*
X55494180Y-56192657D02*
X55017990Y-56525990D01*
X55494180Y-56764085D02*
X54494180Y-56764085D01*
X54494180Y-56383133D01*
X54541800Y-56287895D01*
X54589419Y-56240276D01*
X54684657Y-56192657D01*
X54827514Y-56192657D01*
X54922752Y-56240276D01*
X54970371Y-56287895D01*
X55017990Y-56383133D01*
X55017990Y-56764085D01*
X55494180Y-55240276D02*
X55494180Y-55811704D01*
X55494180Y-55525990D02*
X54494180Y-55525990D01*
X54637038Y-55621228D01*
X54732276Y-55716466D01*
X54779895Y-55811704D01*
X55494180Y-54287895D02*
X55494180Y-54859323D01*
X55494180Y-54573609D02*
X54494180Y-54573609D01*
X54637038Y-54668847D01*
X54732276Y-54764085D01*
X54779895Y-54859323D01*
X128271542Y-107075266D02*
X128319161Y-107122885D01*
X128366780Y-107265742D01*
X128366780Y-107360980D01*
X128319161Y-107503838D01*
X128223923Y-107599076D01*
X128128685Y-107646695D01*
X127938209Y-107694314D01*
X127795352Y-107694314D01*
X127604876Y-107646695D01*
X127509638Y-107599076D01*
X127414400Y-107503838D01*
X127366780Y-107360980D01*
X127366780Y-107265742D01*
X127414400Y-107122885D01*
X127462019Y-107075266D01*
X127366780Y-106170504D02*
X127366780Y-106646695D01*
X127842971Y-106694314D01*
X127795352Y-106646695D01*
X127747733Y-106551457D01*
X127747733Y-106313361D01*
X127795352Y-106218123D01*
X127842971Y-106170504D01*
X127938209Y-106122885D01*
X128176304Y-106122885D01*
X128271542Y-106170504D01*
X128319161Y-106218123D01*
X128366780Y-106313361D01*
X128366780Y-106551457D01*
X128319161Y-106646695D01*
X128271542Y-106694314D01*
X235788295Y-108425180D02*
X235788295Y-109234704D01*
X235835914Y-109329942D01*
X235883533Y-109377561D01*
X235978771Y-109425180D01*
X236169247Y-109425180D01*
X236264485Y-109377561D01*
X236312104Y-109329942D01*
X236359723Y-109234704D01*
X236359723Y-108425180D01*
X237264485Y-108758514D02*
X237264485Y-109425180D01*
X237026390Y-108377561D02*
X236788295Y-109091847D01*
X237407342Y-109091847D01*
X228848933Y-154034142D02*
X228801314Y-154081761D01*
X228658457Y-154129380D01*
X228563219Y-154129380D01*
X228420361Y-154081761D01*
X228325123Y-153986523D01*
X228277504Y-153891285D01*
X228229885Y-153700809D01*
X228229885Y-153557952D01*
X228277504Y-153367476D01*
X228325123Y-153272238D01*
X228420361Y-153177000D01*
X228563219Y-153129380D01*
X228658457Y-153129380D01*
X228801314Y-153177000D01*
X228848933Y-153224619D01*
X229801314Y-154129380D02*
X229229885Y-154129380D01*
X229515600Y-154129380D02*
X229515600Y-153129380D01*
X229420361Y-153272238D01*
X229325123Y-153367476D01*
X229229885Y-153415095D01*
M02*
