G04 #@! TF.GenerationSoftware,KiCad,Pcbnew,5.1.8-5.1.8*
G04 #@! TF.CreationDate,2022-09-04T11:36:30-07:00*
G04 #@! TF.ProjectId,80cvc,38306376-632e-46b6-9963-61645f706362,rev?*
G04 #@! TF.SameCoordinates,Original*
G04 #@! TF.FileFunction,Copper,L2,Bot*
G04 #@! TF.FilePolarity,Positive*
%FSLAX46Y46*%
G04 Gerber Fmt 4.6, Leading zero omitted, Abs format (unit mm)*
G04 Created by KiCad (PCBNEW 5.1.8-5.1.8) date 2022-09-04 11:36:30*
%MOMM*%
%LPD*%
G01*
G04 APERTURE LIST*
G04 #@! TA.AperFunction,ComponentPad*
%ADD10O,1.600000X1.600000*%
G04 #@! TD*
G04 #@! TA.AperFunction,ComponentPad*
%ADD11R,1.600000X1.600000*%
G04 #@! TD*
G04 #@! TA.AperFunction,ComponentPad*
%ADD12C,1.500000*%
G04 #@! TD*
G04 #@! TA.AperFunction,ComponentPad*
%ADD13R,1.650000X1.650000*%
G04 #@! TD*
G04 #@! TA.AperFunction,ComponentPad*
%ADD14C,1.650000*%
G04 #@! TD*
G04 #@! TA.AperFunction,ComponentPad*
%ADD15C,2.550000*%
G04 #@! TD*
G04 #@! TA.AperFunction,ComponentPad*
%ADD16C,3.900000*%
G04 #@! TD*
G04 #@! TA.AperFunction,ComponentPad*
%ADD17C,1.600000*%
G04 #@! TD*
G04 #@! TA.AperFunction,ComponentPad*
%ADD18R,1.700000X1.700000*%
G04 #@! TD*
G04 #@! TA.AperFunction,ComponentPad*
%ADD19O,1.700000X1.700000*%
G04 #@! TD*
G04 #@! TA.AperFunction,ConnectorPad*
%ADD20R,1.524000X7.620000*%
G04 #@! TD*
G04 #@! TA.AperFunction,ComponentPad*
%ADD21O,1.050000X1.500000*%
G04 #@! TD*
G04 #@! TA.AperFunction,ComponentPad*
%ADD22R,1.050000X1.500000*%
G04 #@! TD*
G04 #@! TA.AperFunction,ComponentPad*
%ADD23R,1.905000X2.000000*%
G04 #@! TD*
G04 #@! TA.AperFunction,ComponentPad*
%ADD24O,1.905000X2.000000*%
G04 #@! TD*
G04 #@! TA.AperFunction,ComponentPad*
%ADD25R,2.000000X2.000000*%
G04 #@! TD*
G04 #@! TA.AperFunction,ComponentPad*
%ADD26O,2.000000X2.000000*%
G04 #@! TD*
G04 #@! TA.AperFunction,ComponentPad*
%ADD27C,2.400000*%
G04 #@! TD*
G04 #@! TA.AperFunction,ComponentPad*
%ADD28O,2.400000X2.400000*%
G04 #@! TD*
G04 #@! TA.AperFunction,ViaPad*
%ADD29C,0.800000*%
G04 #@! TD*
G04 #@! TA.AperFunction,Conductor*
%ADD30C,1.000000*%
G04 #@! TD*
G04 #@! TA.AperFunction,Conductor*
%ADD31C,0.250000*%
G04 #@! TD*
G04 #@! TA.AperFunction,Conductor*
%ADD32C,0.150000*%
G04 #@! TD*
G04 #@! TA.AperFunction,Conductor*
%ADD33C,0.100000*%
G04 #@! TD*
G04 #@! TA.AperFunction,Conductor*
%ADD34C,0.254000*%
G04 #@! TD*
G04 APERTURE END LIST*
D10*
X227584000Y-30353000D03*
D11*
X227584000Y-40513000D03*
D12*
X247650000Y-96367600D03*
X247650000Y-91467600D03*
D13*
X76682600Y-66268600D03*
D14*
X78322600Y-70228600D03*
X76682600Y-74188600D03*
X72722600Y-75828600D03*
X68762600Y-74188600D03*
X67122600Y-70228600D03*
X68762600Y-66268600D03*
X72722600Y-64628600D03*
X75956600Y-71567600D03*
D15*
X257314700Y-44297600D03*
D16*
X257314700Y-39297600D03*
X261814700Y-44297600D03*
X257314700Y-49297600D03*
D10*
X74752200Y-34957400D03*
D17*
X74752200Y-27457400D03*
X255219200Y-82169000D03*
D10*
X247719200Y-82169000D03*
D17*
X76758800Y-94513400D03*
D10*
X69258800Y-94513400D03*
X96926400Y-60357400D03*
D17*
X96926400Y-52857400D03*
X96926400Y-81305400D03*
D10*
X96926400Y-88805400D03*
X96926400Y-117507400D03*
D17*
X96926400Y-110007400D03*
X117703600Y-27457400D03*
D10*
X117703600Y-34957400D03*
X139598400Y-34957400D03*
D17*
X139598400Y-27457400D03*
X161290000Y-27457400D03*
D10*
X161290000Y-34957400D03*
X161290000Y-62897400D03*
D17*
X161290000Y-55397400D03*
D10*
X161315400Y-90050000D03*
D17*
X161315400Y-82550000D03*
X161290000Y-109067600D03*
D10*
X161290000Y-116567600D03*
X181965600Y-65056400D03*
D17*
X181965600Y-57556400D03*
X182118000Y-82575400D03*
D10*
X182118000Y-90075400D03*
X182092600Y-116516800D03*
D17*
X182092600Y-109016800D03*
X202819000Y-27457400D03*
D10*
X202819000Y-34957400D03*
X202793600Y-65056400D03*
D17*
X202793600Y-57556400D03*
D10*
X202971400Y-90075400D03*
D17*
X202971400Y-82575400D03*
X202971400Y-109016800D03*
D10*
X202971400Y-116516800D03*
X221538800Y-65056400D03*
D17*
X221538800Y-57556400D03*
X221742000Y-82575400D03*
D10*
X221742000Y-90075400D03*
X229565200Y-116567600D03*
D17*
X229565200Y-109067600D03*
X240334800Y-57556400D03*
D10*
X240334800Y-65056400D03*
D17*
X41579800Y-59156600D03*
D10*
X41579800Y-66656600D03*
D17*
X199898000Y-66417200D03*
X199898000Y-61417200D03*
X241630200Y-49504600D03*
X246630200Y-49504600D03*
D11*
X122402600Y-113893600D03*
D17*
X122402600Y-111393600D03*
D11*
X234975400Y-142684500D03*
D10*
X245135400Y-142684500D03*
D18*
X198221600Y-27482800D03*
D19*
X198221600Y-30022800D03*
X198221600Y-32562800D03*
D20*
X197040000Y-160731200D03*
X199580000Y-160731200D03*
X202120000Y-160731200D03*
X204660000Y-160731200D03*
X207200000Y-160731200D03*
X209740000Y-160731200D03*
X212280000Y-160731200D03*
X214820000Y-160731200D03*
X217360000Y-160731200D03*
X219900000Y-160731200D03*
X222440000Y-160731200D03*
X224980000Y-160731200D03*
X227520000Y-160731200D03*
X230060000Y-160731200D03*
X232600000Y-160731200D03*
X174180000Y-160731200D03*
X181800000Y-160731200D03*
X171640000Y-160731200D03*
X176720000Y-160731200D03*
X179260000Y-160731200D03*
X191960000Y-160731200D03*
X189420000Y-160731200D03*
X184340000Y-160731200D03*
X194500000Y-160731200D03*
X186880000Y-160731200D03*
D21*
X239903000Y-38833000D03*
X238633000Y-38833000D03*
D22*
X241173000Y-38833000D03*
X241173000Y-31313000D03*
D21*
X238633000Y-31313000D03*
X239903000Y-31313000D03*
D17*
X239141000Y-46558200D03*
D10*
X249301000Y-46558200D03*
X247675400Y-85471000D03*
D17*
X257835400Y-85471000D03*
X257886200Y-78867000D03*
D10*
X247726200Y-78867000D03*
D17*
X217678000Y-37617400D03*
D10*
X217678000Y-27457400D03*
X224624900Y-30353000D03*
D17*
X224624900Y-40513000D03*
D10*
X230524600Y-40513000D03*
D17*
X230524600Y-30353000D03*
D10*
X233730800Y-37617400D03*
D17*
X233730800Y-27457400D03*
D10*
X246507000Y-40513000D03*
D17*
X246507000Y-30353000D03*
X249732800Y-40487600D03*
D10*
X249732800Y-30327600D03*
D17*
X218211400Y-57556400D03*
D10*
X218211400Y-67716400D03*
D17*
X196824600Y-61239400D03*
D10*
X196824600Y-71399400D03*
X178231800Y-94284800D03*
D17*
X178231800Y-84124800D03*
D10*
X178663600Y-71501000D03*
D17*
X178663600Y-61341000D03*
X157810200Y-110413800D03*
D10*
X157810200Y-100253800D03*
X192903900Y-111302800D03*
X185283900Y-126542800D03*
X192903900Y-113842800D03*
X185283900Y-124002800D03*
X192903900Y-116382800D03*
X185283900Y-121462800D03*
X192903900Y-118922800D03*
X185283900Y-118922800D03*
X192903900Y-121462800D03*
X185283900Y-116382800D03*
X192903900Y-124002800D03*
X185283900Y-113842800D03*
X192903900Y-126542800D03*
D11*
X185283900Y-111302800D03*
X130022600Y-68427600D03*
D10*
X145262600Y-116687600D03*
X130022600Y-70967600D03*
X145262600Y-114147600D03*
X130022600Y-73507600D03*
X145262600Y-111607600D03*
X130022600Y-76047600D03*
X145262600Y-109067600D03*
X130022600Y-78587600D03*
X145262600Y-106527600D03*
X130022600Y-81127600D03*
X145262600Y-103987600D03*
X130022600Y-83667600D03*
X145262600Y-101447600D03*
X130022600Y-86207600D03*
X145262600Y-98907600D03*
X130022600Y-88747600D03*
X145262600Y-96367600D03*
X130022600Y-91287600D03*
X145262600Y-93827600D03*
X130022600Y-93827600D03*
X145262600Y-91287600D03*
X130022600Y-96367600D03*
X145262600Y-88747600D03*
X130022600Y-98907600D03*
X145262600Y-86207600D03*
X130022600Y-101447600D03*
X145262600Y-83667600D03*
X130022600Y-103987600D03*
X145262600Y-81127600D03*
X130022600Y-106527600D03*
X145262600Y-78587600D03*
X130022600Y-109067600D03*
X145262600Y-76047600D03*
X130022600Y-111607600D03*
X145262600Y-73507600D03*
X130022600Y-114147600D03*
X145262600Y-70967600D03*
X130022600Y-116687600D03*
X145262600Y-68427600D03*
D11*
X61493400Y-98131000D03*
D10*
X76733400Y-126071000D03*
X61493400Y-100671000D03*
X76733400Y-123531000D03*
X61493400Y-103211000D03*
X76733400Y-120991000D03*
X61493400Y-105751000D03*
X76733400Y-118451000D03*
X61493400Y-108291000D03*
X76733400Y-115911000D03*
X61493400Y-110831000D03*
X76733400Y-113371000D03*
X61493400Y-113371000D03*
X76733400Y-110831000D03*
X61493400Y-115911000D03*
X76733400Y-108291000D03*
X61493400Y-118451000D03*
X76733400Y-105751000D03*
X61493400Y-120991000D03*
X76733400Y-103211000D03*
X61493400Y-123531000D03*
X76733400Y-100671000D03*
X61493400Y-126071000D03*
X76733400Y-98131000D03*
X213563200Y-60071000D03*
X205943200Y-75311000D03*
X213563200Y-62611000D03*
X205943200Y-72771000D03*
X213563200Y-65151000D03*
X205943200Y-70231000D03*
X213563200Y-67691000D03*
X205943200Y-67691000D03*
X213563200Y-70231000D03*
X205943200Y-65151000D03*
X213563200Y-72771000D03*
X205943200Y-62611000D03*
X213563200Y-75311000D03*
D11*
X205943200Y-60071000D03*
X224713800Y-59842400D03*
D10*
X232333800Y-75082400D03*
X224713800Y-62382400D03*
X232333800Y-72542400D03*
X224713800Y-64922400D03*
X232333800Y-70002400D03*
X224713800Y-67462400D03*
X232333800Y-67462400D03*
X224713800Y-70002400D03*
X232333800Y-64922400D03*
X224713800Y-72542400D03*
X232333800Y-62382400D03*
X224713800Y-75082400D03*
X232333800Y-59842400D03*
X192903900Y-84785200D03*
X185283900Y-102565200D03*
X192903900Y-87325200D03*
X185283900Y-100025200D03*
X192903900Y-89865200D03*
X185283900Y-97485200D03*
X192903900Y-92405200D03*
X185283900Y-94945200D03*
X192903900Y-94945200D03*
X185283900Y-92405200D03*
X192903900Y-97485200D03*
X185283900Y-89865200D03*
X192903900Y-100025200D03*
X185283900Y-87325200D03*
X192903900Y-102565200D03*
D11*
X185283900Y-84785200D03*
X164446800Y-111302800D03*
D10*
X172066800Y-129082800D03*
X164446800Y-113842800D03*
X172066800Y-126542800D03*
X164446800Y-116382800D03*
X172066800Y-124002800D03*
X164446800Y-118922800D03*
X172066800Y-121462800D03*
X164446800Y-121462800D03*
X172066800Y-118922800D03*
X164446800Y-124002800D03*
X172066800Y-116382800D03*
X164446800Y-126542800D03*
X172066800Y-113842800D03*
X164446800Y-129082800D03*
X172066800Y-111302800D03*
X107693400Y-111988600D03*
X100073400Y-129768600D03*
X107693400Y-114528600D03*
X100073400Y-127228600D03*
X107693400Y-117068600D03*
X100073400Y-124688600D03*
X107693400Y-119608600D03*
X100073400Y-122148600D03*
X107693400Y-122148600D03*
X100073400Y-119608600D03*
X107693400Y-124688600D03*
X100073400Y-117068600D03*
X107693400Y-127228600D03*
X100073400Y-114528600D03*
X107693400Y-129768600D03*
D11*
X100073400Y-111988600D03*
D10*
X107693400Y-83485532D03*
X100073400Y-101265532D03*
X107693400Y-86025532D03*
X100073400Y-98725532D03*
X107693400Y-88565532D03*
X100073400Y-96185532D03*
X107693400Y-91105532D03*
X100073400Y-93645532D03*
X107693400Y-93645532D03*
X100073400Y-91105532D03*
X107693400Y-96185532D03*
X100073400Y-88565532D03*
X107693400Y-98725532D03*
X100073400Y-86025532D03*
X107693400Y-101265532D03*
D11*
X100073400Y-83485532D03*
X100073400Y-54982466D03*
D10*
X107693400Y-72762466D03*
X100073400Y-57522466D03*
X107693400Y-70222466D03*
X100073400Y-60062466D03*
X107693400Y-67682466D03*
X100073400Y-62602466D03*
X107693400Y-65142466D03*
X100073400Y-65142466D03*
X107693400Y-62602466D03*
X100073400Y-67682466D03*
X107693400Y-60062466D03*
X100073400Y-70222466D03*
X107693400Y-57522466D03*
X100073400Y-72762466D03*
X107693400Y-54982466D03*
D11*
X164446800Y-84785200D03*
D10*
X172066800Y-100025200D03*
X164446800Y-87325200D03*
X172066800Y-97485200D03*
X164446800Y-89865200D03*
X172066800Y-94945200D03*
X164446800Y-92405200D03*
X172066800Y-92405200D03*
X164446800Y-94945200D03*
X172066800Y-89865200D03*
X164446800Y-97485200D03*
X172066800Y-87325200D03*
X164446800Y-100025200D03*
X172066800Y-84785200D03*
D11*
X206121000Y-111302800D03*
D10*
X213741000Y-129082800D03*
X206121000Y-113842800D03*
X213741000Y-126542800D03*
X206121000Y-116382800D03*
X213741000Y-124002800D03*
X206121000Y-118922800D03*
X213741000Y-121462800D03*
X206121000Y-121462800D03*
X213741000Y-118922800D03*
X206121000Y-124002800D03*
X213741000Y-116382800D03*
X206121000Y-126542800D03*
X213741000Y-113842800D03*
X206121000Y-129082800D03*
X213741000Y-111302800D03*
D11*
X206121000Y-84785200D03*
D10*
X213741000Y-100025200D03*
X206121000Y-87325200D03*
X213741000Y-97485200D03*
X206121000Y-89865200D03*
X213741000Y-94945200D03*
X206121000Y-92405200D03*
X213741000Y-92405200D03*
X206121000Y-94945200D03*
X213741000Y-89865200D03*
X206121000Y-97485200D03*
X213741000Y-87325200D03*
X206121000Y-100025200D03*
X213741000Y-84785200D03*
D11*
X79273400Y-44729400D03*
D10*
X107213400Y-29489400D03*
X81813400Y-44729400D03*
X104673400Y-29489400D03*
X84353400Y-44729400D03*
X102133400Y-29489400D03*
X86893400Y-44729400D03*
X99593400Y-29489400D03*
X89433400Y-44729400D03*
X97053400Y-29489400D03*
X91973400Y-44729400D03*
X94513400Y-29489400D03*
X94513400Y-44729400D03*
X91973400Y-29489400D03*
X97053400Y-44729400D03*
X89433400Y-29489400D03*
X99593400Y-44729400D03*
X86893400Y-29489400D03*
X102133400Y-44729400D03*
X84353400Y-29489400D03*
X104673400Y-44729400D03*
X81813400Y-29489400D03*
X107213400Y-44729400D03*
X79273400Y-29489400D03*
D11*
X122699600Y-29979400D03*
D10*
X130319600Y-52839400D03*
X122699600Y-32519400D03*
X130319600Y-50299400D03*
X122699600Y-35059400D03*
X130319600Y-47759400D03*
X122699600Y-37599400D03*
X130319600Y-45219400D03*
X122699600Y-40139400D03*
X130319600Y-42679400D03*
X122699600Y-42679400D03*
X130319600Y-40139400D03*
X122699600Y-45219400D03*
X130319600Y-37599400D03*
X122699600Y-47759400D03*
X130319600Y-35059400D03*
X122699600Y-50299400D03*
X130319600Y-32519400D03*
X122699600Y-52839400D03*
X130319600Y-29979400D03*
D11*
X243484400Y-59740800D03*
D10*
X251104400Y-74980800D03*
X243484400Y-62280800D03*
X251104400Y-72440800D03*
X243484400Y-64820800D03*
X251104400Y-69900800D03*
X243484400Y-67360800D03*
X251104400Y-67360800D03*
X243484400Y-69900800D03*
X251104400Y-64820800D03*
X243484400Y-72440800D03*
X251104400Y-62280800D03*
X243484400Y-74980800D03*
X251104400Y-59740800D03*
X152006000Y-29979400D03*
X144386000Y-52839400D03*
X152006000Y-32519400D03*
X144386000Y-50299400D03*
X152006000Y-35059400D03*
X144386000Y-47759400D03*
X152006000Y-37599400D03*
X144386000Y-45219400D03*
X152006000Y-40139400D03*
X144386000Y-42679400D03*
X152006000Y-42679400D03*
X144386000Y-40139400D03*
X152006000Y-45219400D03*
X144386000Y-37599400D03*
X152006000Y-47759400D03*
X144386000Y-35059400D03*
X152006000Y-50299400D03*
X144386000Y-32519400D03*
X152006000Y-52839400D03*
D11*
X144386000Y-29979400D03*
D10*
X172066800Y-57581800D03*
X164446800Y-75361800D03*
X172066800Y-60121800D03*
X164446800Y-72821800D03*
X172066800Y-62661800D03*
X164446800Y-70281800D03*
X172066800Y-65201800D03*
X164446800Y-67741800D03*
X172066800Y-67741800D03*
X164446800Y-65201800D03*
X172066800Y-70281800D03*
X164446800Y-62661800D03*
X172066800Y-72821800D03*
X164446800Y-60121800D03*
X172066800Y-75361800D03*
D11*
X164446800Y-57581800D03*
D10*
X164896800Y-29489400D03*
X192836800Y-44729400D03*
X167436800Y-29489400D03*
X190296800Y-44729400D03*
X169976800Y-29489400D03*
X187756800Y-44729400D03*
X172516800Y-29489400D03*
X185216800Y-44729400D03*
X175056800Y-29489400D03*
X182676800Y-44729400D03*
X177596800Y-29489400D03*
X180136800Y-44729400D03*
X180136800Y-29489400D03*
X177596800Y-44729400D03*
X182676800Y-29489400D03*
X175056800Y-44729400D03*
X185216800Y-29489400D03*
X172516800Y-44729400D03*
X187756800Y-29489400D03*
X169976800Y-44729400D03*
X190296800Y-29489400D03*
X167436800Y-44729400D03*
X192836800Y-29489400D03*
D11*
X164896800Y-44729400D03*
X206121000Y-30124400D03*
D10*
X213741000Y-47904400D03*
X206121000Y-32664400D03*
X213741000Y-45364400D03*
X206121000Y-35204400D03*
X213741000Y-42824400D03*
X206121000Y-37744400D03*
X213741000Y-40284400D03*
X206121000Y-40284400D03*
X213741000Y-37744400D03*
X206121000Y-42824400D03*
X213741000Y-35204400D03*
X206121000Y-45364400D03*
X213741000Y-32664400D03*
X206121000Y-47904400D03*
X213741000Y-30124400D03*
D23*
X44729400Y-55016400D03*
D24*
X47269400Y-55016400D03*
X49809400Y-55016400D03*
D10*
X232511600Y-84785200D03*
X224891600Y-100025200D03*
X232511600Y-87325200D03*
X224891600Y-97485200D03*
X232511600Y-89865200D03*
X224891600Y-94945200D03*
X232511600Y-92405200D03*
X224891600Y-92405200D03*
X232511600Y-94945200D03*
X224891600Y-89865200D03*
X232511600Y-97485200D03*
X224891600Y-87325200D03*
X232511600Y-100025200D03*
D11*
X224891600Y-84785200D03*
D10*
X192726100Y-60045600D03*
X185106100Y-75285600D03*
X192726100Y-62585600D03*
X185106100Y-72745600D03*
X192726100Y-65125600D03*
X185106100Y-70205600D03*
X192726100Y-67665600D03*
X185106100Y-67665600D03*
X192726100Y-70205600D03*
X185106100Y-65125600D03*
X192726100Y-72745600D03*
X185106100Y-62585600D03*
X192726100Y-75285600D03*
D11*
X185106100Y-60045600D03*
D25*
X52857400Y-57581800D03*
D26*
X52857400Y-72581800D03*
D27*
X58648600Y-57581800D03*
D28*
X58648600Y-37261800D03*
D17*
X126923800Y-116662200D03*
D10*
X126923800Y-109162200D03*
D11*
X232740200Y-111302800D03*
D10*
X240360200Y-139242800D03*
X232740200Y-113842800D03*
X240360200Y-136702800D03*
X232740200Y-116382800D03*
X240360200Y-134162800D03*
X232740200Y-118922800D03*
X240360200Y-131622800D03*
X232740200Y-121462800D03*
X240360200Y-129082800D03*
X232740200Y-124002800D03*
X240360200Y-126542800D03*
X232740200Y-126542800D03*
X240360200Y-124002800D03*
X232740200Y-129082800D03*
X240360200Y-121462800D03*
X232740200Y-131622800D03*
X240360200Y-118922800D03*
X232740200Y-134162800D03*
X240360200Y-116382800D03*
X232740200Y-136702800D03*
X240360200Y-113842800D03*
X232740200Y-139242800D03*
X240360200Y-111302800D03*
D17*
X232765600Y-151257000D03*
D10*
X225265600Y-151257000D03*
D29*
X253555500Y-51216560D03*
X260070600Y-51216560D03*
X260350000Y-40157400D03*
X264388600Y-40157400D03*
X229616000Y-131191000D03*
X202971400Y-129082800D03*
X221538800Y-77419200D03*
X181965600Y-77419200D03*
X202793600Y-77419200D03*
X105435400Y-101269800D03*
X105435400Y-72771000D03*
X85775800Y-113360200D03*
X85775800Y-63093600D03*
X155244800Y-66294000D03*
X155244800Y-57835800D03*
X85775800Y-87020400D03*
X228777800Y-154533600D03*
X229606987Y-153686387D03*
X202971400Y-102311200D03*
X219811600Y-131191000D03*
X182118000Y-102565200D03*
X182092600Y-129082800D03*
X155244800Y-90043000D03*
X209118200Y-150622000D03*
X212293200Y-154940000D03*
X232638600Y-149225000D03*
X236880400Y-149225000D03*
X235483400Y-149225000D03*
X234111800Y-149225000D03*
X180143800Y-34957400D03*
X175056800Y-34950400D03*
X74752200Y-41148000D03*
X117703600Y-41198800D03*
X65798700Y-26466800D03*
X70662800Y-29108400D03*
X60934600Y-29108400D03*
X47269400Y-52527200D03*
X54711600Y-52806600D03*
X62153800Y-52806600D03*
X69596000Y-51866800D03*
X51917600Y-47193200D03*
X70662800Y-40487600D03*
X242062000Y-148691600D03*
X244500400Y-146177000D03*
X244373400Y-151257000D03*
X255397000Y-151079200D03*
X255651000Y-143891000D03*
X248412000Y-143637000D03*
X242620800Y-87553800D03*
X242620800Y-92532200D03*
X242620800Y-97510600D03*
X242620800Y-102489000D03*
X251256800Y-98412300D03*
X255587500Y-98412300D03*
X264363200Y-98412300D03*
X254101600Y-88722200D03*
X260426200Y-88925400D03*
X264363200Y-90627200D03*
X251282200Y-90678000D03*
X247167400Y-106197400D03*
X247167400Y-113982500D03*
X247167400Y-129552700D03*
X247167400Y-137337800D03*
X264363200Y-137337800D03*
X264363200Y-129552700D03*
X264363200Y-113982500D03*
X264363200Y-106197400D03*
X247167400Y-121767600D03*
X264363200Y-121767600D03*
X255587500Y-113982500D03*
X255765300Y-129552700D03*
X259638800Y-76022200D03*
X264591800Y-74777600D03*
X255092200Y-74777600D03*
X253339600Y-35509200D03*
X264591800Y-35509200D03*
X258711700Y-35509200D03*
X253339600Y-40157400D03*
X253898400Y-54229000D03*
X264591800Y-51216560D03*
X255092200Y-59070240D03*
X255092200Y-66923920D03*
X264591800Y-66923920D03*
X264591800Y-59070240D03*
X153873200Y-147269200D03*
X148361400Y-147269200D03*
X135864600Y-147269200D03*
X124197528Y-147269200D03*
X114305640Y-147269200D03*
X104413752Y-147269200D03*
X114305640Y-144805400D03*
X124197528Y-144805400D03*
X104413752Y-144805400D03*
X94521864Y-147269200D03*
X94521864Y-144805400D03*
X84629976Y-147269200D03*
X84629976Y-144805400D03*
X74738088Y-147269200D03*
X56921400Y-136880600D03*
X64846200Y-147269200D03*
X48895000Y-147269200D03*
X43738800Y-136880600D03*
X45821600Y-59969400D03*
X56565800Y-59842400D03*
X45339000Y-66624200D03*
X57073800Y-66852800D03*
X56921400Y-74422000D03*
X43738800Y-74422000D03*
X43738800Y-105651300D03*
X43738800Y-90036650D03*
X43738800Y-121265950D03*
X56921400Y-121265950D03*
X56921400Y-105651300D03*
X56921400Y-90036650D03*
X148361400Y-144780000D03*
X138709400Y-144780000D03*
X74738088Y-144805400D03*
X64846200Y-144805400D03*
X72034400Y-57581800D03*
X232308400Y-153974800D03*
X82194400Y-143637000D03*
X208584800Y-105791000D03*
X244322600Y-107594400D03*
X225323400Y-153593800D03*
X211292811Y-152400000D03*
X135229600Y-144754600D03*
X201853800Y-142341600D03*
X230911400Y-144195800D03*
X216865200Y-60604400D03*
X81432400Y-142570200D03*
X110261400Y-142494000D03*
X207391000Y-141173200D03*
X197129400Y-152400000D03*
X82956400Y-142976600D03*
X109270800Y-143052800D03*
X109270800Y-123444000D03*
X208584800Y-142138400D03*
X199593200Y-152400000D03*
X201422000Y-152400000D03*
X203987400Y-152400000D03*
X235000800Y-110693200D03*
X225145600Y-124002800D03*
X206527400Y-152400000D03*
X226974400Y-126542800D03*
X209067400Y-152400000D03*
X172516800Y-134340600D03*
X226364800Y-142214600D03*
X212293200Y-152476200D03*
X228422200Y-129082800D03*
X214807800Y-152400000D03*
X234696000Y-134162800D03*
X236423200Y-106248200D03*
X216103200Y-107340400D03*
X217347800Y-152400000D03*
X235458000Y-131622800D03*
X72390000Y-137312400D03*
X119100600Y-137312400D03*
X110236000Y-59537600D03*
X188645800Y-134086600D03*
X180568600Y-149352000D03*
X142925800Y-137287000D03*
X149453600Y-123901200D03*
X82727800Y-77012800D03*
X153670000Y-121945400D03*
X153670000Y-118008400D03*
X151180800Y-93827600D03*
X141198600Y-93827600D03*
X75311000Y-139039600D03*
X116154200Y-138861800D03*
X192608200Y-135940800D03*
X189738000Y-111302800D03*
X189738000Y-89865200D03*
X186766200Y-149352000D03*
X73406000Y-137820400D03*
X118135400Y-137820400D03*
X190017400Y-134670800D03*
X182702200Y-149326600D03*
X149631400Y-88747600D03*
X150901400Y-123229210D03*
X139522200Y-88773000D03*
X150444200Y-91287600D03*
X152349200Y-122670410D03*
X74320400Y-138379200D03*
X117144800Y-138277600D03*
X109728000Y-66421000D03*
X191338200Y-135356600D03*
X189001400Y-113842800D03*
X189001400Y-87325200D03*
X184708800Y-149326600D03*
X79375000Y-141401800D03*
X112344200Y-141147800D03*
X197612000Y-137922000D03*
X191973200Y-152400000D03*
X158648400Y-118922800D03*
X154127200Y-103987600D03*
X157454600Y-119761000D03*
X153441400Y-101447600D03*
X78282800Y-140716000D03*
X113309400Y-140538200D03*
X110058200Y-94919800D03*
X196392800Y-137464800D03*
X190931800Y-151384000D03*
X76327000Y-139598400D03*
X115239800Y-139420600D03*
X110109000Y-87299800D03*
X193852800Y-136372600D03*
X188798200Y-149326600D03*
X82346800Y-75844400D03*
X155041600Y-121208800D03*
X151917400Y-96367600D03*
X141630400Y-96367600D03*
X155041600Y-117703600D03*
X80314800Y-141935200D03*
X111353600Y-141782800D03*
X109220000Y-115798600D03*
X205968600Y-139954000D03*
X194564000Y-152400000D03*
X221564200Y-127812800D03*
X152654000Y-98933000D03*
X156337000Y-120486010D03*
X141605000Y-98907600D03*
X77368400Y-140182600D03*
X114173000Y-139928600D03*
X195148200Y-136982200D03*
X189865000Y-150342600D03*
X178231800Y-81432400D03*
X233146600Y-81254600D03*
X116636800Y-31267400D03*
X148463000Y-33832800D03*
X207645000Y-51638200D03*
X175412400Y-50139600D03*
X237261400Y-55651400D03*
X215442800Y-55626000D03*
X219125800Y-106349800D03*
X183286400Y-106527600D03*
X183565800Y-131292600D03*
X192887600Y-130327400D03*
X176326800Y-104343200D03*
X176326800Y-100990400D03*
X133604000Y-119380000D03*
X132486400Y-120650000D03*
X131368800Y-121894600D03*
X158115000Y-46101000D03*
X157327600Y-47091600D03*
X135915400Y-72237600D03*
X136499600Y-111607600D03*
X156591000Y-48107600D03*
X136753600Y-74777600D03*
X136474200Y-114147600D03*
X237032800Y-104571800D03*
X237871000Y-139217400D03*
X213741000Y-104140000D03*
X201295000Y-103606600D03*
X200202800Y-53492400D03*
X138684000Y-60248800D03*
X182448200Y-112649000D03*
X238353600Y-119456200D03*
X205943200Y-55880000D03*
X103606600Y-83489800D03*
X214299800Y-56261000D03*
X209346800Y-98755200D03*
X208610200Y-70231000D03*
X229133400Y-88595200D03*
X175082200Y-98856800D03*
X211759800Y-122758200D03*
X95758000Y-127228600D03*
X85598000Y-58420000D03*
X83058000Y-53340000D03*
X95758000Y-120853200D03*
X80543400Y-48234600D03*
X89941400Y-98729800D03*
X91389200Y-92405200D03*
X92125800Y-91084400D03*
X89382600Y-100101400D03*
X92811600Y-74422000D03*
X93624400Y-62585600D03*
X92811600Y-63906400D03*
X93624400Y-73304400D03*
X208915000Y-50038000D03*
X176758600Y-49606200D03*
X174752000Y-86029800D03*
X175818800Y-74041000D03*
X168452800Y-74117200D03*
X146583400Y-59359800D03*
X154076400Y-59359800D03*
X153136600Y-94919800D03*
X195605400Y-114731800D03*
X210083400Y-97485200D03*
X204280406Y-63852884D03*
X236347000Y-76149200D03*
X164973000Y-32512000D03*
X172516800Y-42494200D03*
X169976800Y-36068000D03*
X169976800Y-37642800D03*
X168300400Y-36068000D03*
X167436800Y-33807400D03*
X188849000Y-38176200D03*
X186232800Y-36042600D03*
X181457600Y-32664400D03*
X185216800Y-33553400D03*
X187756800Y-37185600D03*
X190296800Y-39116000D03*
X192024000Y-40284400D03*
X216839800Y-98704400D03*
X233705400Y-154101800D03*
X155752800Y-144780000D03*
X189484000Y-78740000D03*
X235966000Y-78765400D03*
D30*
X229565200Y-136067800D02*
X229565200Y-116567600D01*
X232740200Y-139242800D02*
X229565200Y-136067800D01*
X206121000Y-118922800D02*
X202971400Y-118922800D01*
X202971400Y-118922800D02*
X202971400Y-129082800D01*
X202971400Y-116516800D02*
X202971400Y-118922800D01*
X206121000Y-113842800D02*
X204266800Y-113842800D01*
X202971400Y-115138200D02*
X202971400Y-116516800D01*
X204266800Y-113842800D02*
X202971400Y-115138200D01*
X206121000Y-30124400D02*
X204622400Y-30124400D01*
X204622400Y-30124400D02*
X202819000Y-31927800D01*
X202768200Y-32562800D02*
X202819000Y-32613600D01*
X198221600Y-32562800D02*
X202768200Y-32562800D01*
X202819000Y-32613600D02*
X202819000Y-34957400D01*
X202819000Y-31927800D02*
X202819000Y-32613600D01*
X204139800Y-47904400D02*
X206121000Y-47904400D01*
X202819000Y-46583600D02*
X204139800Y-47904400D01*
X206121000Y-42824400D02*
X202819000Y-42824400D01*
X202819000Y-42824400D02*
X202819000Y-46583600D01*
X202819000Y-34957400D02*
X202819000Y-42824400D01*
X155244800Y-110522400D02*
X161290000Y-116567600D01*
X161290000Y-116567600D02*
X161290000Y-127635000D01*
X162737800Y-129082800D02*
X164446800Y-129082800D01*
X161290000Y-127635000D02*
X162737800Y-129082800D01*
X221538800Y-65056400D02*
X221538800Y-77419200D01*
X161290000Y-62897400D02*
X161290000Y-73558400D01*
X163093400Y-75361800D02*
X164446800Y-75361800D01*
X161290000Y-73558400D02*
X163093400Y-75361800D01*
X181965600Y-65056400D02*
X181965600Y-77393800D01*
X202793600Y-65056400D02*
X202793600Y-77419200D01*
X96926400Y-60357400D02*
X96926400Y-71755000D01*
X97933866Y-72762466D02*
X100073400Y-72762466D01*
X96926400Y-71755000D02*
X97933866Y-72762466D01*
X96926400Y-88805400D02*
X96926400Y-100152200D01*
X98039732Y-101265532D02*
X100073400Y-101265532D01*
X96926400Y-100152200D02*
X98039732Y-101265532D01*
X96926400Y-117507400D02*
X96926400Y-128524000D01*
X98171000Y-129768600D02*
X100073400Y-129768600D01*
X96926400Y-128524000D02*
X98171000Y-129768600D01*
X119743000Y-52839400D02*
X122699600Y-52839400D01*
X117703600Y-50800000D02*
X119743000Y-52839400D01*
X117703600Y-44729400D02*
X117703600Y-50800000D01*
X117703600Y-34957400D02*
X117703600Y-41198800D01*
X107693400Y-57522466D02*
X108923734Y-57522466D01*
X108923734Y-57522466D02*
X109550200Y-56896000D01*
X109550200Y-44754800D02*
X109524800Y-44729400D01*
X109550200Y-56896000D02*
X109550200Y-44754800D01*
X109524800Y-44729400D02*
X117703600Y-44729400D01*
X107213400Y-44729400D02*
X109524800Y-44729400D01*
X107693400Y-86025532D02*
X107234532Y-86025532D01*
X106193399Y-84984399D02*
X106193399Y-82655601D01*
X107234532Y-86025532D02*
X106193399Y-84984399D01*
X106193399Y-82655601D02*
X105435400Y-81897602D01*
X105951934Y-57522466D02*
X107693400Y-57522466D01*
X105435400Y-58039000D02*
X105951934Y-57522466D01*
X103606600Y-129768600D02*
X100073400Y-129768600D01*
X105435400Y-127939800D02*
X103606600Y-129768600D01*
X107693400Y-86025532D02*
X105435400Y-88283532D01*
X107693400Y-114528600D02*
X105435400Y-114528600D01*
X105435400Y-114528600D02*
X105435400Y-127939800D01*
X105435400Y-101269800D02*
X105435400Y-114528600D01*
X105435400Y-88283532D02*
X105435400Y-101269800D01*
X105435400Y-72771000D02*
X105435400Y-58039000D01*
X105435400Y-81897602D02*
X105435400Y-72771000D01*
X74752200Y-34957400D02*
X74752200Y-41148000D01*
X74752200Y-49911000D02*
X85775800Y-60934600D01*
X74752200Y-34957400D02*
X92423600Y-34957400D01*
X94513400Y-32867600D02*
X94513400Y-29489400D01*
X92423600Y-34957400D02*
X94513400Y-32867600D01*
X85775800Y-63093600D02*
X85775800Y-86969600D01*
X85775800Y-60934600D02*
X85775800Y-63093600D01*
X139598400Y-34957400D02*
X139598400Y-51181000D01*
X141256800Y-52839400D02*
X144386000Y-52839400D01*
X139598400Y-51181000D02*
X141256800Y-52839400D01*
X85775800Y-86969600D02*
X85775800Y-113360200D01*
X227520000Y-160731200D02*
X227520000Y-156933400D01*
X229946200Y-149834600D02*
X229946200Y-153339800D01*
X234010200Y-148615400D02*
X231165400Y-148615400D01*
X234416600Y-149021800D02*
X234010200Y-148615400D01*
X234416600Y-149225000D02*
X234416600Y-149021800D01*
X231952800Y-149225000D02*
X232638600Y-149225000D01*
X230886000Y-150291800D02*
X231952800Y-149225000D01*
X230886000Y-153619200D02*
X230886000Y-150291800D01*
X227520000Y-156985200D02*
X230886000Y-153619200D01*
X231165400Y-148615400D02*
X229946200Y-149834600D01*
X227520000Y-160731200D02*
X227520000Y-156985200D01*
X227393500Y-155917900D02*
X228777800Y-154533600D01*
X227368100Y-155917900D02*
X227393500Y-155917900D01*
X229946200Y-153339800D02*
X229606987Y-153686387D01*
X229946200Y-149834600D02*
X229946200Y-149860000D01*
X202793600Y-77419200D02*
X201295000Y-78917800D01*
X201295000Y-78917800D02*
X201295000Y-85547200D01*
X202971400Y-87223600D02*
X202971400Y-90075400D01*
X201295000Y-85547200D02*
X202971400Y-87223600D01*
X202971400Y-102311200D02*
X202971400Y-103657400D01*
X202971400Y-103657400D02*
X200456800Y-106172000D01*
X200456800Y-106172000D02*
X200456800Y-115341400D01*
X201632200Y-116516800D02*
X202971400Y-116516800D01*
X200456800Y-115341400D02*
X201632200Y-116516800D01*
X224891600Y-100025200D02*
X221742000Y-100025200D01*
X221742000Y-90075400D02*
X221742000Y-100025200D01*
X206121000Y-100025200D02*
X202971400Y-100025200D01*
X202971400Y-100025200D02*
X202971400Y-102311200D01*
X202971400Y-90075400D02*
X202971400Y-100025200D01*
X219811600Y-116916200D02*
X219811600Y-131191000D01*
X221742000Y-114985800D02*
X219811600Y-116916200D01*
X221742000Y-100025200D02*
X221742000Y-114985800D01*
X185283900Y-102565200D02*
X182118000Y-102565200D01*
X185283900Y-92405200D02*
X182118000Y-92405200D01*
X182118000Y-92405200D02*
X182118000Y-102565200D01*
X182118000Y-90075400D02*
X182118000Y-92405200D01*
X182118000Y-102565200D02*
X182118000Y-104521000D01*
X182118000Y-104521000D02*
X178054000Y-108585000D01*
X178054000Y-112478200D02*
X182092600Y-116516800D01*
X178054000Y-108585000D02*
X178054000Y-112478200D01*
X182092600Y-116516800D02*
X182092600Y-129082800D01*
X155244800Y-63525400D02*
X155244800Y-66294000D01*
X159232600Y-52603400D02*
X155244800Y-56591200D01*
X159232600Y-43459400D02*
X159232600Y-52603400D01*
X155244800Y-56591200D02*
X155244800Y-63525400D01*
X161290000Y-41402000D02*
X159232600Y-43459400D01*
X161290000Y-34957400D02*
X161290000Y-41402000D01*
X155244800Y-90043000D02*
X155244800Y-110522400D01*
X155244800Y-66294000D02*
X155244800Y-90043000D01*
X144386000Y-29979400D02*
X141750000Y-29979400D01*
X139598400Y-32131000D02*
X139598400Y-34957400D01*
X141750000Y-29979400D02*
X139598400Y-32131000D01*
X212280000Y-154953200D02*
X212293200Y-154940000D01*
X212280000Y-160731200D02*
X212280000Y-154953200D01*
X232638600Y-149225000D02*
X234111800Y-149225000D01*
X234111800Y-149225000D02*
X234416600Y-149225000D01*
X207967398Y-159963802D02*
X207967398Y-151772802D01*
X207200000Y-160731200D02*
X207967398Y-159963802D01*
X207967398Y-151772802D02*
X209118200Y-150622000D01*
X175056800Y-29489400D02*
X175056800Y-31953200D01*
X175056800Y-31953200D02*
X180136800Y-31953200D01*
X180136800Y-31953200D02*
X180136800Y-29489400D01*
X107169600Y-34957400D02*
X92423600Y-34957400D01*
X107213400Y-35001200D02*
X107169600Y-34957400D01*
X74752200Y-41148000D02*
X74752200Y-49911000D01*
X117703600Y-41198800D02*
X117703600Y-44729400D01*
X47269400Y-55016400D02*
X47269400Y-52527200D01*
X47269400Y-51841400D02*
X51917600Y-47193200D01*
X60934600Y-38176200D02*
X60934600Y-29108400D01*
X60934600Y-29032200D02*
X63500000Y-26466800D01*
X63500000Y-26466800D02*
X66040000Y-26466800D01*
X68122800Y-26466800D02*
X70662800Y-29006800D01*
X70662800Y-29006800D02*
X70662800Y-29286200D01*
X70662800Y-50800000D02*
X69596000Y-51866800D01*
X68656200Y-52806600D02*
X64566800Y-52806600D01*
X66040000Y-26466800D02*
X68122800Y-26466800D01*
X70662800Y-29286200D02*
X70662800Y-39547800D01*
X60934600Y-29108400D02*
X60934600Y-29032200D01*
X47269400Y-52527200D02*
X47269400Y-51841400D01*
X56464200Y-52806600D02*
X47879000Y-52806600D01*
X64566800Y-52806600D02*
X56464200Y-52806600D01*
X69596000Y-51866800D02*
X68656200Y-52806600D01*
X51917600Y-47193200D02*
X60934600Y-38176200D01*
X70662800Y-39547800D02*
X70662800Y-50800000D01*
X74752200Y-27457400D02*
X72034400Y-30175200D01*
X72034400Y-30175200D02*
X72034400Y-57581800D01*
X72034400Y-57581800D02*
X58648600Y-57581800D01*
X157784800Y-100279200D02*
X157810200Y-100253800D01*
X157784800Y-105562400D02*
X157784800Y-100279200D01*
X161290000Y-109067600D02*
X157784800Y-105562400D01*
X161290000Y-27457400D02*
X161290000Y-31724600D01*
X161290000Y-31724600D02*
X163830000Y-34264600D01*
X163830000Y-34264600D02*
X163830000Y-41300400D01*
X161290000Y-43840400D02*
X161290000Y-55397400D01*
X163830000Y-41300400D02*
X161290000Y-43840400D01*
X161315400Y-82550000D02*
X161315400Y-86893400D01*
X157810200Y-90398600D02*
X157810200Y-100253800D01*
X161315400Y-86893400D02*
X157810200Y-90398600D01*
X77865600Y-105751000D02*
X76733400Y-105751000D01*
X78790800Y-104825800D02*
X77865600Y-105751000D01*
X78790800Y-99034600D02*
X78790800Y-104825800D01*
X77887200Y-98131000D02*
X78790800Y-99034600D01*
X76733400Y-98131000D02*
X77887200Y-98131000D01*
X74247601Y-59795001D02*
X72034400Y-57581800D01*
X74247601Y-74679401D02*
X74247601Y-59795001D01*
X76758800Y-77190600D02*
X74247601Y-74679401D01*
X76758800Y-94513400D02*
X76758800Y-77190600D01*
X96926400Y-85928200D02*
X96926400Y-81305400D01*
X95148400Y-87706200D02*
X96926400Y-85928200D01*
X95148400Y-108229400D02*
X95148400Y-87706200D01*
X96926400Y-110007400D02*
X95148400Y-108229400D01*
X95097600Y-59055000D02*
X95097600Y-72491600D01*
X96926400Y-57226200D02*
X95097600Y-59055000D01*
X96926400Y-52857400D02*
X96926400Y-57226200D01*
X96926400Y-74320400D02*
X96926400Y-81305400D01*
X95097600Y-72491600D02*
X96926400Y-74320400D01*
X181965600Y-57556400D02*
X181965600Y-61899800D01*
X181965600Y-61899800D02*
X178714400Y-65151000D01*
X178714400Y-71450200D02*
X178663600Y-71501000D01*
X178714400Y-65151000D02*
X178714400Y-71450200D01*
X161315400Y-81026000D02*
X161315400Y-82550000D01*
X157657800Y-77368400D02*
X161315400Y-81026000D01*
X157657800Y-63169800D02*
X157657800Y-77368400D01*
X161290000Y-59537600D02*
X157657800Y-63169800D01*
X161290000Y-55397400D02*
X161290000Y-59537600D01*
D31*
X257886200Y-78867000D02*
X257886200Y-81026000D01*
X256743200Y-82169000D02*
X255219200Y-82169000D01*
X257886200Y-81026000D02*
X256743200Y-82169000D01*
X254990600Y-78867000D02*
X251104400Y-74980800D01*
X257886200Y-78867000D02*
X254990600Y-78867000D01*
X257835400Y-85471000D02*
X254228600Y-85471000D01*
X250926600Y-82169000D02*
X247719200Y-82169000D01*
X254228600Y-85471000D02*
X250926600Y-82169000D01*
X244754400Y-71170800D02*
X243484400Y-69900800D01*
X244754400Y-79204200D02*
X244754400Y-71170800D01*
X247719200Y-82169000D02*
X244754400Y-79204200D01*
X195478400Y-62585600D02*
X196824600Y-61239400D01*
X192726100Y-62585600D02*
X195478400Y-62585600D01*
X199720200Y-61239400D02*
X199898000Y-61417200D01*
X196824600Y-61239400D02*
X199720200Y-61239400D01*
X251104400Y-64820800D02*
X251104400Y-62280800D01*
X246630200Y-57806600D02*
X246630200Y-49504600D01*
X251104400Y-62280800D02*
X246630200Y-57806600D01*
X224624900Y-30353000D02*
X224624900Y-32054800D01*
X227584000Y-35013900D02*
X227584000Y-40513000D01*
X224624900Y-32054800D02*
X227584000Y-35013900D01*
X239903000Y-31313000D02*
X239903000Y-34493200D01*
X239903000Y-34493200D02*
X238633000Y-35763200D01*
X233730800Y-37617400D02*
X234543600Y-36804600D01*
X234543600Y-36804600D02*
X238582200Y-36804600D01*
X238633000Y-36855400D02*
X238633000Y-38833000D01*
X238582200Y-36804600D02*
X238633000Y-36855400D01*
X238633000Y-35763200D02*
X238633000Y-36855400D01*
X245110000Y-143637000D02*
X245110000Y-142671800D01*
X239776000Y-148971000D02*
X245110000Y-143637000D01*
X238709200Y-148971000D02*
X239776000Y-148971000D01*
X236194600Y-151485600D02*
X238709200Y-148971000D01*
X234797600Y-151485600D02*
X236194600Y-151485600D01*
X232308400Y-153974800D02*
X234797600Y-151485600D01*
X76733400Y-108291000D02*
X74930000Y-110094400D01*
X74930000Y-110094400D02*
X74930000Y-128244600D01*
X74930000Y-128244600D02*
X82473800Y-135788400D01*
X82473800Y-135788400D02*
X82473800Y-142138400D01*
X82194400Y-142417800D02*
X82194400Y-143637000D01*
X82473800Y-142138400D02*
X82194400Y-142417800D01*
X234950000Y-142671800D02*
X236270800Y-142671800D01*
X236270800Y-142671800D02*
X238785400Y-140157200D01*
X238785400Y-125577600D02*
X240360200Y-124002800D01*
X238785400Y-140157200D02*
X238785400Y-125577600D01*
X177596800Y-29489400D02*
X178943000Y-28143200D01*
X196342000Y-28143200D02*
X198221600Y-30022800D01*
X178943000Y-28143200D02*
X196342000Y-28143200D01*
X213563200Y-62611000D02*
X211505800Y-64668400D01*
X211505800Y-90170000D02*
X213741000Y-92405200D01*
X211505800Y-64668400D02*
X211505800Y-90170000D01*
X243027200Y-131622800D02*
X240360200Y-131622800D01*
X225323400Y-152958800D02*
X225323400Y-153593800D01*
X231419400Y-146862800D02*
X225323400Y-152958800D01*
X240588800Y-146862800D02*
X231419400Y-146862800D01*
X243027200Y-144424400D02*
X240588800Y-146862800D01*
X243027200Y-131622800D02*
X243027200Y-144424400D01*
X209740000Y-153952811D02*
X211292811Y-152400000D01*
X209740000Y-160731200D02*
X209740000Y-153952811D01*
X243027200Y-110134400D02*
X243027200Y-131622800D01*
X244322600Y-108839000D02*
X243027200Y-110134400D01*
X244322600Y-107594400D02*
X244322600Y-108839000D01*
X207899000Y-96723200D02*
X206121000Y-94945200D01*
X207899000Y-105105200D02*
X207899000Y-96723200D01*
X208584800Y-105791000D02*
X207899000Y-105105200D01*
X130022600Y-70967600D02*
X135229600Y-76174600D01*
X135229600Y-76174600D02*
X135229600Y-144754600D01*
X216865200Y-68605400D02*
X216865200Y-60604400D01*
X218262200Y-90322400D02*
X218262200Y-70002400D01*
X218262200Y-70002400D02*
X216865200Y-68605400D01*
X218262200Y-94447798D02*
X218262200Y-90297000D01*
X218262200Y-136042400D02*
X218262200Y-94447798D01*
X215646000Y-138658600D02*
X218262200Y-136042400D01*
X205003400Y-138658600D02*
X215646000Y-138658600D01*
X201853800Y-141808200D02*
X205003400Y-138658600D01*
X201853800Y-142341600D02*
X201853800Y-141808200D01*
X219900000Y-153352000D02*
X219900000Y-160731200D01*
X218109800Y-151561800D02*
X219900000Y-153352000D01*
X218109800Y-148336000D02*
X218109800Y-151561800D01*
X220345000Y-146100800D02*
X218109800Y-148336000D01*
X229006400Y-146100800D02*
X220345000Y-146100800D01*
X230911400Y-144195800D02*
X229006400Y-146100800D01*
X224980000Y-160731200D02*
X224980000Y-154749000D01*
X224980000Y-154749000D02*
X223215200Y-152984200D01*
X223215200Y-152984200D02*
X220929200Y-152984200D01*
X220929200Y-152984200D02*
X218973400Y-151028400D01*
X218973400Y-151028400D02*
X218973400Y-148564600D01*
X218973400Y-148564600D02*
X220548200Y-146989800D01*
X220548200Y-146989800D02*
X229514400Y-146989800D01*
X229514400Y-146989800D02*
X230505000Y-145999200D01*
X230505000Y-145999200D02*
X240334800Y-145999200D01*
X240334800Y-145999200D02*
X242163600Y-144170400D01*
X242163600Y-138506200D02*
X240360200Y-136702800D01*
X242163600Y-144170400D02*
X242163600Y-138506200D01*
X76733400Y-103211000D02*
X74447400Y-105497000D01*
X74447400Y-105497000D02*
X74447400Y-128422400D01*
X81432400Y-135407400D02*
X81432400Y-142570200D01*
X74447400Y-128422400D02*
X81432400Y-135407400D01*
X222808800Y-117856000D02*
X226822000Y-113842800D01*
X220243400Y-140817600D02*
X222808800Y-138252200D01*
X207746600Y-140817600D02*
X220243400Y-140817600D01*
X222808800Y-138252200D02*
X222808800Y-117856000D01*
X197129400Y-151434800D02*
X207746600Y-140817600D01*
X226822000Y-113842800D02*
X232740200Y-113842800D01*
X197129400Y-152400000D02*
X197129400Y-151434800D01*
X110007400Y-119382600D02*
X107693400Y-117068600D01*
X110007400Y-142240000D02*
X110007400Y-119382600D01*
X110261400Y-142494000D02*
X110007400Y-142240000D01*
X76733400Y-110831000D02*
X75412600Y-112151800D01*
X75412600Y-112151800D02*
X75412600Y-128041400D01*
X82956400Y-135585200D02*
X82956400Y-142976600D01*
X75412600Y-128041400D02*
X82956400Y-135585200D01*
X109270800Y-143002000D02*
X109270800Y-123444000D01*
X199618600Y-152374600D02*
X199644000Y-152400000D01*
X199618600Y-151104600D02*
X199618600Y-152374600D01*
X208584800Y-142138400D02*
X199618600Y-151104600D01*
X219710000Y-142138400D02*
X223418400Y-138430000D01*
X208584800Y-142138400D02*
X219710000Y-142138400D01*
X227074589Y-114376200D02*
X230733600Y-114376200D01*
X230733600Y-114376200D02*
X232740200Y-116382800D01*
X223418400Y-138430000D02*
X223418400Y-118032389D01*
X223418400Y-118032389D02*
X227074589Y-114376200D01*
X232740200Y-118922800D02*
X231546400Y-117729000D01*
X231546400Y-117729000D02*
X231546400Y-115849400D01*
X231546400Y-115849400D02*
X230530400Y-114833400D01*
X230530400Y-114833400D02*
X227253800Y-114833400D01*
X227253800Y-114833400D02*
X223901000Y-118186200D01*
X223901000Y-118186200D02*
X223901000Y-138607800D01*
X223901000Y-138607800D02*
X219837000Y-142671800D01*
X219837000Y-142671800D02*
X209600800Y-142671800D01*
X201422000Y-150850600D02*
X201422000Y-152400000D01*
X209600800Y-142671800D02*
X201422000Y-150850600D01*
X232740200Y-121462800D02*
X231267000Y-119989600D01*
X231267000Y-119989600D02*
X231267000Y-118160800D01*
X231267000Y-118160800D02*
X230911400Y-117805200D01*
X230911400Y-117805200D02*
X230911400Y-116001800D01*
X230911400Y-116001800D02*
X230225600Y-115316000D01*
X230225600Y-115316000D02*
X227457000Y-115316000D01*
X227457000Y-115316000D02*
X224409000Y-118364000D01*
X224409000Y-118364000D02*
X224409000Y-138785600D01*
X224409000Y-138785600D02*
X220065600Y-143129000D01*
X220065600Y-143129000D02*
X209829400Y-143129000D01*
X203987400Y-148971000D02*
X203987400Y-152400000D01*
X209829400Y-143129000D02*
X203987400Y-148971000D01*
X225145600Y-124002800D02*
X225145600Y-138709400D01*
X225145600Y-138709400D02*
X220268800Y-143586200D01*
X220268800Y-143586200D02*
X210032600Y-143586200D01*
X206527400Y-147091400D02*
X206527400Y-152400000D01*
X210032600Y-143586200D02*
X206527400Y-147091400D01*
X235000800Y-121742200D02*
X235000800Y-110693200D01*
X232740200Y-124002800D02*
X235000800Y-121742200D01*
X226974400Y-126542800D02*
X226974400Y-140182600D01*
X226974400Y-140182600D02*
X223037400Y-144119600D01*
X217347800Y-144119600D02*
X209067400Y-152400000D01*
X223037400Y-144119600D02*
X217347800Y-144119600D01*
X172066800Y-97485200D02*
X169951400Y-99600600D01*
X169951400Y-131775200D02*
X172516800Y-134340600D01*
X169951400Y-99600600D02*
X169951400Y-131775200D01*
X226364800Y-142214600D02*
X227101400Y-142214600D01*
X227101400Y-142214600D02*
X228701600Y-140614400D01*
X228701600Y-129362200D02*
X228422200Y-129082800D01*
X228701600Y-140614400D02*
X228701600Y-129362200D01*
X226364800Y-142214600D02*
X224009789Y-144569611D01*
X224009789Y-144569611D02*
X219386989Y-144569611D01*
X219386989Y-144569611D02*
X212293200Y-151663400D01*
X212293200Y-151663400D02*
X212293200Y-152476200D01*
X216103200Y-75311000D02*
X213563200Y-72771000D01*
X216103200Y-107340400D02*
X216103200Y-75311000D01*
X214807800Y-149809200D02*
X219597378Y-145019622D01*
X234696000Y-139319000D02*
X234696000Y-134162800D01*
X214807800Y-152400000D02*
X214807800Y-149809200D01*
X219597378Y-145019622D02*
X224956778Y-145019622D01*
X224956778Y-145019622D02*
X229387400Y-140589000D01*
X229387400Y-140589000D02*
X233426000Y-140589000D01*
X233426000Y-140589000D02*
X234696000Y-139319000D01*
X236423200Y-124231400D02*
X236423200Y-107181798D01*
X236423200Y-107181798D02*
X236423200Y-106248200D01*
X234696000Y-125958600D02*
X236423200Y-124231400D01*
X234696000Y-134162800D02*
X234696000Y-125958600D01*
X217347800Y-152400000D02*
X217347800Y-148234400D01*
X217347800Y-148234400D02*
X220040200Y-145542000D01*
X220040200Y-145542000D02*
X225171000Y-145542000D01*
X225171000Y-145542000D02*
X229616000Y-141097000D01*
X229616000Y-141097000D02*
X233705400Y-141097000D01*
X235458000Y-139344400D02*
X235458000Y-131622800D01*
X233705400Y-141097000D02*
X235458000Y-139344400D01*
X114630200Y-63906400D02*
X110236000Y-59512200D01*
X114630200Y-132842000D02*
X114630200Y-63906400D01*
X119100600Y-137312400D02*
X114630200Y-132842000D01*
X188645800Y-134086600D02*
X188645800Y-132765800D01*
X188645800Y-132765800D02*
X188290200Y-132410200D01*
X188290200Y-124469100D02*
X185283900Y-121462800D01*
X188290200Y-132410200D02*
X188290200Y-124469100D01*
X188645800Y-141274800D02*
X180568600Y-149352000D01*
X188645800Y-134086600D02*
X188645800Y-141274800D01*
X72390000Y-132537200D02*
X72390000Y-137312400D01*
X70078600Y-124496200D02*
X70078600Y-130225800D01*
X70078600Y-130225800D02*
X72390000Y-132537200D01*
X61493400Y-115911000D02*
X70078600Y-124496200D01*
X142925802Y-137286998D02*
X142925800Y-137287000D01*
X142925802Y-111404398D02*
X142925802Y-137286998D01*
X145262600Y-109067600D02*
X142925802Y-111404398D01*
X61493400Y-118451000D02*
X59918600Y-116876200D01*
X59918600Y-116876200D02*
X59918600Y-85623400D01*
X59918600Y-85623400D02*
X70662800Y-74879200D01*
X70662800Y-66688400D02*
X72722600Y-64628600D01*
X70662800Y-74879200D02*
X70662800Y-66688400D01*
X149453600Y-123901200D02*
X149453600Y-111556800D01*
X149453600Y-111556800D02*
X148844000Y-110947200D01*
X148844000Y-110947200D02*
X148844000Y-88112600D01*
X146939000Y-86207600D02*
X145262600Y-86207600D01*
X148844000Y-88112600D02*
X146939000Y-86207600D01*
X130319600Y-52839400D02*
X130319600Y-55338800D01*
X130319600Y-55338800D02*
X143459200Y-68478400D01*
X143459200Y-84404200D02*
X145262600Y-86207600D01*
X143459200Y-68478400D02*
X143459200Y-84404200D01*
X149453600Y-123901200D02*
X149453600Y-124485400D01*
X174180000Y-149211800D02*
X174180000Y-160731200D01*
X149453600Y-124485400D02*
X174180000Y-149211800D01*
X76733400Y-126071000D02*
X82372200Y-120432200D01*
X82372200Y-77368400D02*
X82727800Y-77012800D01*
X82372200Y-120432200D02*
X82372200Y-77368400D01*
X153670000Y-121945400D02*
X153670000Y-118008400D01*
X153670000Y-118008400D02*
X153670000Y-113639600D01*
X151180800Y-111150400D02*
X151180800Y-93827600D01*
X153670000Y-113639600D02*
X151180800Y-111150400D01*
X122699600Y-32519400D02*
X127508000Y-37327800D01*
X127508000Y-37327800D02*
X127508000Y-55219600D01*
X127508000Y-55219600D02*
X141503400Y-69215000D01*
X141503400Y-93522800D02*
X141198600Y-93827600D01*
X141503400Y-69215000D02*
X141503400Y-93522800D01*
X153670000Y-121945400D02*
X153670000Y-126568200D01*
X153670000Y-126568200D02*
X181787800Y-154686000D01*
X181787800Y-160719000D02*
X181800000Y-160731200D01*
X181787800Y-154686000D02*
X181787800Y-160719000D01*
X61493400Y-108291000D02*
X71551800Y-118349400D01*
X71551800Y-118349400D02*
X71551800Y-129641600D01*
X75311000Y-133400800D02*
X75311000Y-139039600D01*
X71551800Y-129641600D02*
X75311000Y-133400800D01*
X116154200Y-138861800D02*
X113055400Y-135763000D01*
X113055400Y-73044466D02*
X107693400Y-67682466D01*
X113055400Y-135763000D02*
X113055400Y-73044466D01*
X192608200Y-135940800D02*
X192608200Y-134670800D01*
X192608200Y-134670800D02*
X189738000Y-131800600D01*
X189738000Y-131800600D02*
X189738000Y-111302800D01*
X189738000Y-111302800D02*
X189738000Y-89865200D01*
X192608200Y-143510000D02*
X186766200Y-149352000D01*
X192608200Y-135940800D02*
X192608200Y-143510000D01*
X61493400Y-113371000D02*
X70561200Y-122438800D01*
X70561200Y-122438800D02*
X70561200Y-130048000D01*
X73406000Y-132892800D02*
X73406000Y-137820400D01*
X70561200Y-130048000D02*
X73406000Y-132892800D01*
X114071400Y-66440466D02*
X107693400Y-60062466D01*
X118122700Y-137820400D02*
X114071400Y-133769100D01*
X114071400Y-133769100D02*
X114071400Y-66440466D01*
X118135400Y-137820400D02*
X118122700Y-137820400D01*
X188772800Y-132207000D02*
X188772800Y-122411700D01*
X190017400Y-133451600D02*
X188772800Y-132207000D01*
X188772800Y-122411700D02*
X185283900Y-118922800D01*
X190017400Y-134670800D02*
X190017400Y-133451600D01*
X190017400Y-142011400D02*
X182702200Y-149326600D01*
X190017400Y-134670800D02*
X190017400Y-142011400D01*
X185283900Y-118922800D02*
X188188600Y-116018100D01*
X188188600Y-87689900D02*
X185283900Y-84785200D01*
X188188600Y-116018100D02*
X188188600Y-87689900D01*
X70129400Y-67635400D02*
X68762600Y-66268600D01*
X70129400Y-74701400D02*
X70129400Y-67635400D01*
X59385200Y-85445600D02*
X70129400Y-74701400D01*
X59385200Y-118882800D02*
X59385200Y-85445600D01*
X61493400Y-120991000D02*
X59385200Y-118882800D01*
X149631400Y-110972600D02*
X150901400Y-112242600D01*
X150901400Y-112242600D02*
X150901400Y-123229210D01*
X149631400Y-88747600D02*
X149631400Y-110972600D01*
X122699600Y-47759400D02*
X126111000Y-51170800D01*
X126111000Y-51170800D02*
X126111000Y-55880000D01*
X126111000Y-55880000D02*
X139979400Y-69748400D01*
X139979400Y-88315800D02*
X139522200Y-88773000D01*
X139979400Y-69748400D02*
X139979400Y-88315800D01*
X150901400Y-123229210D02*
X150901400Y-125222000D01*
X176720000Y-151040600D02*
X176720000Y-160731200D01*
X150901400Y-125222000D02*
X176720000Y-151040600D01*
X67122600Y-77047800D02*
X67122600Y-70228600D01*
X58826400Y-85344000D02*
X67122600Y-77047800D01*
X58826400Y-120864000D02*
X58826400Y-85344000D01*
X61493400Y-123531000D02*
X58826400Y-120864000D01*
X150444200Y-91287600D02*
X150444200Y-111099600D01*
X150444200Y-111099600D02*
X152349200Y-113004600D01*
X152349200Y-113004600D02*
X152349200Y-122670410D01*
X130319600Y-47759400D02*
X128955800Y-49123200D01*
X128955800Y-49123200D02*
X128955800Y-54686200D01*
X128955800Y-54686200D02*
X142951200Y-68681600D01*
X142951200Y-88976200D02*
X145262600Y-91287600D01*
X142951200Y-68681600D02*
X142951200Y-88976200D01*
X152349200Y-122670410D02*
X152349200Y-125933200D01*
X152349200Y-125933200D02*
X179273200Y-152857200D01*
X179273200Y-160718000D02*
X179260000Y-160731200D01*
X179273200Y-152857200D02*
X179273200Y-160718000D01*
X61493400Y-110831000D02*
X71043800Y-120381400D01*
X71043800Y-120381400D02*
X71043800Y-129844800D01*
X74320400Y-133121400D02*
X74320400Y-138379200D01*
X71043800Y-129844800D02*
X74320400Y-133121400D01*
X113563400Y-70256400D02*
X109728000Y-66421000D01*
X113563400Y-134696200D02*
X113563400Y-70256400D01*
X117144800Y-138277600D02*
X113563400Y-134696200D01*
X191338200Y-135356600D02*
X191338200Y-134086600D01*
X191338200Y-134086600D02*
X189255400Y-132003800D01*
X189255400Y-114096800D02*
X189001400Y-113842800D01*
X189255400Y-132003800D02*
X189255400Y-114096800D01*
X189001400Y-113842800D02*
X189001400Y-87325200D01*
X191338200Y-142697200D02*
X184708800Y-149326600D01*
X191338200Y-135356600D02*
X191338200Y-142697200D01*
X61493400Y-98131000D02*
X61504200Y-98131000D01*
X61504200Y-98131000D02*
X73482200Y-110109000D01*
X73482200Y-110109000D02*
X73482200Y-128828800D01*
X79375000Y-134721600D02*
X79375000Y-141401800D01*
X73482200Y-128828800D02*
X79375000Y-134721600D01*
X111023400Y-99515532D02*
X107693400Y-96185532D01*
X111023400Y-139827000D02*
X111023400Y-99515532D01*
X112344200Y-141147800D02*
X111023400Y-139827000D01*
X192903900Y-124002800D02*
X191719200Y-125187500D01*
X191719200Y-130987800D02*
X197612000Y-136880600D01*
X191719200Y-125187500D02*
X191719200Y-130987800D01*
X197612000Y-137922000D02*
X197612000Y-136880600D01*
X191973200Y-151434800D02*
X191973200Y-152400000D01*
X192532000Y-150876000D02*
X191973200Y-151434800D01*
X194030600Y-150876000D02*
X192532000Y-150876000D01*
X197612000Y-147294600D02*
X194030600Y-150876000D01*
X197612000Y-137922000D02*
X197612000Y-147294600D01*
X76733400Y-115911000D02*
X80518000Y-112126400D01*
X80518000Y-70104000D02*
X76682600Y-66268600D01*
X80518000Y-112126400D02*
X80518000Y-70104000D01*
X153822400Y-104292400D02*
X154127200Y-103987600D01*
X153822400Y-111023400D02*
X153822400Y-104292400D01*
X158648400Y-115849400D02*
X153822400Y-111023400D01*
X158648400Y-118922800D02*
X158648400Y-115849400D01*
X122699600Y-42679400D02*
X126593600Y-46573400D01*
X126593600Y-46573400D02*
X126593600Y-55676800D01*
X126593600Y-55676800D02*
X140487400Y-69570600D01*
X140487400Y-69570600D02*
X140487400Y-92583000D01*
X140487400Y-92583000D02*
X139954000Y-93116400D01*
X139954000Y-98679000D02*
X145262600Y-103987600D01*
X139954000Y-93116400D02*
X139954000Y-98679000D01*
X158648400Y-118922800D02*
X158648400Y-128752600D01*
X158648400Y-128752600D02*
X180263800Y-150368000D01*
X180263800Y-150368000D02*
X185775600Y-150368000D01*
X191960000Y-156552400D02*
X191960000Y-160731200D01*
X185775600Y-150368000D02*
X191960000Y-156552400D01*
X76733400Y-118451000D02*
X80975200Y-114209200D01*
X75522623Y-67428623D02*
X78322600Y-70228600D01*
X78301199Y-65118599D02*
X75597599Y-65118599D01*
X75522623Y-65193575D02*
X75522623Y-67428623D01*
X80975200Y-67792600D02*
X78301199Y-65118599D01*
X75597599Y-65118599D02*
X75522623Y-65193575D01*
X80975200Y-114209200D02*
X80975200Y-67792600D01*
X153219201Y-101669799D02*
X153441400Y-101447600D01*
X153219201Y-111131401D02*
X153219201Y-101669799D01*
X157454600Y-115366800D02*
X153219201Y-111131401D01*
X157454600Y-119761000D02*
X157454600Y-115366800D01*
X130319600Y-42679400D02*
X128473200Y-44525800D01*
X128473200Y-44525800D02*
X128473200Y-54864000D01*
X128473200Y-54864000D02*
X142443200Y-68834000D01*
X142443200Y-98628200D02*
X145262600Y-101447600D01*
X142443200Y-68834000D02*
X142443200Y-98628200D01*
X157454600Y-119761000D02*
X157454600Y-128295400D01*
X157454600Y-128295400D02*
X180035200Y-150876000D01*
X180035200Y-150876000D02*
X183845200Y-150876000D01*
X189420000Y-156450800D02*
X189420000Y-160731200D01*
X183845200Y-150876000D02*
X189420000Y-156450800D01*
X61493400Y-100671000D02*
X72999600Y-112177200D01*
X72999600Y-112177200D02*
X72999600Y-129032000D01*
X72999600Y-129032000D02*
X78892400Y-134924800D01*
X78892400Y-140106400D02*
X78282800Y-140716000D01*
X78892400Y-134924800D02*
X78892400Y-140106400D01*
X111531400Y-138760200D02*
X111531400Y-96418400D01*
X111531400Y-96418400D02*
X110032800Y-94919800D01*
X113309400Y-140538200D02*
X111531400Y-138760200D01*
X196392800Y-137464800D02*
X196392800Y-136347200D01*
X196392800Y-136347200D02*
X191211200Y-131165600D01*
X191211200Y-123155500D02*
X192903900Y-121462800D01*
X191211200Y-131165600D02*
X191211200Y-123155500D01*
X196392800Y-137464800D02*
X196392800Y-147396200D01*
X196392800Y-147396200D02*
X193675000Y-150114000D01*
X193675000Y-150114000D02*
X191770000Y-150114000D01*
X190931800Y-150952200D02*
X190931800Y-151384000D01*
X191770000Y-150114000D02*
X190931800Y-150952200D01*
X61493400Y-105751000D02*
X72034400Y-116292000D01*
X72034400Y-116292000D02*
X72034400Y-129438400D01*
X76327000Y-133731000D02*
X76327000Y-139598400D01*
X72034400Y-129438400D02*
X76327000Y-133731000D01*
X112572800Y-89763600D02*
X110109000Y-87299800D01*
X112572800Y-136753600D02*
X112572800Y-89763600D01*
X115239800Y-139420600D02*
X112572800Y-136753600D01*
X193852800Y-136372600D02*
X193852800Y-135204200D01*
X193852800Y-135204200D02*
X190246000Y-131597400D01*
X190246000Y-116500700D02*
X192903900Y-113842800D01*
X190246000Y-131597400D02*
X190246000Y-116500700D01*
X193852800Y-144272000D02*
X188798200Y-149326600D01*
X193852800Y-136372600D02*
X193852800Y-144272000D01*
X76733400Y-123531000D02*
X81813400Y-118451000D01*
X81813400Y-118451000D02*
X81813400Y-118440200D01*
X81813400Y-118440200D02*
X81915000Y-118338600D01*
X81915000Y-76276200D02*
X82346800Y-75844400D01*
X81915000Y-118338600D02*
X81915000Y-76276200D01*
X155041600Y-114350800D02*
X151917400Y-111226600D01*
X151917400Y-96933285D02*
X151917400Y-96367600D01*
X151917400Y-111226600D02*
X151917400Y-96933285D01*
X130319600Y-37599400D02*
X127990600Y-39928400D01*
X127990600Y-39928400D02*
X127990600Y-55041800D01*
X127990600Y-55041800D02*
X141986000Y-69037200D01*
X141986000Y-96012000D02*
X141630400Y-96367600D01*
X141986000Y-69037200D02*
X141986000Y-96012000D01*
X155041600Y-121208800D02*
X155041600Y-127254000D01*
X155041600Y-127254000D02*
X179654200Y-151866600D01*
X179654200Y-151866600D02*
X179730400Y-151866600D01*
X184340000Y-156476200D02*
X184340000Y-160731200D01*
X179730400Y-151866600D02*
X184340000Y-156476200D01*
X155041600Y-117703600D02*
X155041600Y-114350800D01*
X155041600Y-121208800D02*
X155041600Y-117703600D01*
X76733400Y-100671000D02*
X73964800Y-103439600D01*
X73964800Y-103439600D02*
X73964800Y-128651000D01*
X80314800Y-135001000D02*
X80314800Y-141935200D01*
X73964800Y-128651000D02*
X80314800Y-135001000D01*
X205968600Y-139954000D02*
X206248000Y-139954000D01*
X206248000Y-139954000D02*
X206654400Y-140360400D01*
X206654400Y-140360400D02*
X220040200Y-140360400D01*
X220040200Y-140360400D02*
X222351600Y-138049000D01*
X222351600Y-138049000D02*
X222351600Y-117475000D01*
X222351600Y-117475000D02*
X226517200Y-113309400D01*
X226517200Y-113309400D02*
X229387400Y-113309400D01*
X231394000Y-111302800D02*
X232740200Y-111302800D01*
X229387400Y-113309400D02*
X231394000Y-111302800D01*
X110515400Y-140944600D02*
X110515400Y-117094000D01*
X110515400Y-117094000D02*
X109220000Y-115798600D01*
X111353600Y-141782800D02*
X110515400Y-140944600D01*
X194614800Y-152400000D02*
X194564000Y-152400000D01*
X205968600Y-141046200D02*
X194614800Y-152400000D01*
X205968600Y-139954000D02*
X205968600Y-141046200D01*
X194500000Y-160731200D02*
X194500000Y-154850600D01*
X194500000Y-154850600D02*
X193649600Y-154000200D01*
X193649600Y-154000200D02*
X193649600Y-152196800D01*
X193649600Y-152196800D02*
X204647800Y-141198600D01*
X204647800Y-141198600D02*
X204647800Y-140004800D01*
X204647800Y-140004800D02*
X205486000Y-139166600D01*
X205486000Y-139166600D02*
X220497400Y-139166600D01*
X220497400Y-139166600D02*
X221818200Y-137845800D01*
X221818200Y-137845800D02*
X221818200Y-129565400D01*
X221818200Y-128066800D02*
X221818200Y-129565400D01*
X221564200Y-127812800D02*
X221818200Y-128066800D01*
X240360200Y-118922800D02*
X237769400Y-116332000D01*
X237757801Y-104306201D02*
X237757801Y-104223799D01*
X237769400Y-104317800D02*
X237757801Y-104306201D01*
X237769400Y-116332000D02*
X237769400Y-104317800D01*
X237380801Y-103846799D02*
X236684799Y-103846799D01*
X237757801Y-104223799D02*
X237380801Y-103846799D01*
X236684799Y-103846799D02*
X236010598Y-104521000D01*
X236010598Y-104521000D02*
X231775000Y-104521000D01*
X231775000Y-104521000D02*
X226390200Y-99136200D01*
X226390200Y-71678800D02*
X224713800Y-70002400D01*
X226390200Y-99136200D02*
X226390200Y-71678800D01*
X81457800Y-116266600D02*
X81457800Y-67589400D01*
X75361612Y-64668588D02*
X75072612Y-64957588D01*
X75072612Y-68824212D02*
X77507599Y-71259199D01*
X81457800Y-67589400D02*
X78536988Y-64668588D01*
X78536988Y-64668588D02*
X75361612Y-64668588D01*
X75072612Y-64957588D02*
X75072612Y-68824212D01*
X76733400Y-120991000D02*
X81457800Y-116266600D01*
X77507599Y-73363601D02*
X76682600Y-74188600D01*
X77507599Y-71259199D02*
X77507599Y-73363601D01*
X156337000Y-114960400D02*
X156337000Y-120486010D01*
X152654000Y-111277400D02*
X156337000Y-114960400D01*
X152654000Y-98933000D02*
X152654000Y-111277400D01*
X122699600Y-37599400D02*
X127050800Y-41950600D01*
X127050800Y-41950600D02*
X127050800Y-55448200D01*
X127050800Y-55448200D02*
X141020800Y-69418200D01*
X141020800Y-69418200D02*
X141020800Y-92735400D01*
X141020800Y-92735400D02*
X140436600Y-93319600D01*
X140436600Y-97739200D02*
X141605000Y-98907600D01*
X140436600Y-93319600D02*
X140436600Y-97739200D01*
X156337000Y-120486010D02*
X156337000Y-127863600D01*
X156337000Y-127863600D02*
X179832000Y-151358600D01*
X179832000Y-151358600D02*
X181813200Y-151358600D01*
X186880000Y-156425400D02*
X186880000Y-160731200D01*
X181813200Y-151358600D02*
X186880000Y-156425400D01*
X61493400Y-103211000D02*
X72517000Y-114234600D01*
X72517000Y-114234600D02*
X72517000Y-129235200D01*
X77368400Y-134086600D02*
X77368400Y-140182600D01*
X72517000Y-129235200D02*
X77368400Y-134086600D01*
X111988600Y-92860732D02*
X107693400Y-88565532D01*
X111988600Y-137744200D02*
X111988600Y-92860732D01*
X114173000Y-139928600D02*
X111988600Y-137744200D01*
X195148200Y-136982200D02*
X195148200Y-135813800D01*
X195148200Y-135813800D02*
X190728600Y-131394200D01*
X190728600Y-118558100D02*
X192903900Y-116382800D01*
X190728600Y-131394200D02*
X190728600Y-118558100D01*
X195148200Y-136982200D02*
X195148200Y-147243800D01*
X195148200Y-147243800D02*
X193192400Y-149199600D01*
X191008000Y-149199600D02*
X189865000Y-150342600D01*
X193192400Y-149199600D02*
X191008000Y-149199600D01*
X178231800Y-84124800D02*
X178231800Y-81432400D01*
X233146600Y-81254600D02*
X233146600Y-78359000D01*
X233146600Y-78359000D02*
X235635800Y-75869800D01*
X235635800Y-75869800D02*
X235635800Y-44729400D01*
X239903000Y-40462200D02*
X239903000Y-38833000D01*
X235635800Y-44729400D02*
X239903000Y-40462200D01*
X246532400Y-30327600D02*
X246507000Y-30353000D01*
X249732800Y-30327600D02*
X246532400Y-30327600D01*
X246507000Y-30353000D02*
X244094000Y-30353000D01*
X243134000Y-31313000D02*
X241173000Y-31313000D01*
X244094000Y-30353000D02*
X243134000Y-31313000D01*
X89433400Y-29489400D02*
X90779600Y-28143200D01*
X90779600Y-28143200D02*
X113461800Y-28143200D01*
X113461800Y-28143200D02*
X116636800Y-31318200D01*
X116636800Y-31318200D02*
X116636800Y-31267400D01*
X148463000Y-33832800D02*
X150114000Y-35483800D01*
X150114000Y-50947400D02*
X152006000Y-52839400D01*
X150114000Y-35483800D02*
X150114000Y-50947400D01*
X174294800Y-73133800D02*
X172066800Y-75361800D01*
X174294800Y-51257200D02*
X174294800Y-73133800D01*
X175412400Y-50139600D02*
X174294800Y-51257200D01*
X207645000Y-60909200D02*
X205943200Y-62611000D01*
X207645000Y-51638200D02*
X207645000Y-60909200D01*
X247675400Y-85471000D02*
X247675400Y-85521800D01*
X247675400Y-85471000D02*
X246202200Y-86944200D01*
X246202200Y-89992200D02*
X247650000Y-91440000D01*
X246202200Y-86944200D02*
X246202200Y-89992200D01*
X247675400Y-85471000D02*
X241427000Y-79222600D01*
X241427000Y-79222600D02*
X241427000Y-73126600D01*
X241427000Y-73126600D02*
X242112800Y-72440800D01*
X242112800Y-72440800D02*
X243484400Y-72440800D01*
X241427000Y-73126600D02*
X239445800Y-73126600D01*
X237261400Y-70942200D02*
X237261400Y-55651400D01*
X239445800Y-73126600D02*
X237261400Y-70942200D01*
X215442800Y-65811400D02*
X213563200Y-67691000D01*
X215442800Y-55626000D02*
X215442800Y-65811400D01*
X247726200Y-75819000D02*
X251104400Y-72440800D01*
X247726200Y-78867000D02*
X247726200Y-75819000D01*
X251104400Y-69900800D02*
X251104400Y-72440800D01*
X235127800Y-72288400D02*
X232333800Y-75082400D01*
X235127800Y-51028600D02*
X235127800Y-72288400D01*
X225894900Y-41795700D02*
X235127800Y-51028600D01*
X225894900Y-41783000D02*
X225894900Y-41795700D01*
X224624900Y-40513000D02*
X225894900Y-41783000D01*
X232333800Y-70002400D02*
X234645200Y-67691000D01*
X234645200Y-64693800D02*
X232333800Y-62382400D01*
X234645200Y-67691000D02*
X234645200Y-64693800D01*
X232333800Y-70002400D02*
X230632000Y-71704200D01*
X230632000Y-87985600D02*
X232511600Y-89865200D01*
X230632000Y-71704200D02*
X230632000Y-87985600D01*
X232511600Y-89865200D02*
X234188000Y-91541600D01*
X234188000Y-93268800D02*
X232511600Y-94945200D01*
X234188000Y-91541600D02*
X234188000Y-93268800D01*
X218211400Y-67716400D02*
X218211400Y-68884800D01*
X218211400Y-68884800D02*
X219125800Y-69799200D01*
X219125800Y-69799200D02*
X219125800Y-106349800D01*
X186690000Y-103124000D02*
X186690000Y-98891300D01*
X186690000Y-98891300D02*
X185283900Y-97485200D01*
X183286400Y-106527600D02*
X186690000Y-103124000D01*
X195630800Y-70205600D02*
X192726100Y-70205600D01*
X196824600Y-71399400D02*
X195630800Y-70205600D01*
X185283900Y-124002800D02*
X183565800Y-125720900D01*
X183565800Y-125720900D02*
X183565800Y-131292600D01*
X192903900Y-130311100D02*
X192887600Y-130327400D01*
X192903900Y-126542800D02*
X192903900Y-130311100D01*
X176326800Y-104343200D02*
X176326800Y-100990400D01*
X133604000Y-99949000D02*
X130022600Y-96367600D01*
X133604000Y-119380000D02*
X133604000Y-99949000D01*
X132486400Y-101371400D02*
X130022600Y-98907600D01*
X132486400Y-120650000D02*
X132486400Y-101371400D01*
X131368800Y-102793800D02*
X130022600Y-101447600D01*
X131368800Y-121894600D02*
X131368800Y-102793800D01*
X149758400Y-74091800D02*
X145262600Y-78587600D01*
X149758400Y-62611000D02*
X149758400Y-74091800D01*
X154076400Y-58293000D02*
X149758400Y-62611000D01*
X154076400Y-56565800D02*
X154076400Y-58293000D01*
X158089600Y-52552600D02*
X154076400Y-56565800D01*
X158115000Y-52552600D02*
X158089600Y-52552600D01*
X158115000Y-46101000D02*
X158115000Y-52552600D01*
X149275800Y-72034400D02*
X145262600Y-76047600D01*
X149275800Y-62433200D02*
X149275800Y-72034400D01*
X153593800Y-58115200D02*
X149275800Y-62433200D01*
X153593800Y-56362600D02*
X153593800Y-58115200D01*
X157327600Y-52628800D02*
X153593800Y-56362600D01*
X157327600Y-47091600D02*
X157327600Y-52628800D01*
X135915400Y-111023400D02*
X136499600Y-111607600D01*
X135915400Y-72237600D02*
X135915400Y-111023400D01*
X145262600Y-73507600D02*
X148793200Y-69977000D01*
X148793200Y-69977000D02*
X148793200Y-62230000D01*
X148793200Y-62230000D02*
X153111200Y-57912000D01*
X153111200Y-57912000D02*
X153111200Y-56159400D01*
X156591000Y-52679600D02*
X156591000Y-48107600D01*
X153111200Y-56159400D02*
X156591000Y-52679600D01*
X136753600Y-74777600D02*
X136753600Y-110236000D01*
X136753600Y-110236000D02*
X137515600Y-110998000D01*
X137515600Y-113106200D02*
X136474200Y-114147600D01*
X137515600Y-110998000D02*
X137515600Y-113106200D01*
X116974400Y-29979400D02*
X122699600Y-29979400D01*
X114528600Y-27533600D02*
X116974400Y-29979400D01*
X88849200Y-27533600D02*
X114528600Y-27533600D01*
X86893400Y-29489400D02*
X88849200Y-27533600D01*
X127947200Y-32519400D02*
X130319600Y-32519400D01*
X125407200Y-29979400D02*
X127947200Y-32519400D01*
X122699600Y-29979400D02*
X125407200Y-29979400D01*
X237871000Y-139217400D02*
X237159800Y-138506200D01*
X237159800Y-104698800D02*
X237032800Y-104571800D01*
X237159800Y-138506200D02*
X237159800Y-104698800D01*
X213741000Y-100025200D02*
X213741000Y-104140000D01*
X201295000Y-103606600D02*
X201295000Y-86995000D01*
X201295000Y-86995000D02*
X200329800Y-86029800D01*
X200329800Y-86029800D02*
X200329800Y-78511400D01*
X200329800Y-78511400D02*
X201701400Y-77139800D01*
X201701400Y-77139800D02*
X201701400Y-66014600D01*
X201701400Y-66014600D02*
X201447400Y-65760600D01*
X201447400Y-65760600D02*
X201447400Y-64287400D01*
X201447400Y-64287400D02*
X201853800Y-63881000D01*
X201853800Y-63881000D02*
X201853800Y-58674000D01*
X200202800Y-57023000D02*
X200202800Y-53492400D01*
X201853800Y-58674000D02*
X200202800Y-57023000D01*
X132638800Y-54203600D02*
X132638800Y-34838600D01*
X132638800Y-34838600D02*
X130319600Y-32519400D01*
X138684000Y-60248800D02*
X132638800Y-54203600D01*
X185283900Y-94945200D02*
X187198000Y-96859300D01*
X187198000Y-96859300D02*
X187198000Y-103759000D01*
X187198000Y-103759000D02*
X183692800Y-107264200D01*
X183692800Y-111404400D02*
X182448200Y-112649000D01*
X183692800Y-107264200D02*
X183692800Y-111404400D01*
X240360200Y-121462800D02*
X238353600Y-119456200D01*
X207975200Y-74803000D02*
X205943200Y-72771000D01*
X207975200Y-88011000D02*
X207975200Y-74803000D01*
X206121000Y-89865200D02*
X207975200Y-88011000D01*
X205943200Y-60071000D02*
X205943200Y-55880000D01*
X100073400Y-54982466D02*
X102268934Y-54982466D01*
X102268934Y-54982466D02*
X103606600Y-56320132D01*
X102209600Y-111988600D02*
X100073400Y-111988600D01*
X103606600Y-110591600D02*
X102209600Y-111988600D01*
X103606600Y-83489800D02*
X103606600Y-110591600D01*
X103606600Y-56320132D02*
X103606600Y-83489800D01*
X214960200Y-59207400D02*
X214960200Y-63754000D01*
X214960200Y-63754000D02*
X213563200Y-65151000D01*
X214299800Y-58547000D02*
X214960200Y-59207400D01*
X214299800Y-56261000D02*
X214299800Y-58547000D01*
X209346800Y-98755200D02*
X209346800Y-97840800D01*
X209346800Y-97840800D02*
X209118200Y-97612200D01*
X209118200Y-73406000D02*
X205943200Y-70231000D01*
X209118200Y-97612200D02*
X209118200Y-73406000D01*
X206121000Y-45364400D02*
X208127600Y-47371000D01*
X208127600Y-47371000D02*
X208127600Y-50520600D01*
X208127600Y-50520600D02*
X208610200Y-51003200D01*
X208610200Y-51003200D02*
X208610200Y-70231000D01*
X229984300Y-69811900D02*
X232333800Y-67462400D01*
X229984300Y-89877900D02*
X229984300Y-69811900D01*
X232511600Y-92405200D02*
X229984300Y-89877900D01*
X213563200Y-75311000D02*
X215417400Y-77165200D01*
X215417400Y-93268800D02*
X213741000Y-94945200D01*
X215417400Y-77165200D02*
X215417400Y-93268800D01*
X240360200Y-116382800D02*
X238328200Y-114350800D01*
X238328200Y-114350800D02*
X238328200Y-104089200D01*
X238328200Y-104089200D02*
X237591600Y-103352600D01*
X237591600Y-103352600D02*
X236499400Y-103352600D01*
X236499400Y-103352600D02*
X235813600Y-104038400D01*
X235813600Y-104038400D02*
X231978200Y-104038400D01*
X231978200Y-104038400D02*
X226872800Y-98933000D01*
X226872800Y-67081400D02*
X224713800Y-64922400D01*
X226872800Y-98933000D02*
X226872800Y-67081400D01*
X229133400Y-68122800D02*
X232333800Y-64922400D01*
X229133400Y-88595200D02*
X229133400Y-68122800D01*
X175082200Y-126067400D02*
X172066800Y-129082800D01*
X175082200Y-98856800D02*
X175082200Y-126067400D01*
X211759800Y-115824000D02*
X213741000Y-113842800D01*
X211759800Y-122758200D02*
X211759800Y-115824000D01*
X164446800Y-121462800D02*
X169316400Y-116593200D01*
X169316400Y-97695600D02*
X172066800Y-94945200D01*
X169316400Y-116593200D02*
X169316400Y-97695600D01*
X86868000Y-59690000D02*
X85598000Y-58420000D01*
X86868000Y-106248200D02*
X86868000Y-59690000D01*
X90144600Y-109524800D02*
X86868000Y-106248200D01*
X90144600Y-121615200D02*
X90144600Y-109524800D01*
X95758000Y-127228600D02*
X90144600Y-121615200D01*
X87426800Y-105994200D02*
X87426800Y-57708800D01*
X90678000Y-109245400D02*
X87426800Y-105994200D01*
X87426800Y-57708800D02*
X83058000Y-53340000D01*
X90678000Y-115773200D02*
X90678000Y-109245400D01*
X95758000Y-120853200D02*
X90678000Y-115773200D01*
X91211400Y-108839000D02*
X87909400Y-105537000D01*
X91211400Y-109855000D02*
X91211400Y-108839000D01*
X98450400Y-117094000D02*
X91211400Y-109855000D01*
X98450400Y-117985600D02*
X98450400Y-117094000D01*
X87909400Y-55600600D02*
X80543400Y-48234600D01*
X87909400Y-105537000D02*
X87909400Y-55600600D01*
X100073400Y-119608600D02*
X98450400Y-117985600D01*
X81813400Y-44729400D02*
X88950800Y-51866800D01*
X88950800Y-97739200D02*
X89941400Y-98729800D01*
X88950800Y-51866800D02*
X88950800Y-97739200D01*
X84353400Y-44729400D02*
X89535000Y-49911000D01*
X89535000Y-90551000D02*
X91389200Y-92405200D01*
X89535000Y-49911000D02*
X89535000Y-90551000D01*
X86893400Y-44729400D02*
X90195400Y-48031400D01*
X90195400Y-89154000D02*
X92125800Y-91084400D01*
X90195400Y-48031400D02*
X90195400Y-89154000D01*
X88417400Y-99136200D02*
X89382600Y-100101400D01*
X88417400Y-53873400D02*
X88417400Y-99136200D01*
X79273400Y-44729400D02*
X88417400Y-53873400D01*
X92837000Y-74422000D02*
X92811600Y-74422000D01*
X90830400Y-72440800D02*
X92811600Y-74422000D01*
X90830400Y-46126400D02*
X90830400Y-72440800D01*
X89433400Y-44729400D02*
X90830400Y-46126400D01*
X97053400Y-44729400D02*
X92786200Y-48996600D01*
X92786200Y-61747400D02*
X93624400Y-62585600D01*
X92786200Y-48996600D02*
X92786200Y-61747400D01*
X94513400Y-44729400D02*
X94513400Y-46278800D01*
X94513400Y-46278800D02*
X92125800Y-48666400D01*
X92125800Y-63220600D02*
X92811600Y-63906400D01*
X92125800Y-48666400D02*
X92125800Y-63220600D01*
X91440000Y-71120000D02*
X93624400Y-73304400D01*
X91440000Y-48056800D02*
X91440000Y-71120000D01*
X91973400Y-47523400D02*
X91440000Y-48056800D01*
X91973400Y-44729400D02*
X91973400Y-47523400D01*
X176758600Y-49606200D02*
X176758600Y-51282600D01*
X176758600Y-51282600D02*
X175031400Y-53009800D01*
X175031400Y-53009800D02*
X175031400Y-71678800D01*
X175031400Y-71678800D02*
X176631600Y-73279000D01*
X176631600Y-73279000D02*
X176631600Y-76352400D01*
X176631600Y-76352400D02*
X174396400Y-78587600D01*
X174396400Y-85674200D02*
X174752000Y-86029800D01*
X174396400Y-78587600D02*
X174396400Y-85674200D01*
X212191600Y-46761400D02*
X208915000Y-50038000D01*
X212191600Y-39293800D02*
X212191600Y-46761400D01*
X213741000Y-37744400D02*
X212191600Y-39293800D01*
X175818800Y-74726800D02*
X175818800Y-74041000D01*
X173786800Y-76758800D02*
X175818800Y-74726800D01*
X173786800Y-98305200D02*
X173786800Y-76758800D01*
X172066800Y-100025200D02*
X173786800Y-98305200D01*
X165571801Y-68866801D02*
X165571801Y-68874001D01*
X164446800Y-67741800D02*
X165571801Y-68866801D01*
X165571801Y-68874001D02*
X167513000Y-70815200D01*
X167513000Y-84259000D02*
X164446800Y-87325200D01*
X167513000Y-70815200D02*
X167513000Y-84259000D01*
X168452800Y-88399200D02*
X168452800Y-74117200D01*
X164446800Y-92405200D02*
X168452800Y-88399200D01*
X144386000Y-42679400D02*
X146583400Y-44876800D01*
X146583400Y-44876800D02*
X146583400Y-59359800D01*
X154076400Y-93980000D02*
X153136600Y-94919800D01*
X154076400Y-59359800D02*
X154076400Y-93980000D01*
X172066800Y-89865200D02*
X169875200Y-87673600D01*
X169875200Y-62313400D02*
X172066800Y-60121800D01*
X169875200Y-87673600D02*
X169875200Y-62313400D01*
X164446800Y-65201800D02*
X169316400Y-70071400D01*
X169316400Y-92615600D02*
X164446800Y-97485200D01*
X169316400Y-70071400D02*
X169316400Y-92615600D01*
X172066800Y-67741800D02*
X170357800Y-69450800D01*
X170357800Y-85616200D02*
X172066800Y-87325200D01*
X170357800Y-69450800D02*
X170357800Y-85616200D01*
X195605400Y-114731800D02*
X195605400Y-110236000D01*
X195605400Y-110236000D02*
X191363600Y-105994200D01*
X191363600Y-76648100D02*
X192726100Y-75285600D01*
X191363600Y-105994200D02*
X191363600Y-76648100D01*
X206121000Y-124002800D02*
X208305400Y-121818400D01*
X208305400Y-121818400D02*
X208305400Y-107899200D01*
X210083400Y-106121200D02*
X210083400Y-97485200D01*
X208305400Y-107899200D02*
X210083400Y-106121200D01*
X204241400Y-83955600D02*
X204241400Y-63891890D01*
X205071000Y-84785200D02*
X204241400Y-83955600D01*
X204241400Y-63891890D02*
X204280406Y-63852884D01*
X206121000Y-84785200D02*
X205071000Y-84785200D01*
X232511600Y-87325200D02*
X234492800Y-85344000D01*
X234492800Y-78003400D02*
X236347000Y-76149200D01*
X234492800Y-85344000D02*
X234492800Y-78003400D01*
X164973000Y-44653200D02*
X164896800Y-44729400D01*
X164973000Y-32512000D02*
X164973000Y-44653200D01*
X172516800Y-42494200D02*
X172516800Y-44729400D01*
X169976800Y-36068000D02*
X169976800Y-29489400D01*
X169976800Y-37642800D02*
X169976800Y-44729400D01*
X168300400Y-36068000D02*
X168300400Y-33096200D01*
X168300400Y-33096200D02*
X167411400Y-32207200D01*
X167411400Y-29514800D02*
X167436800Y-29489400D01*
X167411400Y-32207200D02*
X167411400Y-29514800D01*
X167436800Y-33807400D02*
X167436800Y-44729400D01*
X164446800Y-72821800D02*
X162839400Y-71214400D01*
X162839400Y-64269200D02*
X164446800Y-62661800D01*
X162839400Y-71214400D02*
X162839400Y-64269200D01*
X190296800Y-44729400D02*
X190296800Y-43002200D01*
X188849000Y-41554400D02*
X188849000Y-38176200D01*
X190296800Y-43002200D02*
X188849000Y-41554400D01*
X187756800Y-44729400D02*
X186232800Y-43205400D01*
X186232800Y-43205400D02*
X186232800Y-36042600D01*
X185216800Y-36423600D02*
X181457600Y-32664400D01*
X185216800Y-44729400D02*
X185216800Y-36423600D01*
X185216800Y-29489400D02*
X185216800Y-33553400D01*
X187756800Y-29489400D02*
X187756800Y-37185600D01*
X190296800Y-29489400D02*
X190296800Y-39116000D01*
X192836800Y-39471600D02*
X192024000Y-40284400D01*
X192836800Y-29489400D02*
X192836800Y-39471600D01*
X216839800Y-95224600D02*
X216839800Y-98704400D01*
X216077800Y-59715400D02*
X216077800Y-68935600D01*
X216281000Y-59512200D02*
X216077800Y-59715400D01*
X216839800Y-69697600D02*
X216839800Y-95224600D01*
X216077800Y-68935600D02*
X216839800Y-69697600D01*
X216281000Y-35204400D02*
X216281000Y-59512200D01*
X213741000Y-32664400D02*
X216281000Y-35204400D01*
D30*
X41579800Y-59156600D02*
X41579800Y-57531000D01*
X44094400Y-55016400D02*
X44729400Y-55016400D01*
X41579800Y-57531000D02*
X44094400Y-55016400D01*
X44729400Y-51181000D02*
X58648600Y-37261800D01*
X44729400Y-55016400D02*
X44729400Y-51181000D01*
X233705400Y-154635200D02*
X233705400Y-154076400D01*
X232600000Y-155740600D02*
X233705400Y-154635200D01*
X232600000Y-160731200D02*
X232600000Y-155740600D01*
X43764200Y-61341000D02*
X41579800Y-59156600D01*
X42113200Y-71856600D02*
X43764200Y-70205600D01*
X48133000Y-148590000D02*
X42113200Y-142570200D01*
X42113200Y-142570200D02*
X42113200Y-71856600D01*
X155143200Y-148590000D02*
X48133000Y-148590000D01*
X155752800Y-147980400D02*
X155143200Y-148590000D01*
X43764200Y-70205600D02*
X43764200Y-61341000D01*
X155752800Y-144780000D02*
X155752800Y-147980400D01*
D31*
X251790200Y-44297600D02*
X249732800Y-42240200D01*
X249732800Y-42240200D02*
X249732800Y-40487600D01*
X257314700Y-44297600D02*
X251790200Y-44297600D01*
X189484000Y-70907700D02*
X189484000Y-78740000D01*
X192726100Y-67665600D02*
X189484000Y-70907700D01*
X235966000Y-83388200D02*
X235966000Y-78765400D01*
X238988600Y-86410800D02*
X235966000Y-83388200D01*
X238988600Y-112471200D02*
X238988600Y-86410800D01*
X240360200Y-113842800D02*
X238988600Y-112471200D01*
D32*
X238400478Y-148564056D02*
X237255734Y-149708800D01*
X232156000Y-149708800D01*
X232141368Y-149710241D01*
X232127299Y-149714509D01*
X232114332Y-149721440D01*
X232102076Y-149731673D01*
X231365476Y-150493673D01*
X231356343Y-150505195D01*
X231349633Y-150518277D01*
X231345604Y-150532417D01*
X231344400Y-150545800D01*
X231344400Y-153816377D01*
X228397022Y-156716217D01*
X228372366Y-156703038D01*
X228328068Y-156689600D01*
X228282000Y-156685063D01*
X227583750Y-156686200D01*
X227525000Y-156744950D01*
X227525000Y-156871600D01*
X227515000Y-156871600D01*
X227515000Y-156744950D01*
X227456250Y-156686200D01*
X226868240Y-156685243D01*
X226896741Y-156343228D01*
X226896520Y-156328528D01*
X226893435Y-156314152D01*
X226887605Y-156300655D01*
X226880695Y-156290311D01*
X226008000Y-155193209D01*
X226008000Y-153344801D01*
X231752243Y-147423423D01*
X231780666Y-147395000D01*
X237255280Y-147395000D01*
X238400478Y-148564056D01*
G04 #@! TA.AperFunction,Conductor*
D33*
G36*
X238400478Y-148564056D02*
G01*
X237255734Y-149708800D01*
X232156000Y-149708800D01*
X232141368Y-149710241D01*
X232127299Y-149714509D01*
X232114332Y-149721440D01*
X232102076Y-149731673D01*
X231365476Y-150493673D01*
X231356343Y-150505195D01*
X231349633Y-150518277D01*
X231345604Y-150532417D01*
X231344400Y-150545800D01*
X231344400Y-153816377D01*
X228397022Y-156716217D01*
X228372366Y-156703038D01*
X228328068Y-156689600D01*
X228282000Y-156685063D01*
X227583750Y-156686200D01*
X227525000Y-156744950D01*
X227525000Y-156871600D01*
X227515000Y-156871600D01*
X227515000Y-156744950D01*
X227456250Y-156686200D01*
X226868240Y-156685243D01*
X226896741Y-156343228D01*
X226896520Y-156328528D01*
X226893435Y-156314152D01*
X226887605Y-156300655D01*
X226880695Y-156290311D01*
X226008000Y-155193209D01*
X226008000Y-153344801D01*
X231752243Y-147423423D01*
X231780666Y-147395000D01*
X237255280Y-147395000D01*
X238400478Y-148564056D01*
G37*
G04 #@! TD.AperFunction*
D34*
X179814989Y-31386376D02*
X179978650Y-31436022D01*
X180129472Y-31516638D01*
X180261670Y-31625130D01*
X180370162Y-31757328D01*
X180450778Y-31908150D01*
X180500424Y-32071811D01*
X180517800Y-32248234D01*
X180517800Y-33141211D01*
X180518470Y-33154243D01*
X180539529Y-33358388D01*
X180544850Y-33383903D01*
X180607141Y-33579449D01*
X180617559Y-33603341D01*
X180718458Y-33782053D01*
X180733533Y-33803314D01*
X180868790Y-33957665D01*
X180887889Y-33975402D01*
X181051807Y-34098890D01*
X181062619Y-34106196D01*
X183163578Y-35373716D01*
X183311813Y-35485389D01*
X183429801Y-35620033D01*
X183517817Y-35775927D01*
X183572155Y-35946507D01*
X183591200Y-36131126D01*
X183591200Y-39633766D01*
X183573824Y-39810189D01*
X183524178Y-39973850D01*
X183443562Y-40124672D01*
X183335070Y-40256870D01*
X183202872Y-40365362D01*
X183052050Y-40445978D01*
X182888389Y-40495624D01*
X182711966Y-40513000D01*
X172456234Y-40513000D01*
X172279811Y-40495624D01*
X172116150Y-40445978D01*
X171965328Y-40365362D01*
X171833130Y-40256870D01*
X171724638Y-40124672D01*
X171644022Y-39973850D01*
X171594376Y-39810189D01*
X171577000Y-39633766D01*
X171577000Y-36154941D01*
X171595957Y-35970744D01*
X171650048Y-35800518D01*
X171737676Y-35644880D01*
X171855169Y-35510350D01*
X172002825Y-35398617D01*
X174133276Y-34106375D01*
X174144046Y-34099062D01*
X174307322Y-33975509D01*
X174326343Y-33957777D01*
X174461031Y-33803558D01*
X174476041Y-33782324D01*
X174576495Y-33603905D01*
X174586866Y-33580059D01*
X174648874Y-33384919D01*
X174654171Y-33359460D01*
X174675133Y-33155782D01*
X174675800Y-33142780D01*
X174675800Y-32248234D01*
X174693176Y-32071811D01*
X174742822Y-31908150D01*
X174823438Y-31757328D01*
X174931930Y-31625130D01*
X175064128Y-31516638D01*
X175214950Y-31436022D01*
X175378611Y-31386376D01*
X175555034Y-31369000D01*
X179638566Y-31369000D01*
X179814989Y-31386376D01*
G04 #@! TA.AperFunction,Conductor*
D33*
G36*
X179814989Y-31386376D02*
G01*
X179978650Y-31436022D01*
X180129472Y-31516638D01*
X180261670Y-31625130D01*
X180370162Y-31757328D01*
X180450778Y-31908150D01*
X180500424Y-32071811D01*
X180517800Y-32248234D01*
X180517800Y-33141211D01*
X180518470Y-33154243D01*
X180539529Y-33358388D01*
X180544850Y-33383903D01*
X180607141Y-33579449D01*
X180617559Y-33603341D01*
X180718458Y-33782053D01*
X180733533Y-33803314D01*
X180868790Y-33957665D01*
X180887889Y-33975402D01*
X181051807Y-34098890D01*
X181062619Y-34106196D01*
X183163578Y-35373716D01*
X183311813Y-35485389D01*
X183429801Y-35620033D01*
X183517817Y-35775927D01*
X183572155Y-35946507D01*
X183591200Y-36131126D01*
X183591200Y-39633766D01*
X183573824Y-39810189D01*
X183524178Y-39973850D01*
X183443562Y-40124672D01*
X183335070Y-40256870D01*
X183202872Y-40365362D01*
X183052050Y-40445978D01*
X182888389Y-40495624D01*
X182711966Y-40513000D01*
X172456234Y-40513000D01*
X172279811Y-40495624D01*
X172116150Y-40445978D01*
X171965328Y-40365362D01*
X171833130Y-40256870D01*
X171724638Y-40124672D01*
X171644022Y-39973850D01*
X171594376Y-39810189D01*
X171577000Y-39633766D01*
X171577000Y-36154941D01*
X171595957Y-35970744D01*
X171650048Y-35800518D01*
X171737676Y-35644880D01*
X171855169Y-35510350D01*
X172002825Y-35398617D01*
X174133276Y-34106375D01*
X174144046Y-34099062D01*
X174307322Y-33975509D01*
X174326343Y-33957777D01*
X174461031Y-33803558D01*
X174476041Y-33782324D01*
X174576495Y-33603905D01*
X174586866Y-33580059D01*
X174648874Y-33384919D01*
X174654171Y-33359460D01*
X174675133Y-33155782D01*
X174675800Y-33142780D01*
X174675800Y-32248234D01*
X174693176Y-32071811D01*
X174742822Y-31908150D01*
X174823438Y-31757328D01*
X174931930Y-31625130D01*
X175064128Y-31516638D01*
X175214950Y-31436022D01*
X175378611Y-31386376D01*
X175555034Y-31369000D01*
X179638566Y-31369000D01*
X179814989Y-31386376D01*
G37*
G04 #@! TD.AperFunction*
D34*
X94164361Y-30881304D02*
X94201317Y-30861000D01*
X94825483Y-30861000D01*
X94862439Y-30881304D01*
X94929381Y-30861000D01*
X113866810Y-30861000D01*
X114038489Y-30877445D01*
X114198090Y-30924463D01*
X114345853Y-31000919D01*
X114481200Y-31107817D01*
X117132374Y-33647812D01*
X116966180Y-33726363D01*
X116740186Y-33893881D01*
X116551215Y-34102269D01*
X116406530Y-34343519D01*
X116311691Y-34608360D01*
X116432976Y-34830400D01*
X117576600Y-34830400D01*
X117576600Y-34810400D01*
X117830600Y-34810400D01*
X117830600Y-34830400D01*
X117850600Y-34830400D01*
X117850600Y-35084400D01*
X117830600Y-35084400D01*
X117830600Y-36227315D01*
X118052639Y-36349304D01*
X118084600Y-36339610D01*
X118084600Y-40636772D01*
X118067217Y-40813233D01*
X118017554Y-40976919D01*
X117936911Y-41127758D01*
X117828378Y-41259971D01*
X117696142Y-41368459D01*
X117545272Y-41449062D01*
X117381578Y-41498676D01*
X117205105Y-41516008D01*
X75377185Y-41503892D01*
X75200791Y-41486469D01*
X75037174Y-41436795D01*
X74886398Y-41356165D01*
X74754241Y-41247670D01*
X74645787Y-41115485D01*
X74565195Y-40964674D01*
X74515572Y-40801057D01*
X74498200Y-40624649D01*
X74498200Y-36297089D01*
X74625200Y-36227315D01*
X74625200Y-35614276D01*
X74626830Y-35610924D01*
X74879200Y-35192936D01*
X74879200Y-36227315D01*
X75101239Y-36349304D01*
X75235287Y-36308646D01*
X75489620Y-36188437D01*
X75715614Y-36020919D01*
X75904585Y-35812531D01*
X76049270Y-35571281D01*
X76144109Y-35306440D01*
X116311691Y-35306440D01*
X116406530Y-35571281D01*
X116551215Y-35812531D01*
X116740186Y-36020919D01*
X116966180Y-36188437D01*
X117220513Y-36308646D01*
X117354561Y-36349304D01*
X117576600Y-36227315D01*
X117576600Y-35084400D01*
X116432976Y-35084400D01*
X116311691Y-35306440D01*
X76144109Y-35306440D01*
X76022824Y-35084400D01*
X74944731Y-35084400D01*
X75098089Y-34830400D01*
X76022824Y-34830400D01*
X76144109Y-34608360D01*
X76049270Y-34343519D01*
X75904585Y-34102269D01*
X75809068Y-33996938D01*
X78684904Y-31121102D01*
X78821942Y-31008637D01*
X78972763Y-30928022D01*
X79136424Y-30878376D01*
X79312848Y-30861000D01*
X94097419Y-30861000D01*
X94164361Y-30881304D01*
G04 #@! TA.AperFunction,Conductor*
D33*
G36*
X94164361Y-30881304D02*
G01*
X94201317Y-30861000D01*
X94825483Y-30861000D01*
X94862439Y-30881304D01*
X94929381Y-30861000D01*
X113866810Y-30861000D01*
X114038489Y-30877445D01*
X114198090Y-30924463D01*
X114345853Y-31000919D01*
X114481200Y-31107817D01*
X117132374Y-33647812D01*
X116966180Y-33726363D01*
X116740186Y-33893881D01*
X116551215Y-34102269D01*
X116406530Y-34343519D01*
X116311691Y-34608360D01*
X116432976Y-34830400D01*
X117576600Y-34830400D01*
X117576600Y-34810400D01*
X117830600Y-34810400D01*
X117830600Y-34830400D01*
X117850600Y-34830400D01*
X117850600Y-35084400D01*
X117830600Y-35084400D01*
X117830600Y-36227315D01*
X118052639Y-36349304D01*
X118084600Y-36339610D01*
X118084600Y-40636772D01*
X118067217Y-40813233D01*
X118017554Y-40976919D01*
X117936911Y-41127758D01*
X117828378Y-41259971D01*
X117696142Y-41368459D01*
X117545272Y-41449062D01*
X117381578Y-41498676D01*
X117205105Y-41516008D01*
X75377185Y-41503892D01*
X75200791Y-41486469D01*
X75037174Y-41436795D01*
X74886398Y-41356165D01*
X74754241Y-41247670D01*
X74645787Y-41115485D01*
X74565195Y-40964674D01*
X74515572Y-40801057D01*
X74498200Y-40624649D01*
X74498200Y-36297089D01*
X74625200Y-36227315D01*
X74625200Y-35614276D01*
X74626830Y-35610924D01*
X74879200Y-35192936D01*
X74879200Y-36227315D01*
X75101239Y-36349304D01*
X75235287Y-36308646D01*
X75489620Y-36188437D01*
X75715614Y-36020919D01*
X75904585Y-35812531D01*
X76049270Y-35571281D01*
X76144109Y-35306440D01*
X116311691Y-35306440D01*
X116406530Y-35571281D01*
X116551215Y-35812531D01*
X116740186Y-36020919D01*
X116966180Y-36188437D01*
X117220513Y-36308646D01*
X117354561Y-36349304D01*
X117576600Y-36227315D01*
X117576600Y-35084400D01*
X116432976Y-35084400D01*
X116311691Y-35306440D01*
X76144109Y-35306440D01*
X76022824Y-35084400D01*
X74944731Y-35084400D01*
X75098089Y-34830400D01*
X76022824Y-34830400D01*
X76144109Y-34608360D01*
X76049270Y-34343519D01*
X75904585Y-34102269D01*
X75809068Y-33996938D01*
X78684904Y-31121102D01*
X78821942Y-31008637D01*
X78972763Y-30928022D01*
X79136424Y-30878376D01*
X79312848Y-30861000D01*
X94097419Y-30861000D01*
X94164361Y-30881304D01*
G37*
G04 #@! TD.AperFunction*
D34*
X68031176Y-26103176D02*
X68194837Y-26152822D01*
X68345658Y-26233437D01*
X68482696Y-26345902D01*
X70783698Y-28646904D01*
X70896163Y-28783942D01*
X70976778Y-28934763D01*
X71026424Y-29098424D01*
X71043800Y-29274848D01*
X71043800Y-50531952D01*
X71026424Y-50708376D01*
X70976778Y-50872037D01*
X70896163Y-51022858D01*
X70783698Y-51159896D01*
X69041015Y-52902579D01*
X68904190Y-53014902D01*
X68753622Y-53095465D01*
X68590244Y-53145154D01*
X68414084Y-53162683D01*
X47631993Y-53186626D01*
X47466853Y-53168198D01*
X47316752Y-53115828D01*
X47182077Y-53031344D01*
X47069598Y-52918996D01*
X46984963Y-52784423D01*
X46932417Y-52634375D01*
X46913800Y-52469265D01*
X46913800Y-52058648D01*
X46931176Y-51882224D01*
X46980822Y-51718563D01*
X47061437Y-51567742D01*
X47173902Y-51430704D01*
X60248910Y-38355696D01*
X60257279Y-38346461D01*
X60381642Y-38194925D01*
X60395474Y-38174224D01*
X60487884Y-38001337D01*
X60497412Y-37978336D01*
X60554317Y-37790743D01*
X60559173Y-37766325D01*
X60578388Y-37571234D01*
X60579000Y-37558786D01*
X60579000Y-29325648D01*
X60596376Y-29149224D01*
X60646022Y-28985563D01*
X60726637Y-28834742D01*
X60839102Y-28697704D01*
X63190904Y-26345902D01*
X63327942Y-26233437D01*
X63478763Y-26152822D01*
X63642424Y-26103176D01*
X63818848Y-26085800D01*
X67854752Y-26085800D01*
X68031176Y-26103176D01*
G04 #@! TA.AperFunction,Conductor*
D33*
G36*
X68031176Y-26103176D02*
G01*
X68194837Y-26152822D01*
X68345658Y-26233437D01*
X68482696Y-26345902D01*
X70783698Y-28646904D01*
X70896163Y-28783942D01*
X70976778Y-28934763D01*
X71026424Y-29098424D01*
X71043800Y-29274848D01*
X71043800Y-50531952D01*
X71026424Y-50708376D01*
X70976778Y-50872037D01*
X70896163Y-51022858D01*
X70783698Y-51159896D01*
X69041015Y-52902579D01*
X68904190Y-53014902D01*
X68753622Y-53095465D01*
X68590244Y-53145154D01*
X68414084Y-53162683D01*
X47631993Y-53186626D01*
X47466853Y-53168198D01*
X47316752Y-53115828D01*
X47182077Y-53031344D01*
X47069598Y-52918996D01*
X46984963Y-52784423D01*
X46932417Y-52634375D01*
X46913800Y-52469265D01*
X46913800Y-52058648D01*
X46931176Y-51882224D01*
X46980822Y-51718563D01*
X47061437Y-51567742D01*
X47173902Y-51430704D01*
X60248910Y-38355696D01*
X60257279Y-38346461D01*
X60381642Y-38194925D01*
X60395474Y-38174224D01*
X60487884Y-38001337D01*
X60497412Y-37978336D01*
X60554317Y-37790743D01*
X60559173Y-37766325D01*
X60578388Y-37571234D01*
X60579000Y-37558786D01*
X60579000Y-29325648D01*
X60596376Y-29149224D01*
X60646022Y-28985563D01*
X60726637Y-28834742D01*
X60839102Y-28697704D01*
X63190904Y-26345902D01*
X63327942Y-26233437D01*
X63478763Y-26152822D01*
X63642424Y-26103176D01*
X63818848Y-26085800D01*
X67854752Y-26085800D01*
X68031176Y-26103176D01*
G37*
G04 #@! TD.AperFunction*
D34*
X56975687Y-59533255D02*
X57153324Y-59593216D01*
X57319817Y-59693599D01*
X57558319Y-59875314D01*
X57597479Y-59906846D01*
X57824340Y-60099778D01*
X57917180Y-60197899D01*
X57983194Y-60307739D01*
X58024060Y-60429195D01*
X58038616Y-60563490D01*
X58013720Y-136742843D01*
X58014205Y-136753978D01*
X58029520Y-136928650D01*
X58033403Y-136950577D01*
X58078992Y-137119889D01*
X58086645Y-137140802D01*
X58161107Y-137299547D01*
X58172294Y-137318800D01*
X58273338Y-137462100D01*
X58280154Y-137470918D01*
X63865123Y-144075549D01*
X63874592Y-144085586D01*
X64031842Y-144235090D01*
X64053755Y-144251798D01*
X64239553Y-144363865D01*
X64264554Y-144375454D01*
X64470149Y-144444807D01*
X64497062Y-144450730D01*
X64712778Y-144474103D01*
X64726556Y-144474842D01*
X80293880Y-144462858D01*
X80486845Y-144483534D01*
X80664440Y-144542737D01*
X80825304Y-144638465D01*
X80967067Y-144771014D01*
X80998919Y-144807963D01*
X81008364Y-144817798D01*
X81164973Y-144964257D01*
X81186741Y-144980618D01*
X81370972Y-145090323D01*
X81395729Y-145101667D01*
X81599113Y-145169575D01*
X81625718Y-145175380D01*
X81838904Y-145198368D01*
X81852520Y-145199100D01*
X83192273Y-145199100D01*
X83204999Y-145198461D01*
X83404388Y-145178381D01*
X83429326Y-145173306D01*
X83620709Y-145113874D01*
X83644137Y-145103929D01*
X83819826Y-145007529D01*
X83840799Y-144993112D01*
X83993739Y-144863619D01*
X84003038Y-144854908D01*
X84119947Y-144733824D01*
X84258310Y-144616680D01*
X84411635Y-144532572D01*
X84578646Y-144480737D01*
X84759033Y-144462613D01*
X132373479Y-144475089D01*
X132551247Y-144492780D01*
X132716021Y-144543217D01*
X132867670Y-144625062D01*
X133005128Y-144739152D01*
X133416847Y-145156082D01*
X133426106Y-145164574D01*
X133578160Y-145290768D01*
X133598960Y-145304808D01*
X133772859Y-145398640D01*
X133796014Y-145408316D01*
X133984968Y-145466121D01*
X134009572Y-145471056D01*
X134206205Y-145490579D01*
X134218753Y-145491200D01*
X135957470Y-145491200D01*
X135969078Y-145490668D01*
X136151106Y-145473961D01*
X136173932Y-145469736D01*
X136349878Y-145420175D01*
X136371555Y-145411864D01*
X136535540Y-145331103D01*
X136555341Y-145318986D01*
X136701885Y-145209725D01*
X136710873Y-145202361D01*
X137266604Y-144702827D01*
X137399138Y-144604012D01*
X137542207Y-144533551D01*
X137695720Y-144490309D01*
X137860342Y-144475200D01*
X153719390Y-144475200D01*
X153896559Y-144498525D01*
X154053909Y-144563702D01*
X154195678Y-144672484D01*
X154407686Y-144884492D01*
X154409057Y-144885842D01*
X154430799Y-144906935D01*
X154432190Y-144908263D01*
X154630762Y-145095155D01*
X154731325Y-145219577D01*
X154791317Y-145358425D01*
X154813000Y-145516929D01*
X154813000Y-146770966D01*
X154795624Y-146947389D01*
X154745978Y-147111050D01*
X154665362Y-147261872D01*
X154556870Y-147394070D01*
X154424672Y-147502562D01*
X154273850Y-147583178D01*
X154110189Y-147632824D01*
X153933766Y-147650200D01*
X48756648Y-147650200D01*
X48580224Y-147632824D01*
X48416563Y-147583178D01*
X48265742Y-147502563D01*
X48128704Y-147390098D01*
X43313102Y-142574496D01*
X43200637Y-142437458D01*
X43120022Y-142286637D01*
X43070376Y-142122976D01*
X43053000Y-141946552D01*
X43053000Y-72962235D01*
X51267271Y-72962235D01*
X51372044Y-73265144D01*
X51533899Y-73541792D01*
X51746615Y-73781548D01*
X52002018Y-73975199D01*
X52290293Y-74115302D01*
X52476966Y-74171924D01*
X52730400Y-74052577D01*
X52730400Y-72708800D01*
X52984400Y-72708800D01*
X52984400Y-74052577D01*
X53237834Y-74171924D01*
X53424507Y-74115302D01*
X53712782Y-73975199D01*
X53968185Y-73781548D01*
X54180901Y-73541792D01*
X54342756Y-73265144D01*
X54447529Y-72962235D01*
X54328715Y-72708800D01*
X52984400Y-72708800D01*
X52730400Y-72708800D01*
X51386085Y-72708800D01*
X51267271Y-72962235D01*
X43053000Y-72962235D01*
X43053000Y-72480248D01*
X43070376Y-72303824D01*
X43101456Y-72201365D01*
X51267271Y-72201365D01*
X51386085Y-72454800D01*
X52730400Y-72454800D01*
X52730400Y-71111023D01*
X52984400Y-71111023D01*
X52984400Y-72454800D01*
X54328715Y-72454800D01*
X54447529Y-72201365D01*
X54342756Y-71898456D01*
X54180901Y-71621808D01*
X53968185Y-71382052D01*
X53712782Y-71188401D01*
X53424507Y-71048298D01*
X53237834Y-70991676D01*
X52984400Y-71111023D01*
X52730400Y-71111023D01*
X52476966Y-70991676D01*
X52290293Y-71048298D01*
X52002018Y-71188401D01*
X51746615Y-71382052D01*
X51533899Y-71621808D01*
X51372044Y-71898456D01*
X51267271Y-72201365D01*
X43101456Y-72201365D01*
X43120022Y-72140163D01*
X43200637Y-71989342D01*
X43313102Y-71852304D01*
X44246910Y-70918496D01*
X44255279Y-70909261D01*
X44347878Y-70796430D01*
X44351806Y-70793206D01*
X44377696Y-70761659D01*
X44377703Y-70761652D01*
X44455152Y-70667280D01*
X44531945Y-70523611D01*
X44561810Y-70425158D01*
X44579234Y-70367720D01*
X44591200Y-70246224D01*
X44591200Y-70246214D01*
X44595200Y-70205600D01*
X44591200Y-70164986D01*
X44591200Y-61381613D01*
X44595200Y-61340999D01*
X44591200Y-61300385D01*
X44591200Y-61300376D01*
X44579234Y-61178880D01*
X44577000Y-61171516D01*
X44577000Y-60391434D01*
X44594376Y-60215011D01*
X44644022Y-60051350D01*
X44724638Y-59900528D01*
X44833130Y-59768330D01*
X44965328Y-59659838D01*
X45116150Y-59579222D01*
X45279811Y-59529576D01*
X45456234Y-59512200D01*
X56782413Y-59512200D01*
X56975687Y-59533255D01*
G04 #@! TA.AperFunction,Conductor*
D33*
G36*
X56975687Y-59533255D02*
G01*
X57153324Y-59593216D01*
X57319817Y-59693599D01*
X57558319Y-59875314D01*
X57597479Y-59906846D01*
X57824340Y-60099778D01*
X57917180Y-60197899D01*
X57983194Y-60307739D01*
X58024060Y-60429195D01*
X58038616Y-60563490D01*
X58013720Y-136742843D01*
X58014205Y-136753978D01*
X58029520Y-136928650D01*
X58033403Y-136950577D01*
X58078992Y-137119889D01*
X58086645Y-137140802D01*
X58161107Y-137299547D01*
X58172294Y-137318800D01*
X58273338Y-137462100D01*
X58280154Y-137470918D01*
X63865123Y-144075549D01*
X63874592Y-144085586D01*
X64031842Y-144235090D01*
X64053755Y-144251798D01*
X64239553Y-144363865D01*
X64264554Y-144375454D01*
X64470149Y-144444807D01*
X64497062Y-144450730D01*
X64712778Y-144474103D01*
X64726556Y-144474842D01*
X80293880Y-144462858D01*
X80486845Y-144483534D01*
X80664440Y-144542737D01*
X80825304Y-144638465D01*
X80967067Y-144771014D01*
X80998919Y-144807963D01*
X81008364Y-144817798D01*
X81164973Y-144964257D01*
X81186741Y-144980618D01*
X81370972Y-145090323D01*
X81395729Y-145101667D01*
X81599113Y-145169575D01*
X81625718Y-145175380D01*
X81838904Y-145198368D01*
X81852520Y-145199100D01*
X83192273Y-145199100D01*
X83204999Y-145198461D01*
X83404388Y-145178381D01*
X83429326Y-145173306D01*
X83620709Y-145113874D01*
X83644137Y-145103929D01*
X83819826Y-145007529D01*
X83840799Y-144993112D01*
X83993739Y-144863619D01*
X84003038Y-144854908D01*
X84119947Y-144733824D01*
X84258310Y-144616680D01*
X84411635Y-144532572D01*
X84578646Y-144480737D01*
X84759033Y-144462613D01*
X132373479Y-144475089D01*
X132551247Y-144492780D01*
X132716021Y-144543217D01*
X132867670Y-144625062D01*
X133005128Y-144739152D01*
X133416847Y-145156082D01*
X133426106Y-145164574D01*
X133578160Y-145290768D01*
X133598960Y-145304808D01*
X133772859Y-145398640D01*
X133796014Y-145408316D01*
X133984968Y-145466121D01*
X134009572Y-145471056D01*
X134206205Y-145490579D01*
X134218753Y-145491200D01*
X135957470Y-145491200D01*
X135969078Y-145490668D01*
X136151106Y-145473961D01*
X136173932Y-145469736D01*
X136349878Y-145420175D01*
X136371555Y-145411864D01*
X136535540Y-145331103D01*
X136555341Y-145318986D01*
X136701885Y-145209725D01*
X136710873Y-145202361D01*
X137266604Y-144702827D01*
X137399138Y-144604012D01*
X137542207Y-144533551D01*
X137695720Y-144490309D01*
X137860342Y-144475200D01*
X153719390Y-144475200D01*
X153896559Y-144498525D01*
X154053909Y-144563702D01*
X154195678Y-144672484D01*
X154407686Y-144884492D01*
X154409057Y-144885842D01*
X154430799Y-144906935D01*
X154432190Y-144908263D01*
X154630762Y-145095155D01*
X154731325Y-145219577D01*
X154791317Y-145358425D01*
X154813000Y-145516929D01*
X154813000Y-146770966D01*
X154795624Y-146947389D01*
X154745978Y-147111050D01*
X154665362Y-147261872D01*
X154556870Y-147394070D01*
X154424672Y-147502562D01*
X154273850Y-147583178D01*
X154110189Y-147632824D01*
X153933766Y-147650200D01*
X48756648Y-147650200D01*
X48580224Y-147632824D01*
X48416563Y-147583178D01*
X48265742Y-147502563D01*
X48128704Y-147390098D01*
X43313102Y-142574496D01*
X43200637Y-142437458D01*
X43120022Y-142286637D01*
X43070376Y-142122976D01*
X43053000Y-141946552D01*
X43053000Y-72962235D01*
X51267271Y-72962235D01*
X51372044Y-73265144D01*
X51533899Y-73541792D01*
X51746615Y-73781548D01*
X52002018Y-73975199D01*
X52290293Y-74115302D01*
X52476966Y-74171924D01*
X52730400Y-74052577D01*
X52730400Y-72708800D01*
X52984400Y-72708800D01*
X52984400Y-74052577D01*
X53237834Y-74171924D01*
X53424507Y-74115302D01*
X53712782Y-73975199D01*
X53968185Y-73781548D01*
X54180901Y-73541792D01*
X54342756Y-73265144D01*
X54447529Y-72962235D01*
X54328715Y-72708800D01*
X52984400Y-72708800D01*
X52730400Y-72708800D01*
X51386085Y-72708800D01*
X51267271Y-72962235D01*
X43053000Y-72962235D01*
X43053000Y-72480248D01*
X43070376Y-72303824D01*
X43101456Y-72201365D01*
X51267271Y-72201365D01*
X51386085Y-72454800D01*
X52730400Y-72454800D01*
X52730400Y-71111023D01*
X52984400Y-71111023D01*
X52984400Y-72454800D01*
X54328715Y-72454800D01*
X54447529Y-72201365D01*
X54342756Y-71898456D01*
X54180901Y-71621808D01*
X53968185Y-71382052D01*
X53712782Y-71188401D01*
X53424507Y-71048298D01*
X53237834Y-70991676D01*
X52984400Y-71111023D01*
X52730400Y-71111023D01*
X52476966Y-70991676D01*
X52290293Y-71048298D01*
X52002018Y-71188401D01*
X51746615Y-71382052D01*
X51533899Y-71621808D01*
X51372044Y-71898456D01*
X51267271Y-72201365D01*
X43101456Y-72201365D01*
X43120022Y-72140163D01*
X43200637Y-71989342D01*
X43313102Y-71852304D01*
X44246910Y-70918496D01*
X44255279Y-70909261D01*
X44347878Y-70796430D01*
X44351806Y-70793206D01*
X44377696Y-70761659D01*
X44377703Y-70761652D01*
X44455152Y-70667280D01*
X44531945Y-70523611D01*
X44561810Y-70425158D01*
X44579234Y-70367720D01*
X44591200Y-70246224D01*
X44591200Y-70246214D01*
X44595200Y-70205600D01*
X44591200Y-70164986D01*
X44591200Y-61381613D01*
X44595200Y-61340999D01*
X44591200Y-61300385D01*
X44591200Y-61300376D01*
X44579234Y-61178880D01*
X44577000Y-61171516D01*
X44577000Y-60391434D01*
X44594376Y-60215011D01*
X44644022Y-60051350D01*
X44724638Y-59900528D01*
X44833130Y-59768330D01*
X44965328Y-59659838D01*
X45116150Y-59579222D01*
X45279811Y-59529576D01*
X45456234Y-59512200D01*
X56782413Y-59512200D01*
X56975687Y-59533255D01*
G37*
G04 #@! TD.AperFunction*
D34*
X243870216Y-86406472D02*
X244048700Y-86466505D01*
X244210138Y-86563445D01*
X244352035Y-86697523D01*
X244974130Y-87427807D01*
X245066367Y-87557729D01*
X245131971Y-87696727D01*
X245172166Y-87845080D01*
X245186200Y-88003787D01*
X245186200Y-96790000D01*
X245186812Y-96802448D01*
X245206027Y-96997538D01*
X245210883Y-97021956D01*
X245267788Y-97209549D01*
X245277316Y-97232550D01*
X245369726Y-97405437D01*
X245383558Y-97426138D01*
X245507921Y-97577675D01*
X245525525Y-97595279D01*
X245677062Y-97719642D01*
X245697763Y-97733474D01*
X245870650Y-97825884D01*
X245893651Y-97835412D01*
X246081244Y-97892317D01*
X246105662Y-97897173D01*
X246300752Y-97916388D01*
X246313200Y-97917000D01*
X248834400Y-97917000D01*
X248846848Y-97916388D01*
X249041938Y-97897173D01*
X249066356Y-97892317D01*
X249253949Y-97835412D01*
X249276950Y-97825884D01*
X249449837Y-97733474D01*
X249470538Y-97719642D01*
X249622075Y-97595279D01*
X249639679Y-97577675D01*
X249764042Y-97426138D01*
X249777874Y-97405437D01*
X249870284Y-97232550D01*
X249879812Y-97209549D01*
X249936717Y-97021956D01*
X249941573Y-96997538D01*
X249960788Y-96802448D01*
X249961400Y-96790000D01*
X249961400Y-88864834D01*
X249978776Y-88688411D01*
X250028422Y-88524750D01*
X250109038Y-88373928D01*
X250217530Y-88241730D01*
X250349728Y-88133238D01*
X250500550Y-88052622D01*
X250664211Y-88002976D01*
X250840634Y-87985600D01*
X264475008Y-87985600D01*
X264651398Y-88002968D01*
X264815002Y-88052582D01*
X264965799Y-88133157D01*
X265097982Y-88241594D01*
X265206475Y-88373725D01*
X265287114Y-88524479D01*
X265336805Y-88688072D01*
X265348001Y-88801254D01*
X265348000Y-143714825D01*
X265311843Y-143834178D01*
X265231251Y-143985066D01*
X265122757Y-144117334D01*
X264990549Y-144225878D01*
X264839685Y-144306543D01*
X264675995Y-144356213D01*
X264499511Y-144373600D01*
X257561946Y-144373600D01*
X257549525Y-144374209D01*
X257354859Y-144393339D01*
X257330492Y-144398175D01*
X257143274Y-144454835D01*
X257120316Y-144464321D01*
X256947709Y-144556341D01*
X256927036Y-144570116D01*
X256775644Y-144693977D01*
X256758047Y-144711512D01*
X256633664Y-144862474D01*
X256619819Y-144883099D01*
X256527201Y-145055386D01*
X256517635Y-145078313D01*
X256460329Y-145265334D01*
X256455409Y-145289683D01*
X256435605Y-145484282D01*
X256434953Y-145496701D01*
X256416471Y-150837997D01*
X256398561Y-151013985D01*
X256348568Y-151177137D01*
X256267770Y-151327437D01*
X256159255Y-151459141D01*
X256027188Y-151567191D01*
X255876604Y-151647470D01*
X255713278Y-151696900D01*
X255537230Y-151714200D01*
X244123353Y-151714200D01*
X243922894Y-151691701D01*
X243739172Y-151627682D01*
X243574209Y-151524526D01*
X243431141Y-151382321D01*
X241710727Y-149240237D01*
X241608631Y-149081731D01*
X241543993Y-148911740D01*
X241516008Y-148732045D01*
X241525891Y-148550453D01*
X241573214Y-148374852D01*
X241655917Y-148212881D01*
X241774602Y-148066404D01*
X243937304Y-145903702D01*
X244074342Y-145791237D01*
X244225163Y-145710622D01*
X244388824Y-145660976D01*
X244565248Y-145643600D01*
X245926964Y-145643600D01*
X245939308Y-145642999D01*
X246132774Y-145624106D01*
X246156994Y-145619330D01*
X246343149Y-145563365D01*
X246365988Y-145553993D01*
X246537800Y-145463070D01*
X246548429Y-145456765D01*
X247347665Y-144928456D01*
X247357761Y-144921041D01*
X247510619Y-144796733D01*
X247528382Y-144779111D01*
X247653901Y-144627246D01*
X247667865Y-144606482D01*
X247761172Y-144432955D01*
X247770793Y-144409857D01*
X247828267Y-144221403D01*
X247833173Y-144196867D01*
X247852582Y-144000802D01*
X247853200Y-143988291D01*
X247853200Y-140788066D01*
X247852448Y-140774265D01*
X247828829Y-140558211D01*
X247822865Y-140531261D01*
X247753125Y-140325412D01*
X247741480Y-140300386D01*
X247628912Y-140114467D01*
X247612135Y-140092549D01*
X247462058Y-139935342D01*
X247440941Y-139917566D01*
X247260443Y-139796497D01*
X247248562Y-139789433D01*
X246676696Y-139490303D01*
X246513480Y-139380826D01*
X246382575Y-139243703D01*
X246284387Y-139081534D01*
X246223559Y-138901988D01*
X246202200Y-138706612D01*
X246202200Y-105063800D01*
X246201588Y-105051352D01*
X246182373Y-104856262D01*
X246177517Y-104831844D01*
X246120612Y-104644251D01*
X246111084Y-104621250D01*
X246018674Y-104448363D01*
X246004842Y-104427662D01*
X245880479Y-104276125D01*
X245862875Y-104258521D01*
X245711338Y-104134158D01*
X245690637Y-104120326D01*
X245517750Y-104027916D01*
X245494749Y-104018388D01*
X245307156Y-103961483D01*
X245282738Y-103956627D01*
X245087648Y-103937412D01*
X245075200Y-103936800D01*
X241187106Y-103936800D01*
X241010837Y-103919456D01*
X240847333Y-103869909D01*
X240696611Y-103789440D01*
X240564475Y-103681145D01*
X240455969Y-103549164D01*
X240375274Y-103398575D01*
X240325474Y-103235136D01*
X240307861Y-103058909D01*
X240284699Y-87934105D01*
X240304543Y-87744315D01*
X240361680Y-87569323D01*
X240454262Y-87410228D01*
X240582720Y-87269102D01*
X241324491Y-86609750D01*
X241456510Y-86512313D01*
X241598737Y-86442879D01*
X241751177Y-86400282D01*
X241914566Y-86385400D01*
X243676136Y-86385400D01*
X243870216Y-86406472D01*
G04 #@! TA.AperFunction,Conductor*
D33*
G36*
X243870216Y-86406472D02*
G01*
X244048700Y-86466505D01*
X244210138Y-86563445D01*
X244352035Y-86697523D01*
X244974130Y-87427807D01*
X245066367Y-87557729D01*
X245131971Y-87696727D01*
X245172166Y-87845080D01*
X245186200Y-88003787D01*
X245186200Y-96790000D01*
X245186812Y-96802448D01*
X245206027Y-96997538D01*
X245210883Y-97021956D01*
X245267788Y-97209549D01*
X245277316Y-97232550D01*
X245369726Y-97405437D01*
X245383558Y-97426138D01*
X245507921Y-97577675D01*
X245525525Y-97595279D01*
X245677062Y-97719642D01*
X245697763Y-97733474D01*
X245870650Y-97825884D01*
X245893651Y-97835412D01*
X246081244Y-97892317D01*
X246105662Y-97897173D01*
X246300752Y-97916388D01*
X246313200Y-97917000D01*
X248834400Y-97917000D01*
X248846848Y-97916388D01*
X249041938Y-97897173D01*
X249066356Y-97892317D01*
X249253949Y-97835412D01*
X249276950Y-97825884D01*
X249449837Y-97733474D01*
X249470538Y-97719642D01*
X249622075Y-97595279D01*
X249639679Y-97577675D01*
X249764042Y-97426138D01*
X249777874Y-97405437D01*
X249870284Y-97232550D01*
X249879812Y-97209549D01*
X249936717Y-97021956D01*
X249941573Y-96997538D01*
X249960788Y-96802448D01*
X249961400Y-96790000D01*
X249961400Y-88864834D01*
X249978776Y-88688411D01*
X250028422Y-88524750D01*
X250109038Y-88373928D01*
X250217530Y-88241730D01*
X250349728Y-88133238D01*
X250500550Y-88052622D01*
X250664211Y-88002976D01*
X250840634Y-87985600D01*
X264475008Y-87985600D01*
X264651398Y-88002968D01*
X264815002Y-88052582D01*
X264965799Y-88133157D01*
X265097982Y-88241594D01*
X265206475Y-88373725D01*
X265287114Y-88524479D01*
X265336805Y-88688072D01*
X265348001Y-88801254D01*
X265348000Y-143714825D01*
X265311843Y-143834178D01*
X265231251Y-143985066D01*
X265122757Y-144117334D01*
X264990549Y-144225878D01*
X264839685Y-144306543D01*
X264675995Y-144356213D01*
X264499511Y-144373600D01*
X257561946Y-144373600D01*
X257549525Y-144374209D01*
X257354859Y-144393339D01*
X257330492Y-144398175D01*
X257143274Y-144454835D01*
X257120316Y-144464321D01*
X256947709Y-144556341D01*
X256927036Y-144570116D01*
X256775644Y-144693977D01*
X256758047Y-144711512D01*
X256633664Y-144862474D01*
X256619819Y-144883099D01*
X256527201Y-145055386D01*
X256517635Y-145078313D01*
X256460329Y-145265334D01*
X256455409Y-145289683D01*
X256435605Y-145484282D01*
X256434953Y-145496701D01*
X256416471Y-150837997D01*
X256398561Y-151013985D01*
X256348568Y-151177137D01*
X256267770Y-151327437D01*
X256159255Y-151459141D01*
X256027188Y-151567191D01*
X255876604Y-151647470D01*
X255713278Y-151696900D01*
X255537230Y-151714200D01*
X244123353Y-151714200D01*
X243922894Y-151691701D01*
X243739172Y-151627682D01*
X243574209Y-151524526D01*
X243431141Y-151382321D01*
X241710727Y-149240237D01*
X241608631Y-149081731D01*
X241543993Y-148911740D01*
X241516008Y-148732045D01*
X241525891Y-148550453D01*
X241573214Y-148374852D01*
X241655917Y-148212881D01*
X241774602Y-148066404D01*
X243937304Y-145903702D01*
X244074342Y-145791237D01*
X244225163Y-145710622D01*
X244388824Y-145660976D01*
X244565248Y-145643600D01*
X245926964Y-145643600D01*
X245939308Y-145642999D01*
X246132774Y-145624106D01*
X246156994Y-145619330D01*
X246343149Y-145563365D01*
X246365988Y-145553993D01*
X246537800Y-145463070D01*
X246548429Y-145456765D01*
X247347665Y-144928456D01*
X247357761Y-144921041D01*
X247510619Y-144796733D01*
X247528382Y-144779111D01*
X247653901Y-144627246D01*
X247667865Y-144606482D01*
X247761172Y-144432955D01*
X247770793Y-144409857D01*
X247828267Y-144221403D01*
X247833173Y-144196867D01*
X247852582Y-144000802D01*
X247853200Y-143988291D01*
X247853200Y-140788066D01*
X247852448Y-140774265D01*
X247828829Y-140558211D01*
X247822865Y-140531261D01*
X247753125Y-140325412D01*
X247741480Y-140300386D01*
X247628912Y-140114467D01*
X247612135Y-140092549D01*
X247462058Y-139935342D01*
X247440941Y-139917566D01*
X247260443Y-139796497D01*
X247248562Y-139789433D01*
X246676696Y-139490303D01*
X246513480Y-139380826D01*
X246382575Y-139243703D01*
X246284387Y-139081534D01*
X246223559Y-138901988D01*
X246202200Y-138706612D01*
X246202200Y-105063800D01*
X246201588Y-105051352D01*
X246182373Y-104856262D01*
X246177517Y-104831844D01*
X246120612Y-104644251D01*
X246111084Y-104621250D01*
X246018674Y-104448363D01*
X246004842Y-104427662D01*
X245880479Y-104276125D01*
X245862875Y-104258521D01*
X245711338Y-104134158D01*
X245690637Y-104120326D01*
X245517750Y-104027916D01*
X245494749Y-104018388D01*
X245307156Y-103961483D01*
X245282738Y-103956627D01*
X245087648Y-103937412D01*
X245075200Y-103936800D01*
X241187106Y-103936800D01*
X241010837Y-103919456D01*
X240847333Y-103869909D01*
X240696611Y-103789440D01*
X240564475Y-103681145D01*
X240455969Y-103549164D01*
X240375274Y-103398575D01*
X240325474Y-103235136D01*
X240307861Y-103058909D01*
X240284699Y-87934105D01*
X240304543Y-87744315D01*
X240361680Y-87569323D01*
X240454262Y-87410228D01*
X240582720Y-87269102D01*
X241324491Y-86609750D01*
X241456510Y-86512313D01*
X241598737Y-86442879D01*
X241751177Y-86400282D01*
X241914566Y-86385400D01*
X243676136Y-86385400D01*
X243870216Y-86406472D01*
G37*
G04 #@! TD.AperFunction*
D34*
X263295509Y-33958645D02*
X263496154Y-33981854D01*
X263679889Y-34046639D01*
X263850719Y-34154413D01*
X264969796Y-35049676D01*
X265112542Y-35192808D01*
X265216116Y-35357999D01*
X265280407Y-35542069D01*
X265303000Y-35742943D01*
X265303000Y-75153457D01*
X265280407Y-75354331D01*
X265216116Y-75538401D01*
X265112542Y-75703592D01*
X264969796Y-75846724D01*
X264360162Y-76334432D01*
X264188459Y-76442628D01*
X264003737Y-76507425D01*
X263802068Y-76530200D01*
X254879234Y-76530200D01*
X254702811Y-76512824D01*
X254539150Y-76463178D01*
X254388328Y-76382562D01*
X254256130Y-76274070D01*
X254147638Y-76141872D01*
X254067022Y-75991050D01*
X254017376Y-75827389D01*
X254000000Y-75650966D01*
X254000000Y-55869163D01*
X253999370Y-55856533D01*
X253979591Y-55658625D01*
X253974592Y-55633865D01*
X253916036Y-55443786D01*
X253906236Y-55420506D01*
X253811221Y-55245776D01*
X253797007Y-55224895D01*
X253669290Y-55072424D01*
X253660697Y-55063146D01*
X253149759Y-54563821D01*
X253034257Y-54425933D01*
X252951369Y-54273504D01*
X252900287Y-54107685D01*
X252882400Y-53928711D01*
X252882400Y-51537616D01*
X252886056Y-51500122D01*
X252911241Y-51560924D01*
X252990802Y-51679996D01*
X253092064Y-51781258D01*
X253211136Y-51860819D01*
X253343442Y-51915622D01*
X253483897Y-51943560D01*
X253627103Y-51943560D01*
X253767558Y-51915622D01*
X253899864Y-51860819D01*
X254018936Y-51781258D01*
X254120198Y-51679996D01*
X254199759Y-51560924D01*
X254254562Y-51428618D01*
X254282500Y-51288163D01*
X254282500Y-51144957D01*
X254275453Y-51109525D01*
X255682380Y-51109525D01*
X255892495Y-51471163D01*
X256343864Y-51706857D01*
X256832541Y-51849964D01*
X257339747Y-51894986D01*
X257845991Y-51840191D01*
X258331817Y-51687687D01*
X258736905Y-51471163D01*
X258926433Y-51144957D01*
X259343600Y-51144957D01*
X259343600Y-51288163D01*
X259371538Y-51428618D01*
X259426341Y-51560924D01*
X259505902Y-51679996D01*
X259607164Y-51781258D01*
X259726236Y-51860819D01*
X259858542Y-51915622D01*
X259998997Y-51943560D01*
X260142203Y-51943560D01*
X260282658Y-51915622D01*
X260414964Y-51860819D01*
X260534036Y-51781258D01*
X260635298Y-51679996D01*
X260714859Y-51560924D01*
X260769662Y-51428618D01*
X260797600Y-51288163D01*
X260797600Y-51144957D01*
X260769662Y-51004502D01*
X260714859Y-50872196D01*
X260635298Y-50753124D01*
X260534036Y-50651862D01*
X260414964Y-50572301D01*
X260282658Y-50517498D01*
X260142203Y-50489560D01*
X259998997Y-50489560D01*
X259858542Y-50517498D01*
X259726236Y-50572301D01*
X259607164Y-50651862D01*
X259505902Y-50753124D01*
X259426341Y-50872196D01*
X259371538Y-51004502D01*
X259343600Y-51144957D01*
X258926433Y-51144957D01*
X258947020Y-51109525D01*
X257314700Y-49477205D01*
X255682380Y-51109525D01*
X254275453Y-51109525D01*
X254254562Y-51004502D01*
X254199759Y-50872196D01*
X254120198Y-50753124D01*
X254018936Y-50651862D01*
X253899864Y-50572301D01*
X253767558Y-50517498D01*
X253709382Y-50505926D01*
X254767250Y-49784003D01*
X254772109Y-49828891D01*
X254924613Y-50314717D01*
X255141137Y-50719805D01*
X255502775Y-50929920D01*
X257135095Y-49297600D01*
X257494305Y-49297600D01*
X259126625Y-50929920D01*
X259488263Y-50719805D01*
X259723957Y-50268436D01*
X259867064Y-49779759D01*
X259912086Y-49272553D01*
X259857291Y-48766309D01*
X259704787Y-48280483D01*
X259488263Y-47875395D01*
X259126625Y-47665280D01*
X257494305Y-49297600D01*
X257135095Y-49297600D01*
X257120953Y-49283458D01*
X257300558Y-49103853D01*
X257314700Y-49117995D01*
X258947020Y-47485675D01*
X258736905Y-47124037D01*
X258596392Y-47050665D01*
X258607588Y-47038716D01*
X258722035Y-46891059D01*
X258734755Y-46871030D01*
X258819740Y-46704661D01*
X258828512Y-46682617D01*
X258881070Y-46503345D01*
X258885589Y-46480054D01*
X258903885Y-46294134D01*
X258904495Y-46282273D01*
X258905280Y-46109525D01*
X260182380Y-46109525D01*
X260392495Y-46471163D01*
X260843864Y-46706857D01*
X261332541Y-46849964D01*
X261839747Y-46894986D01*
X262345991Y-46840191D01*
X262831817Y-46687687D01*
X263236905Y-46471163D01*
X263447020Y-46109525D01*
X261814700Y-44477205D01*
X260182380Y-46109525D01*
X258905280Y-46109525D01*
X258912708Y-44475454D01*
X258916700Y-44455383D01*
X258916700Y-44322647D01*
X259217314Y-44322647D01*
X259272109Y-44828891D01*
X259424613Y-45314717D01*
X259641137Y-45719805D01*
X260002775Y-45929920D01*
X261635095Y-44297600D01*
X261994305Y-44297600D01*
X263626625Y-45929920D01*
X263988263Y-45719805D01*
X264223957Y-45268436D01*
X264367064Y-44779759D01*
X264412086Y-44272553D01*
X264357291Y-43766309D01*
X264204787Y-43280483D01*
X263988263Y-42875395D01*
X263626625Y-42665280D01*
X261994305Y-44297600D01*
X261635095Y-44297600D01*
X260002775Y-42665280D01*
X259641137Y-42875395D01*
X259405443Y-43326764D01*
X259262336Y-43815441D01*
X259217314Y-44322647D01*
X258916700Y-44322647D01*
X258916700Y-44139817D01*
X258914288Y-44127693D01*
X258921751Y-42485675D01*
X260182380Y-42485675D01*
X261814700Y-44117995D01*
X263447020Y-42485675D01*
X263236905Y-42124037D01*
X262785536Y-41888343D01*
X262296859Y-41745236D01*
X261789653Y-41700214D01*
X261283409Y-41755009D01*
X260797583Y-41907513D01*
X260392495Y-42124037D01*
X260182380Y-42485675D01*
X258921751Y-42485675D01*
X258923041Y-42202078D01*
X258922484Y-42189606D01*
X258904092Y-41994098D01*
X258899329Y-41969618D01*
X258843085Y-41781474D01*
X258833631Y-41758396D01*
X258741703Y-41584871D01*
X258727921Y-41564087D01*
X258677892Y-41502706D01*
X258736905Y-41471163D01*
X258947020Y-41109525D01*
X257314700Y-39477205D01*
X257300558Y-39491348D01*
X257120953Y-39311743D01*
X257135095Y-39297600D01*
X257494305Y-39297600D01*
X259126625Y-40929920D01*
X259488263Y-40719805D01*
X259659903Y-40391103D01*
X259705741Y-40501764D01*
X259785302Y-40620836D01*
X259886564Y-40722098D01*
X260005636Y-40801659D01*
X260137942Y-40856462D01*
X260278397Y-40884400D01*
X260421603Y-40884400D01*
X260562058Y-40856462D01*
X260694364Y-40801659D01*
X260813436Y-40722098D01*
X260914698Y-40620836D01*
X260994259Y-40501764D01*
X261049062Y-40369458D01*
X261077000Y-40229003D01*
X261077000Y-40085797D01*
X263661600Y-40085797D01*
X263661600Y-40229003D01*
X263689538Y-40369458D01*
X263744341Y-40501764D01*
X263823902Y-40620836D01*
X263925164Y-40722098D01*
X264044236Y-40801659D01*
X264176542Y-40856462D01*
X264316997Y-40884400D01*
X264460203Y-40884400D01*
X264600658Y-40856462D01*
X264732964Y-40801659D01*
X264852036Y-40722098D01*
X264953298Y-40620836D01*
X265032859Y-40501764D01*
X265087662Y-40369458D01*
X265115600Y-40229003D01*
X265115600Y-40085797D01*
X265087662Y-39945342D01*
X265032859Y-39813036D01*
X264953298Y-39693964D01*
X264852036Y-39592702D01*
X264732964Y-39513141D01*
X264600658Y-39458338D01*
X264460203Y-39430400D01*
X264316997Y-39430400D01*
X264176542Y-39458338D01*
X264044236Y-39513141D01*
X263925164Y-39592702D01*
X263823902Y-39693964D01*
X263744341Y-39813036D01*
X263689538Y-39945342D01*
X263661600Y-40085797D01*
X261077000Y-40085797D01*
X261049062Y-39945342D01*
X260994259Y-39813036D01*
X260914698Y-39693964D01*
X260813436Y-39592702D01*
X260694364Y-39513141D01*
X260562058Y-39458338D01*
X260421603Y-39430400D01*
X260278397Y-39430400D01*
X260137942Y-39458338D01*
X260005636Y-39513141D01*
X259886564Y-39592702D01*
X259883386Y-39595880D01*
X259912086Y-39272553D01*
X259857291Y-38766309D01*
X259704787Y-38280483D01*
X259488263Y-37875395D01*
X259126625Y-37665280D01*
X257494305Y-39297600D01*
X257135095Y-39297600D01*
X255502775Y-37665280D01*
X255141137Y-37875395D01*
X254905443Y-38326764D01*
X254762336Y-38815441D01*
X254717314Y-39322647D01*
X254772109Y-39828891D01*
X254924613Y-40314717D01*
X255141137Y-40719805D01*
X255502773Y-40929919D01*
X255388615Y-41044077D01*
X255410105Y-41065567D01*
X252896427Y-41060946D01*
X252720228Y-41043286D01*
X252556841Y-40993456D01*
X252406295Y-40912742D01*
X252274364Y-40804241D01*
X252166102Y-40672107D01*
X252085667Y-40521415D01*
X252036137Y-40357935D01*
X252018800Y-40181704D01*
X252018800Y-37485675D01*
X255682380Y-37485675D01*
X257314700Y-39117995D01*
X258947020Y-37485675D01*
X258736905Y-37124037D01*
X258285536Y-36888343D01*
X257796859Y-36745236D01*
X257289653Y-36700214D01*
X256783409Y-36755009D01*
X256297583Y-36907513D01*
X255892495Y-37124037D01*
X255682380Y-37485675D01*
X252018800Y-37485675D01*
X252018800Y-34804198D01*
X252036249Y-34627404D01*
X252086094Y-34463445D01*
X252167029Y-34312395D01*
X252275932Y-34180079D01*
X252408600Y-34071605D01*
X252559914Y-33991159D01*
X252724031Y-33941847D01*
X252900888Y-33924969D01*
X263295509Y-33958645D01*
G04 #@! TA.AperFunction,Conductor*
D33*
G36*
X263295509Y-33958645D02*
G01*
X263496154Y-33981854D01*
X263679889Y-34046639D01*
X263850719Y-34154413D01*
X264969796Y-35049676D01*
X265112542Y-35192808D01*
X265216116Y-35357999D01*
X265280407Y-35542069D01*
X265303000Y-35742943D01*
X265303000Y-75153457D01*
X265280407Y-75354331D01*
X265216116Y-75538401D01*
X265112542Y-75703592D01*
X264969796Y-75846724D01*
X264360162Y-76334432D01*
X264188459Y-76442628D01*
X264003737Y-76507425D01*
X263802068Y-76530200D01*
X254879234Y-76530200D01*
X254702811Y-76512824D01*
X254539150Y-76463178D01*
X254388328Y-76382562D01*
X254256130Y-76274070D01*
X254147638Y-76141872D01*
X254067022Y-75991050D01*
X254017376Y-75827389D01*
X254000000Y-75650966D01*
X254000000Y-55869163D01*
X253999370Y-55856533D01*
X253979591Y-55658625D01*
X253974592Y-55633865D01*
X253916036Y-55443786D01*
X253906236Y-55420506D01*
X253811221Y-55245776D01*
X253797007Y-55224895D01*
X253669290Y-55072424D01*
X253660697Y-55063146D01*
X253149759Y-54563821D01*
X253034257Y-54425933D01*
X252951369Y-54273504D01*
X252900287Y-54107685D01*
X252882400Y-53928711D01*
X252882400Y-51537616D01*
X252886056Y-51500122D01*
X252911241Y-51560924D01*
X252990802Y-51679996D01*
X253092064Y-51781258D01*
X253211136Y-51860819D01*
X253343442Y-51915622D01*
X253483897Y-51943560D01*
X253627103Y-51943560D01*
X253767558Y-51915622D01*
X253899864Y-51860819D01*
X254018936Y-51781258D01*
X254120198Y-51679996D01*
X254199759Y-51560924D01*
X254254562Y-51428618D01*
X254282500Y-51288163D01*
X254282500Y-51144957D01*
X254275453Y-51109525D01*
X255682380Y-51109525D01*
X255892495Y-51471163D01*
X256343864Y-51706857D01*
X256832541Y-51849964D01*
X257339747Y-51894986D01*
X257845991Y-51840191D01*
X258331817Y-51687687D01*
X258736905Y-51471163D01*
X258926433Y-51144957D01*
X259343600Y-51144957D01*
X259343600Y-51288163D01*
X259371538Y-51428618D01*
X259426341Y-51560924D01*
X259505902Y-51679996D01*
X259607164Y-51781258D01*
X259726236Y-51860819D01*
X259858542Y-51915622D01*
X259998997Y-51943560D01*
X260142203Y-51943560D01*
X260282658Y-51915622D01*
X260414964Y-51860819D01*
X260534036Y-51781258D01*
X260635298Y-51679996D01*
X260714859Y-51560924D01*
X260769662Y-51428618D01*
X260797600Y-51288163D01*
X260797600Y-51144957D01*
X260769662Y-51004502D01*
X260714859Y-50872196D01*
X260635298Y-50753124D01*
X260534036Y-50651862D01*
X260414964Y-50572301D01*
X260282658Y-50517498D01*
X260142203Y-50489560D01*
X259998997Y-50489560D01*
X259858542Y-50517498D01*
X259726236Y-50572301D01*
X259607164Y-50651862D01*
X259505902Y-50753124D01*
X259426341Y-50872196D01*
X259371538Y-51004502D01*
X259343600Y-51144957D01*
X258926433Y-51144957D01*
X258947020Y-51109525D01*
X257314700Y-49477205D01*
X255682380Y-51109525D01*
X254275453Y-51109525D01*
X254254562Y-51004502D01*
X254199759Y-50872196D01*
X254120198Y-50753124D01*
X254018936Y-50651862D01*
X253899864Y-50572301D01*
X253767558Y-50517498D01*
X253709382Y-50505926D01*
X254767250Y-49784003D01*
X254772109Y-49828891D01*
X254924613Y-50314717D01*
X255141137Y-50719805D01*
X255502775Y-50929920D01*
X257135095Y-49297600D01*
X257494305Y-49297600D01*
X259126625Y-50929920D01*
X259488263Y-50719805D01*
X259723957Y-50268436D01*
X259867064Y-49779759D01*
X259912086Y-49272553D01*
X259857291Y-48766309D01*
X259704787Y-48280483D01*
X259488263Y-47875395D01*
X259126625Y-47665280D01*
X257494305Y-49297600D01*
X257135095Y-49297600D01*
X257120953Y-49283458D01*
X257300558Y-49103853D01*
X257314700Y-49117995D01*
X258947020Y-47485675D01*
X258736905Y-47124037D01*
X258596392Y-47050665D01*
X258607588Y-47038716D01*
X258722035Y-46891059D01*
X258734755Y-46871030D01*
X258819740Y-46704661D01*
X258828512Y-46682617D01*
X258881070Y-46503345D01*
X258885589Y-46480054D01*
X258903885Y-46294134D01*
X258904495Y-46282273D01*
X258905280Y-46109525D01*
X260182380Y-46109525D01*
X260392495Y-46471163D01*
X260843864Y-46706857D01*
X261332541Y-46849964D01*
X261839747Y-46894986D01*
X262345991Y-46840191D01*
X262831817Y-46687687D01*
X263236905Y-46471163D01*
X263447020Y-46109525D01*
X261814700Y-44477205D01*
X260182380Y-46109525D01*
X258905280Y-46109525D01*
X258912708Y-44475454D01*
X258916700Y-44455383D01*
X258916700Y-44322647D01*
X259217314Y-44322647D01*
X259272109Y-44828891D01*
X259424613Y-45314717D01*
X259641137Y-45719805D01*
X260002775Y-45929920D01*
X261635095Y-44297600D01*
X261994305Y-44297600D01*
X263626625Y-45929920D01*
X263988263Y-45719805D01*
X264223957Y-45268436D01*
X264367064Y-44779759D01*
X264412086Y-44272553D01*
X264357291Y-43766309D01*
X264204787Y-43280483D01*
X263988263Y-42875395D01*
X263626625Y-42665280D01*
X261994305Y-44297600D01*
X261635095Y-44297600D01*
X260002775Y-42665280D01*
X259641137Y-42875395D01*
X259405443Y-43326764D01*
X259262336Y-43815441D01*
X259217314Y-44322647D01*
X258916700Y-44322647D01*
X258916700Y-44139817D01*
X258914288Y-44127693D01*
X258921751Y-42485675D01*
X260182380Y-42485675D01*
X261814700Y-44117995D01*
X263447020Y-42485675D01*
X263236905Y-42124037D01*
X262785536Y-41888343D01*
X262296859Y-41745236D01*
X261789653Y-41700214D01*
X261283409Y-41755009D01*
X260797583Y-41907513D01*
X260392495Y-42124037D01*
X260182380Y-42485675D01*
X258921751Y-42485675D01*
X258923041Y-42202078D01*
X258922484Y-42189606D01*
X258904092Y-41994098D01*
X258899329Y-41969618D01*
X258843085Y-41781474D01*
X258833631Y-41758396D01*
X258741703Y-41584871D01*
X258727921Y-41564087D01*
X258677892Y-41502706D01*
X258736905Y-41471163D01*
X258947020Y-41109525D01*
X257314700Y-39477205D01*
X257300558Y-39491348D01*
X257120953Y-39311743D01*
X257135095Y-39297600D01*
X257494305Y-39297600D01*
X259126625Y-40929920D01*
X259488263Y-40719805D01*
X259659903Y-40391103D01*
X259705741Y-40501764D01*
X259785302Y-40620836D01*
X259886564Y-40722098D01*
X260005636Y-40801659D01*
X260137942Y-40856462D01*
X260278397Y-40884400D01*
X260421603Y-40884400D01*
X260562058Y-40856462D01*
X260694364Y-40801659D01*
X260813436Y-40722098D01*
X260914698Y-40620836D01*
X260994259Y-40501764D01*
X261049062Y-40369458D01*
X261077000Y-40229003D01*
X261077000Y-40085797D01*
X263661600Y-40085797D01*
X263661600Y-40229003D01*
X263689538Y-40369458D01*
X263744341Y-40501764D01*
X263823902Y-40620836D01*
X263925164Y-40722098D01*
X264044236Y-40801659D01*
X264176542Y-40856462D01*
X264316997Y-40884400D01*
X264460203Y-40884400D01*
X264600658Y-40856462D01*
X264732964Y-40801659D01*
X264852036Y-40722098D01*
X264953298Y-40620836D01*
X265032859Y-40501764D01*
X265087662Y-40369458D01*
X265115600Y-40229003D01*
X265115600Y-40085797D01*
X265087662Y-39945342D01*
X265032859Y-39813036D01*
X264953298Y-39693964D01*
X264852036Y-39592702D01*
X264732964Y-39513141D01*
X264600658Y-39458338D01*
X264460203Y-39430400D01*
X264316997Y-39430400D01*
X264176542Y-39458338D01*
X264044236Y-39513141D01*
X263925164Y-39592702D01*
X263823902Y-39693964D01*
X263744341Y-39813036D01*
X263689538Y-39945342D01*
X263661600Y-40085797D01*
X261077000Y-40085797D01*
X261049062Y-39945342D01*
X260994259Y-39813036D01*
X260914698Y-39693964D01*
X260813436Y-39592702D01*
X260694364Y-39513141D01*
X260562058Y-39458338D01*
X260421603Y-39430400D01*
X260278397Y-39430400D01*
X260137942Y-39458338D01*
X260005636Y-39513141D01*
X259886564Y-39592702D01*
X259883386Y-39595880D01*
X259912086Y-39272553D01*
X259857291Y-38766309D01*
X259704787Y-38280483D01*
X259488263Y-37875395D01*
X259126625Y-37665280D01*
X257494305Y-39297600D01*
X257135095Y-39297600D01*
X255502775Y-37665280D01*
X255141137Y-37875395D01*
X254905443Y-38326764D01*
X254762336Y-38815441D01*
X254717314Y-39322647D01*
X254772109Y-39828891D01*
X254924613Y-40314717D01*
X255141137Y-40719805D01*
X255502773Y-40929919D01*
X255388615Y-41044077D01*
X255410105Y-41065567D01*
X252896427Y-41060946D01*
X252720228Y-41043286D01*
X252556841Y-40993456D01*
X252406295Y-40912742D01*
X252274364Y-40804241D01*
X252166102Y-40672107D01*
X252085667Y-40521415D01*
X252036137Y-40357935D01*
X252018800Y-40181704D01*
X252018800Y-37485675D01*
X255682380Y-37485675D01*
X257314700Y-39117995D01*
X258947020Y-37485675D01*
X258736905Y-37124037D01*
X258285536Y-36888343D01*
X257796859Y-36745236D01*
X257289653Y-36700214D01*
X256783409Y-36755009D01*
X256297583Y-36907513D01*
X255892495Y-37124037D01*
X255682380Y-37485675D01*
X252018800Y-37485675D01*
X252018800Y-34804198D01*
X252036249Y-34627404D01*
X252086094Y-34463445D01*
X252167029Y-34312395D01*
X252275932Y-34180079D01*
X252408600Y-34071605D01*
X252559914Y-33991159D01*
X252724031Y-33941847D01*
X252900888Y-33924969D01*
X263295509Y-33958645D01*
G37*
G04 #@! TD.AperFunction*
M02*
