M48
; DRILL file {KiCad 5.1.8-5.1.8} date Sun Sep  4 11:36:36 2022
; FORMAT={-:-/ absolute / inch / decimal}
; #@! TF.CreationDate,2022-09-04T11:36:36-07:00
; #@! TF.GenerationSoftware,Kicad,Pcbnew,5.1.8-5.1.8
; #@! TF.FileFunction,Plated,1,2,PTH
FMAT,2
INCH
T1C0.0157
T2C0.0295
T3C0.0315
T4C0.0394
T5C0.0433
T6C0.0472
T7C0.0669
T8C0.1024
%
G90
G05
T1
X1.722Y-2.93
X1.722Y-3.5448
X1.722Y-4.1595
X1.722Y-4.7743
X1.722Y-5.389
X1.785Y-2.623
X1.804Y-2.361
X1.861Y-2.068
X1.925Y-5.798
X2.044Y-1.858
X2.154Y-2.079
X2.227Y-2.356
X2.241Y-2.93
X2.241Y-3.5448
X2.241Y-4.1595
X2.241Y-4.7743
X2.241Y-5.389
X2.247Y-2.632
X2.399Y-1.146
X2.447Y-2.079
X2.553Y-5.701
X2.553Y-5.798
X2.5905Y-1.042
X2.74Y-2.042
X2.782Y-1.146
X2.782Y-1.594
X2.836Y-2.267
X2.85Y-5.406
X2.89Y-5.426
X2.926Y-5.448
X2.9424Y-5.701
X2.9424Y-5.798
X2.943Y-1.62
X2.965Y-5.474
X3.005Y-5.496
X3.046Y-5.519
X3.082Y-5.54
X3.125Y-5.567
X3.162Y-5.588
X3.171Y-1.899
X3.206Y-5.613
X3.236Y-5.655
X3.242Y-2.986
X3.257Y-3.032
X3.266Y-5.629
X3.27Y-2.1
X3.3319Y-5.701
X3.3319Y-5.798
X3.37Y-2.3
X3.377Y-2.484
X3.377Y-3.426
X3.377Y-4.463
X3.519Y-3.941
X3.541Y-3.887
X3.598Y-3.638
X3.627Y-3.586
X3.654Y-2.516
X3.654Y-2.93
X3.686Y-2.464
X3.686Y-2.886
X3.7213Y-5.701
X3.7213Y-5.798
X3.77Y-4.758
X3.77Y-5.009
X4.079Y-3.287
X4.1108Y-5.701
X4.1108Y-5.798
X4.151Y-2.865
X4.151Y-3.987
X4.3Y-4.559
X4.302Y-4.86
X4.302Y-5.632
X4.32Y-2.615
X4.333Y-3.737
X4.335Y-3.437
X4.34Y-2.344
X4.341Y-5.61
X4.384Y-5.582
X4.423Y-5.557
X4.461Y-5.533
X4.495Y-5.509
X4.5002Y-5.701
X4.5002Y-5.798
X4.537Y-5.489
X4.573Y-5.467
X4.592Y-1.231
X4.612Y-5.444
X4.634Y-1.622
X4.651Y-5.426
X4.689Y-5.406
X4.8897Y-5.701
X4.8897Y-5.798
X5.172Y-4.799
X5.216Y-4.75
X5.26Y-4.7
X5.324Y-5.699
X5.349Y-5.798
X5.351Y-2.844
X5.373Y-4.494
X5.374Y-4.394
X5.384Y-2.944
X5.46Y-2.372
X5.461Y-5.7
X5.493Y-3.495
X5.559Y-3.694
X5.575Y-3.894
X5.576Y-3.794
X5.627Y-5.405
X5.771Y-2.337
X5.841Y-5.7
X5.841Y-5.798
X5.845Y-1.332
X5.884Y-4.878
X5.891Y-3.494
X5.923Y-3.594
X5.941Y-4.8515
X5.952Y-3.694
X5.981Y-3.794
X5.998Y-4.8295
X6.01Y-3.895
X6.029Y-3.737
X6.041Y-3.994
X6.05Y-4.646
X6.05Y-4.801
X6.058Y-5.798
X6.066Y-2.337
X6.068Y-4.094
X6.104Y-4.634
X6.104Y-4.772
X6.112Y-2.277
X6.112Y-2.61
X6.112Y-3.545
X6.132Y-5.7
X6.155Y-4.7435
X6.165Y-1.894
X6.194Y-1.854
X6.199Y-4.715
X6.225Y-1.815
X6.246Y-4.682
X6.495Y-1.28
X6.592Y-1.331
X6.626Y-1.42
X6.632Y-2.918
X6.692Y-1.42
X6.692Y-1.482
X6.792Y-1.673
X6.792Y-5.289
X6.88Y-3.387
X6.892Y-1.376
X6.893Y-3.892
X6.906Y-1.974
X6.922Y-2.915
X6.942Y-3.976
X6.942Y-4.108
X6.959Y-1.953
X7.017Y-3.206
X7.0923Y-1.3763
X7.109Y-5.88
X7.144Y-1.286
X7.164Y-3.048
X7.169Y-5.082
X7.17Y-4.038
X7.183Y-4.435
X7.193Y-5.879
X7.216Y-4.194
X7.227Y-5.169
X7.272Y-5.879
X7.292Y-1.321
X7.332Y-1.419
X7.353Y-5.88
X7.392Y-1.464
X7.427Y-5.279
X7.433Y-5.879
X7.435Y-1.503
X7.441Y-3.438
X7.441Y-4.482
X7.46Y-3.1
X7.47Y-3.538
X7.47Y-4.382
X7.475Y-5.919
X7.481Y-5.302
X7.492Y-1.54
X7.517Y-5.96
X7.533Y-5.329
X7.558Y-6.0
X7.56Y-1.586
X7.583Y-5.352
X7.594Y-5.131
X7.632Y-5.369
X7.66Y-6.0
X7.683Y-5.393
X7.701Y-4.517
X7.732Y-5.412
X7.761Y-6.0
X7.78Y-5.43
X7.858Y-6.0
X7.882Y-2.106
X7.925Y-4.079
X7.93Y-6.0
X7.947Y-5.604
X7.984Y-3.048
X7.991Y-4.028
X7.991Y-5.082
X8.031Y-6.0
X8.0425Y-2.5139
X8.108Y-2.2
X8.109Y-5.51
X8.131Y-6.0
X8.165Y-5.558
X8.175Y-2.033
X8.212Y-4.165
X8.212Y-5.596
X8.213Y-2.765
X8.225Y-1.97
X8.231Y-6.0
X8.233Y-5.93
X8.242Y-3.888
X8.271Y-3.838
X8.3186Y-6.0
X8.337Y-4.833
X8.358Y-6.003
X8.358Y-6.1
X8.415Y-4.1
X8.437Y-2.215
X8.457Y-6.0
X8.482Y-2.19
X8.508Y-4.226
X8.537Y-3.886
X8.538Y-2.386
X8.557Y-6.0
X8.627Y-4.187
X8.654Y-5.165
X8.722Y-3.048
X8.723Y-5.032
X8.864Y-4.882
X8.871Y-6.047
X8.912Y-5.599
X8.936Y-4.982
X8.993Y-5.082
X9.007Y-6.084
X9.021Y-3.488
X9.0396Y-6.0506
X9.04Y-5.165
X9.091Y-5.677
X9.146Y-6.062
X9.159Y-5.875
X9.179Y-3.199
X9.201Y-6.067
X9.217Y-5.875
X9.24Y-5.282
X9.252Y-4.358
X9.27Y-5.182
X9.271Y-5.875
X9.29Y-3.101
X9.305Y-2.998
X9.308Y-4.183
X9.326Y-5.875
X9.332Y-4.117
X9.341Y-2.191
X9.365Y-5.481
X9.384Y-4.703
X9.53Y-5.854
X9.552Y-3.447
X9.552Y-3.643
X9.552Y-3.839
X9.552Y-4.035
X9.619Y-4.236
X9.621Y-5.955
X9.626Y-5.755
X9.731Y-4.181
X9.731Y-4.4875
X9.731Y-4.794
X9.731Y-5.1005
X9.731Y-5.407
X9.78Y-5.655
X9.892Y-3.8745
X9.893Y-3.57
X9.974Y-1.398
X9.974Y-1.581
X9.9825Y-2.0164
X9.996Y-2.135
X10.004Y-3.493
X10.043Y-2.3256
X10.043Y-2.6348
X10.043Y-2.944
X10.055Y-5.948
X10.0625Y-3.8745
X10.0625Y-4.4875
X10.065Y-5.665
X10.0695Y-5.1005
X10.1855Y-1.398
X10.222Y-2.993
X10.239Y-2.0164
X10.25Y-1.581
X10.253Y-3.501
X10.408Y-3.568
X10.408Y-3.8745
X10.408Y-4.181
X10.408Y-4.4875
X10.408Y-4.794
X10.408Y-5.1005
X10.408Y-5.407
X10.409Y-1.581
X10.417Y-1.398
X10.417Y-2.0164
X10.417Y-2.3256
X10.417Y-2.6348
X10.417Y-2.944
T2
X9.395Y-1.5289
X9.445Y-1.5289
X9.495Y-1.5289
X9.395Y-1.2328
X9.445Y-1.2328
X9.495Y-1.2328
T3
X6.35Y-1.081
X6.35Y-1.3763
X4.8307Y-1.1803
X4.8307Y-1.2803
X4.8307Y-1.3803
X4.8307Y-1.4803
X4.8307Y-1.5803
X4.8307Y-1.6803
X4.8307Y-1.7803
X4.8307Y-1.8803
X4.8307Y-1.9803
X4.8307Y-2.0803
X5.1307Y-1.1803
X5.1307Y-1.2803
X5.1307Y-1.3803
X5.1307Y-1.4803
X5.1307Y-1.5803
X5.1307Y-1.6803
X5.1307Y-1.7803
X5.1307Y-1.8803
X5.1307Y-1.9803
X5.1307Y-2.0803
X9.586Y-2.352
X9.586Y-2.452
X9.586Y-2.552
X9.586Y-2.652
X9.586Y-2.752
X9.586Y-2.852
X9.586Y-2.952
X9.886Y-2.352
X9.886Y-2.452
X9.886Y-2.552
X9.886Y-2.652
X9.886Y-2.752
X9.886Y-2.852
X9.886Y-2.952
X4.997Y-4.2977
X4.997Y-4.593
X8.115Y-4.382
X8.115Y-4.482
X8.115Y-4.582
X8.115Y-4.682
X8.115Y-4.782
X8.115Y-4.882
X8.115Y-4.982
X8.115Y-5.082
X8.415Y-4.382
X8.415Y-4.482
X8.415Y-4.582
X8.415Y-4.682
X8.415Y-4.782
X8.415Y-4.882
X8.415Y-4.982
X8.415Y-5.082
X9.251Y-5.6175
X9.651Y-5.6175
X2.7267Y-3.721
X3.022Y-3.721
X7.164Y-2.266
X7.164Y-2.5613
X7.169Y-4.292
X7.169Y-4.5873
X3.9399Y-2.1647
X3.9399Y-2.2647
X3.9399Y-2.3647
X3.9399Y-2.4647
X3.9399Y-2.5647
X3.9399Y-2.6647
X3.9399Y-2.7647
X3.9399Y-2.8647
X4.2399Y-2.1647
X4.2399Y-2.2647
X4.2399Y-2.3647
X4.2399Y-2.4647
X4.2399Y-2.5647
X4.2399Y-2.6647
X4.2399Y-2.7647
X4.2399Y-2.8647
X1.637Y-2.329
X1.637Y-2.6243
X7.749Y-2.411
X7.749Y-2.811
X7.2946Y-3.338
X7.2946Y-3.438
X7.2946Y-3.538
X7.2946Y-3.638
X7.2946Y-3.738
X7.2946Y-3.838
X7.2946Y-3.938
X7.2946Y-4.038
X7.5946Y-3.338
X7.5946Y-3.438
X7.5946Y-3.538
X7.5946Y-3.638
X7.5946Y-3.738
X7.5946Y-3.838
X7.5946Y-3.938
X7.5946Y-4.038
X8.108Y-2.365
X8.108Y-2.465
X8.108Y-2.565
X8.108Y-2.665
X8.108Y-2.765
X8.108Y-2.865
X8.108Y-2.965
X8.408Y-2.365
X8.408Y-2.465
X8.408Y-2.565
X8.408Y-2.665
X8.408Y-2.765
X8.408Y-2.865
X8.408Y-2.965
X6.213Y-3.947
X6.213Y-4.347
X6.492Y-1.161
X6.492Y-1.761
X6.592Y-1.161
X6.592Y-1.761
X6.692Y-1.161
X6.692Y-1.761
X6.792Y-1.161
X6.792Y-1.761
X6.892Y-1.161
X6.892Y-1.761
X6.992Y-1.161
X6.992Y-1.761
X7.092Y-1.161
X7.092Y-1.761
X7.192Y-1.161
X7.192Y-1.761
X7.292Y-1.161
X7.292Y-1.761
X7.392Y-1.161
X7.392Y-1.761
X7.492Y-1.161
X7.492Y-1.761
X7.592Y-1.161
X7.592Y-1.761
X8.115Y-1.186
X8.115Y-1.286
X8.115Y-1.386
X8.115Y-1.486
X8.115Y-1.586
X8.115Y-1.686
X8.115Y-1.786
X8.115Y-1.886
X8.415Y-1.186
X8.415Y-1.286
X8.415Y-1.386
X8.415Y-1.486
X8.415Y-1.586
X8.415Y-1.686
X8.415Y-1.786
X8.415Y-1.886
X8.96Y-1.195
X8.96Y-1.595
X8.8435Y-1.195
X8.8435Y-1.595
X7.2876Y-2.364
X7.2876Y-2.464
X7.2876Y-2.564
X7.2876Y-2.664
X7.2876Y-2.764
X7.2876Y-2.864
X7.2876Y-2.964
X7.5876Y-2.364
X7.5876Y-2.464
X7.5876Y-2.564
X7.5876Y-2.664
X7.5876Y-2.764
X7.5876Y-2.864
X7.5876Y-2.964
X8.722Y-2.266
X8.722Y-2.5613
X3.816Y-4.331
X3.816Y-4.6263
X8.73Y-3.251
X8.73Y-3.5463
X9.75Y-3.6011
X9.75Y-3.794
X6.4743Y-2.267
X6.4743Y-2.367
X6.4743Y-2.467
X6.4743Y-2.567
X6.4743Y-2.667
X6.4743Y-2.767
X6.4743Y-2.867
X6.4743Y-2.967
X6.7743Y-2.267
X6.7743Y-2.367
X6.7743Y-2.467
X6.7743Y-2.567
X6.7743Y-2.667
X6.7743Y-2.767
X6.7743Y-2.867
X6.7743Y-2.967
X3.9399Y-3.2868
X3.9399Y-3.3868
X3.9399Y-3.4868
X3.9399Y-3.5868
X3.9399Y-3.6868
X3.9399Y-3.7868
X3.9399Y-3.8868
X3.9399Y-3.9868
X4.2399Y-3.2868
X4.2399Y-3.3868
X4.2399Y-3.4868
X4.2399Y-3.5868
X4.2399Y-3.6868
X4.2399Y-3.7868
X4.2399Y-3.8868
X4.2399Y-3.9868
X9.415Y-1.833
X9.815Y-1.833
X9.0758Y-1.195
X9.0758Y-1.595
X7.017Y-3.312
X7.017Y-3.712
X5.6845Y-1.1803
X5.6845Y-1.2803
X5.6845Y-1.3803
X5.6845Y-1.4803
X5.6845Y-1.5803
X5.6845Y-1.6803
X5.6845Y-1.7803
X5.6845Y-1.8803
X5.6845Y-1.9803
X5.6845Y-2.0803
X5.9845Y-1.1803
X5.9845Y-1.2803
X5.9845Y-1.3803
X5.9845Y-1.4803
X5.9845Y-1.5803
X5.9845Y-1.6803
X5.9845Y-1.7803
X5.9845Y-1.8803
X5.9845Y-1.9803
X5.9845Y-2.0803
X2.421Y-3.8634
X2.421Y-3.9634
X2.421Y-4.0634
X2.421Y-4.1634
X2.421Y-4.2634
X2.421Y-4.3634
X2.421Y-4.4634
X2.421Y-4.5634
X2.421Y-4.6634
X2.421Y-4.7634
X2.421Y-4.8634
X2.421Y-4.9634
X3.021Y-3.8634
X3.021Y-3.9634
X3.021Y-4.0634
X3.021Y-4.1634
X3.021Y-4.2634
X3.021Y-4.3634
X3.021Y-4.4634
X3.021Y-4.5634
X3.021Y-4.6634
X3.021Y-4.7634
X3.021Y-4.8634
X3.021Y-4.9634
X8.847Y-2.356
X8.847Y-2.456
X8.847Y-2.556
X8.847Y-2.656
X8.847Y-2.756
X8.847Y-2.856
X8.847Y-2.956
X9.147Y-2.356
X9.147Y-2.456
X9.147Y-2.556
X9.147Y-2.656
X9.147Y-2.756
X9.147Y-2.856
X9.147Y-2.956
X9.832Y-1.194
X9.832Y-1.594
X7.985Y-1.081
X7.985Y-1.3763
X9.7527Y-3.235
X10.048Y-3.235
X7.984Y-2.266
X7.984Y-2.5613
X3.9399Y-4.409
X3.9399Y-4.509
X3.9399Y-4.609
X3.9399Y-4.709
X3.9399Y-4.809
X3.9399Y-4.909
X3.9399Y-5.009
X3.9399Y-5.109
X4.2399Y-4.409
X4.2399Y-4.509
X4.2399Y-4.609
X4.2399Y-4.709
X4.2399Y-4.809
X4.2399Y-4.909
X4.2399Y-5.009
X4.2399Y-5.109
X7.991Y-3.251
X7.991Y-3.5463
X7.2946Y-4.382
X7.2946Y-4.482
X7.2946Y-4.582
X7.2946Y-4.682
X7.2946Y-4.782
X7.2946Y-4.882
X7.2946Y-4.982
X7.5946Y-4.382
X7.5946Y-4.482
X7.5946Y-4.582
X7.5946Y-4.682
X7.5946Y-4.782
X7.5946Y-4.882
X7.5946Y-4.982
X9.202Y-1.081
X9.202Y-1.481
X5.496Y-1.081
X5.496Y-1.3763
X6.35Y-2.181
X6.35Y-2.4763
X7.17Y-3.251
X7.17Y-3.5463
X9.163Y-4.382
X9.163Y-4.482
X9.163Y-4.582
X9.163Y-4.682
X9.163Y-4.782
X9.163Y-4.882
X9.163Y-4.982
X9.163Y-5.082
X9.163Y-5.182
X9.163Y-5.282
X9.163Y-5.382
X9.163Y-5.482
X9.463Y-4.382
X9.463Y-4.482
X9.463Y-4.582
X9.463Y-4.682
X9.463Y-4.782
X9.463Y-4.882
X9.463Y-4.982
X9.463Y-5.082
X9.463Y-5.182
X9.463Y-5.282
X9.463Y-5.382
X9.463Y-5.482
X2.943Y-1.081
X2.943Y-1.3763
X8.8687Y-5.955
X9.164Y-5.955
X4.634Y-1.081
X4.634Y-1.3763
X3.816Y-3.201
X3.816Y-3.4963
X6.4743Y-4.382
X6.4743Y-4.482
X6.4743Y-4.582
X6.4743Y-4.682
X6.4743Y-4.782
X6.4743Y-4.882
X6.4743Y-4.982
X6.4743Y-5.082
X6.7743Y-4.382
X6.7743Y-4.482
X6.7743Y-4.582
X6.7743Y-4.682
X6.7743Y-4.782
X6.7743Y-4.882
X6.7743Y-4.982
X6.7743Y-5.082
X7.87Y-2.418
X7.87Y-2.6149
X9.038Y-4.294
X9.038Y-4.5893
X3.816Y-2.081
X3.816Y-2.3763
X8.591Y-2.266
X8.591Y-2.666
X7.034Y-2.415
X7.034Y-2.815
X9.513Y-1.949
X9.7099Y-1.949
X9.751Y-3.365
X10.151Y-3.365
X6.35Y-4.294
X6.35Y-4.5893
X5.119Y-2.694
X5.119Y-2.794
X5.119Y-2.894
X5.119Y-2.994
X5.119Y-3.094
X5.119Y-3.194
X5.119Y-3.294
X5.119Y-3.394
X5.119Y-3.494
X5.119Y-3.594
X5.119Y-3.694
X5.119Y-3.794
X5.119Y-3.894
X5.119Y-3.994
X5.119Y-4.094
X5.119Y-4.194
X5.119Y-4.294
X5.119Y-4.394
X5.119Y-4.494
X5.119Y-4.594
X5.719Y-2.694
X5.719Y-2.794
X5.719Y-2.894
X5.719Y-2.994
X5.719Y-3.094
X5.719Y-3.194
X5.719Y-3.294
X5.719Y-3.394
X5.719Y-3.494
X5.719Y-3.594
X5.719Y-3.694
X5.719Y-3.794
X5.719Y-3.894
X5.719Y-3.994
X5.719Y-4.094
X5.719Y-4.194
X5.719Y-4.294
X5.719Y-4.394
X5.719Y-4.494
X5.719Y-4.594
X8.115Y-3.338
X8.115Y-3.438
X8.115Y-3.538
X8.115Y-3.638
X8.115Y-3.738
X8.115Y-3.838
X8.115Y-3.938
X8.415Y-3.338
X8.415Y-3.438
X8.415Y-3.538
X8.415Y-3.638
X8.415Y-3.738
X8.415Y-3.838
X8.415Y-3.938
X6.4743Y-3.338
X6.4743Y-3.438
X6.4743Y-3.538
X6.4743Y-3.638
X6.4743Y-3.738
X6.4743Y-3.838
X6.4743Y-3.938
X6.7743Y-3.338
X6.7743Y-3.438
X6.7743Y-3.538
X6.7743Y-3.638
X6.7743Y-3.738
X6.7743Y-3.838
X6.7743Y-3.938
X9.753Y-3.105
X10.153Y-3.105
X4.819Y-4.3856
X4.819Y-4.484
X8.854Y-3.338
X8.854Y-3.438
X8.854Y-3.538
X8.854Y-3.638
X8.854Y-3.738
X8.854Y-3.838
X8.854Y-3.938
X9.154Y-3.338
X9.154Y-3.438
X9.154Y-3.538
X9.154Y-3.638
X9.154Y-3.738
X9.154Y-3.838
X9.154Y-3.938
X9.462Y-2.266
X9.462Y-2.5613
X8.57Y-1.081
X8.57Y-1.481
X7.991Y-4.292
X7.991Y-4.5873
X6.351Y-3.25
X6.351Y-3.5453
X3.121Y-1.161
X3.121Y-1.761
X3.221Y-1.161
X3.221Y-1.761
X3.321Y-1.161
X3.321Y-1.761
X3.421Y-1.161
X3.421Y-1.761
X3.521Y-1.161
X3.521Y-1.761
X3.621Y-1.161
X3.621Y-1.761
X3.721Y-1.161
X3.721Y-1.761
X3.821Y-1.161
X3.821Y-1.761
X3.921Y-1.161
X3.921Y-1.761
X4.021Y-1.161
X4.021Y-1.761
X4.121Y-1.161
X4.121Y-1.761
X4.221Y-1.161
X4.221Y-1.761
X9.705Y-1.195
X9.705Y-1.595
T4
X2.081Y-2.267
X2.081Y-2.8576
X7.804Y-1.082
X7.804Y-1.182
X7.804Y-1.282
T5
X2.6426Y-2.7649
X2.7072Y-2.609
X2.7072Y-2.9208
X2.8631Y-2.5444
X2.8631Y-2.9854
X2.9904Y-2.8176
X3.019Y-2.609
X3.019Y-2.9208
X3.0836Y-2.7649
T6
X2.309Y-1.467
X2.309Y-2.267
X1.761Y-2.166
X1.861Y-2.166
X1.961Y-2.166
T7
X10.1305Y-1.744
T8
X10.1305Y-1.5471
X10.1305Y-1.9409
X10.3077Y-1.744
T0
M30
