G04 #@! TF.GenerationSoftware,KiCad,Pcbnew,5.1.8-5.1.8*
G04 #@! TF.CreationDate,2022-09-04T11:36:30-07:00*
G04 #@! TF.ProjectId,80cvc,38306376-632e-46b6-9963-61645f706362,rev?*
G04 #@! TF.SameCoordinates,Original*
G04 #@! TF.FileFunction,Soldermask,Top*
G04 #@! TF.FilePolarity,Negative*
%FSLAX46Y46*%
G04 Gerber Fmt 4.6, Leading zero omitted, Abs format (unit mm)*
G04 Created by KiCad (PCBNEW 5.1.8-5.1.8) date 2022-09-04 11:36:30*
%MOMM*%
%LPD*%
G01*
G04 APERTURE LIST*
%ADD10O,1.600000X1.600000*%
%ADD11R,1.600000X1.600000*%
%ADD12C,1.500000*%
%ADD13R,1.650000X1.650000*%
%ADD14C,1.650000*%
%ADD15C,2.550000*%
%ADD16C,3.900000*%
%ADD17C,1.600000*%
%ADD18R,1.700000X1.700000*%
%ADD19O,1.700000X1.700000*%
%ADD20R,1.524000X7.620000*%
%ADD21O,1.050000X1.500000*%
%ADD22R,1.050000X1.500000*%
%ADD23O,3.500000X3.500000*%
%ADD24R,1.905000X2.000000*%
%ADD25O,1.905000X2.000000*%
%ADD26R,2.000000X2.000000*%
%ADD27O,2.000000X2.000000*%
%ADD28C,2.400000*%
%ADD29O,2.400000X2.400000*%
G04 APERTURE END LIST*
D10*
X227584000Y-30353000D03*
D11*
X227584000Y-40513000D03*
D12*
X247650000Y-96367600D03*
X247650000Y-91467600D03*
D13*
X76682600Y-66268600D03*
D14*
X78322600Y-70228600D03*
X76682600Y-74188600D03*
X72722600Y-75828600D03*
X68762600Y-74188600D03*
X67122600Y-70228600D03*
X68762600Y-66268600D03*
X72722600Y-64628600D03*
X75956600Y-71567600D03*
D15*
X257314700Y-44297600D03*
D16*
X257314700Y-39297600D03*
X261814700Y-44297600D03*
X257314700Y-49297600D03*
D10*
X74752200Y-34957400D03*
D17*
X74752200Y-27457400D03*
X255219200Y-82169000D03*
D10*
X247719200Y-82169000D03*
D17*
X76758800Y-94513400D03*
D10*
X69258800Y-94513400D03*
X96926400Y-60357400D03*
D17*
X96926400Y-52857400D03*
X96926400Y-81305400D03*
D10*
X96926400Y-88805400D03*
X96926400Y-117507400D03*
D17*
X96926400Y-110007400D03*
X117703600Y-27457400D03*
D10*
X117703600Y-34957400D03*
X139598400Y-34957400D03*
D17*
X139598400Y-27457400D03*
X161290000Y-27457400D03*
D10*
X161290000Y-34957400D03*
X161290000Y-62897400D03*
D17*
X161290000Y-55397400D03*
D10*
X161315400Y-90050000D03*
D17*
X161315400Y-82550000D03*
X161290000Y-109067600D03*
D10*
X161290000Y-116567600D03*
X181965600Y-65056400D03*
D17*
X181965600Y-57556400D03*
X182118000Y-82575400D03*
D10*
X182118000Y-90075400D03*
X182092600Y-116516800D03*
D17*
X182092600Y-109016800D03*
X202819000Y-27457400D03*
D10*
X202819000Y-34957400D03*
X202793600Y-65056400D03*
D17*
X202793600Y-57556400D03*
D10*
X202971400Y-90075400D03*
D17*
X202971400Y-82575400D03*
X202971400Y-109016800D03*
D10*
X202971400Y-116516800D03*
X221538800Y-65056400D03*
D17*
X221538800Y-57556400D03*
X221742000Y-82575400D03*
D10*
X221742000Y-90075400D03*
X229565200Y-116567600D03*
D17*
X229565200Y-109067600D03*
X240334800Y-57556400D03*
D10*
X240334800Y-65056400D03*
D17*
X41579800Y-59156600D03*
D10*
X41579800Y-66656600D03*
D17*
X199898000Y-66417200D03*
X199898000Y-61417200D03*
X241630200Y-49504600D03*
X246630200Y-49504600D03*
D11*
X122402600Y-113893600D03*
D17*
X122402600Y-111393600D03*
D11*
X234975400Y-142684500D03*
D10*
X245135400Y-142684500D03*
D18*
X198221600Y-27482800D03*
D19*
X198221600Y-30022800D03*
X198221600Y-32562800D03*
D20*
X197040000Y-160731200D03*
X199580000Y-160731200D03*
X202120000Y-160731200D03*
X204660000Y-160731200D03*
X207200000Y-160731200D03*
X209740000Y-160731200D03*
X212280000Y-160731200D03*
X214820000Y-160731200D03*
X217360000Y-160731200D03*
X219900000Y-160731200D03*
X222440000Y-160731200D03*
X224980000Y-160731200D03*
X227520000Y-160731200D03*
X230060000Y-160731200D03*
X232600000Y-160731200D03*
X174180000Y-160731200D03*
X181800000Y-160731200D03*
X171640000Y-160731200D03*
X176720000Y-160731200D03*
X179260000Y-160731200D03*
X191960000Y-160731200D03*
X189420000Y-160731200D03*
X184340000Y-160731200D03*
X194500000Y-160731200D03*
X186880000Y-160731200D03*
D21*
X239903000Y-38833000D03*
X238633000Y-38833000D03*
D22*
X241173000Y-38833000D03*
X241173000Y-31313000D03*
D21*
X238633000Y-31313000D03*
X239903000Y-31313000D03*
D17*
X239141000Y-46558200D03*
D10*
X249301000Y-46558200D03*
X247675400Y-85471000D03*
D17*
X257835400Y-85471000D03*
X257886200Y-78867000D03*
D10*
X247726200Y-78867000D03*
D17*
X217678000Y-37617400D03*
D10*
X217678000Y-27457400D03*
X224624900Y-30353000D03*
D17*
X224624900Y-40513000D03*
D10*
X230524600Y-40513000D03*
D17*
X230524600Y-30353000D03*
D10*
X233730800Y-37617400D03*
D17*
X233730800Y-27457400D03*
D10*
X246507000Y-40513000D03*
D17*
X246507000Y-30353000D03*
X249732800Y-40487600D03*
D10*
X249732800Y-30327600D03*
D17*
X218211400Y-57556400D03*
D10*
X218211400Y-67716400D03*
D17*
X196824600Y-61239400D03*
D10*
X196824600Y-71399400D03*
X178231800Y-94284800D03*
D17*
X178231800Y-84124800D03*
D10*
X178663600Y-71501000D03*
D17*
X178663600Y-61341000D03*
X157810200Y-110413800D03*
D10*
X157810200Y-100253800D03*
X192903900Y-111302800D03*
X185283900Y-126542800D03*
X192903900Y-113842800D03*
X185283900Y-124002800D03*
X192903900Y-116382800D03*
X185283900Y-121462800D03*
X192903900Y-118922800D03*
X185283900Y-118922800D03*
X192903900Y-121462800D03*
X185283900Y-116382800D03*
X192903900Y-124002800D03*
X185283900Y-113842800D03*
X192903900Y-126542800D03*
D11*
X185283900Y-111302800D03*
X130022600Y-68427600D03*
D10*
X145262600Y-116687600D03*
X130022600Y-70967600D03*
X145262600Y-114147600D03*
X130022600Y-73507600D03*
X145262600Y-111607600D03*
X130022600Y-76047600D03*
X145262600Y-109067600D03*
X130022600Y-78587600D03*
X145262600Y-106527600D03*
X130022600Y-81127600D03*
X145262600Y-103987600D03*
X130022600Y-83667600D03*
X145262600Y-101447600D03*
X130022600Y-86207600D03*
X145262600Y-98907600D03*
X130022600Y-88747600D03*
X145262600Y-96367600D03*
X130022600Y-91287600D03*
X145262600Y-93827600D03*
X130022600Y-93827600D03*
X145262600Y-91287600D03*
X130022600Y-96367600D03*
X145262600Y-88747600D03*
X130022600Y-98907600D03*
X145262600Y-86207600D03*
X130022600Y-101447600D03*
X145262600Y-83667600D03*
X130022600Y-103987600D03*
X145262600Y-81127600D03*
X130022600Y-106527600D03*
X145262600Y-78587600D03*
X130022600Y-109067600D03*
X145262600Y-76047600D03*
X130022600Y-111607600D03*
X145262600Y-73507600D03*
X130022600Y-114147600D03*
X145262600Y-70967600D03*
X130022600Y-116687600D03*
X145262600Y-68427600D03*
D11*
X61493400Y-98131000D03*
D10*
X76733400Y-126071000D03*
X61493400Y-100671000D03*
X76733400Y-123531000D03*
X61493400Y-103211000D03*
X76733400Y-120991000D03*
X61493400Y-105751000D03*
X76733400Y-118451000D03*
X61493400Y-108291000D03*
X76733400Y-115911000D03*
X61493400Y-110831000D03*
X76733400Y-113371000D03*
X61493400Y-113371000D03*
X76733400Y-110831000D03*
X61493400Y-115911000D03*
X76733400Y-108291000D03*
X61493400Y-118451000D03*
X76733400Y-105751000D03*
X61493400Y-120991000D03*
X76733400Y-103211000D03*
X61493400Y-123531000D03*
X76733400Y-100671000D03*
X61493400Y-126071000D03*
X76733400Y-98131000D03*
X213563200Y-60071000D03*
X205943200Y-75311000D03*
X213563200Y-62611000D03*
X205943200Y-72771000D03*
X213563200Y-65151000D03*
X205943200Y-70231000D03*
X213563200Y-67691000D03*
X205943200Y-67691000D03*
X213563200Y-70231000D03*
X205943200Y-65151000D03*
X213563200Y-72771000D03*
X205943200Y-62611000D03*
X213563200Y-75311000D03*
D11*
X205943200Y-60071000D03*
X224713800Y-59842400D03*
D10*
X232333800Y-75082400D03*
X224713800Y-62382400D03*
X232333800Y-72542400D03*
X224713800Y-64922400D03*
X232333800Y-70002400D03*
X224713800Y-67462400D03*
X232333800Y-67462400D03*
X224713800Y-70002400D03*
X232333800Y-64922400D03*
X224713800Y-72542400D03*
X232333800Y-62382400D03*
X224713800Y-75082400D03*
X232333800Y-59842400D03*
X192903900Y-84785200D03*
X185283900Y-102565200D03*
X192903900Y-87325200D03*
X185283900Y-100025200D03*
X192903900Y-89865200D03*
X185283900Y-97485200D03*
X192903900Y-92405200D03*
X185283900Y-94945200D03*
X192903900Y-94945200D03*
X185283900Y-92405200D03*
X192903900Y-97485200D03*
X185283900Y-89865200D03*
X192903900Y-100025200D03*
X185283900Y-87325200D03*
X192903900Y-102565200D03*
D11*
X185283900Y-84785200D03*
X164446800Y-111302800D03*
D10*
X172066800Y-129082800D03*
X164446800Y-113842800D03*
X172066800Y-126542800D03*
X164446800Y-116382800D03*
X172066800Y-124002800D03*
X164446800Y-118922800D03*
X172066800Y-121462800D03*
X164446800Y-121462800D03*
X172066800Y-118922800D03*
X164446800Y-124002800D03*
X172066800Y-116382800D03*
X164446800Y-126542800D03*
X172066800Y-113842800D03*
X164446800Y-129082800D03*
X172066800Y-111302800D03*
X107693400Y-111988600D03*
X100073400Y-129768600D03*
X107693400Y-114528600D03*
X100073400Y-127228600D03*
X107693400Y-117068600D03*
X100073400Y-124688600D03*
X107693400Y-119608600D03*
X100073400Y-122148600D03*
X107693400Y-122148600D03*
X100073400Y-119608600D03*
X107693400Y-124688600D03*
X100073400Y-117068600D03*
X107693400Y-127228600D03*
X100073400Y-114528600D03*
X107693400Y-129768600D03*
D11*
X100073400Y-111988600D03*
D10*
X107693400Y-83485532D03*
X100073400Y-101265532D03*
X107693400Y-86025532D03*
X100073400Y-98725532D03*
X107693400Y-88565532D03*
X100073400Y-96185532D03*
X107693400Y-91105532D03*
X100073400Y-93645532D03*
X107693400Y-93645532D03*
X100073400Y-91105532D03*
X107693400Y-96185532D03*
X100073400Y-88565532D03*
X107693400Y-98725532D03*
X100073400Y-86025532D03*
X107693400Y-101265532D03*
D11*
X100073400Y-83485532D03*
X100073400Y-54982466D03*
D10*
X107693400Y-72762466D03*
X100073400Y-57522466D03*
X107693400Y-70222466D03*
X100073400Y-60062466D03*
X107693400Y-67682466D03*
X100073400Y-62602466D03*
X107693400Y-65142466D03*
X100073400Y-65142466D03*
X107693400Y-62602466D03*
X100073400Y-67682466D03*
X107693400Y-60062466D03*
X100073400Y-70222466D03*
X107693400Y-57522466D03*
X100073400Y-72762466D03*
X107693400Y-54982466D03*
D11*
X164446800Y-84785200D03*
D10*
X172066800Y-100025200D03*
X164446800Y-87325200D03*
X172066800Y-97485200D03*
X164446800Y-89865200D03*
X172066800Y-94945200D03*
X164446800Y-92405200D03*
X172066800Y-92405200D03*
X164446800Y-94945200D03*
X172066800Y-89865200D03*
X164446800Y-97485200D03*
X172066800Y-87325200D03*
X164446800Y-100025200D03*
X172066800Y-84785200D03*
D11*
X206121000Y-111302800D03*
D10*
X213741000Y-129082800D03*
X206121000Y-113842800D03*
X213741000Y-126542800D03*
X206121000Y-116382800D03*
X213741000Y-124002800D03*
X206121000Y-118922800D03*
X213741000Y-121462800D03*
X206121000Y-121462800D03*
X213741000Y-118922800D03*
X206121000Y-124002800D03*
X213741000Y-116382800D03*
X206121000Y-126542800D03*
X213741000Y-113842800D03*
X206121000Y-129082800D03*
X213741000Y-111302800D03*
D11*
X206121000Y-84785200D03*
D10*
X213741000Y-100025200D03*
X206121000Y-87325200D03*
X213741000Y-97485200D03*
X206121000Y-89865200D03*
X213741000Y-94945200D03*
X206121000Y-92405200D03*
X213741000Y-92405200D03*
X206121000Y-94945200D03*
X213741000Y-89865200D03*
X206121000Y-97485200D03*
X213741000Y-87325200D03*
X206121000Y-100025200D03*
X213741000Y-84785200D03*
D11*
X79273400Y-44729400D03*
D10*
X107213400Y-29489400D03*
X81813400Y-44729400D03*
X104673400Y-29489400D03*
X84353400Y-44729400D03*
X102133400Y-29489400D03*
X86893400Y-44729400D03*
X99593400Y-29489400D03*
X89433400Y-44729400D03*
X97053400Y-29489400D03*
X91973400Y-44729400D03*
X94513400Y-29489400D03*
X94513400Y-44729400D03*
X91973400Y-29489400D03*
X97053400Y-44729400D03*
X89433400Y-29489400D03*
X99593400Y-44729400D03*
X86893400Y-29489400D03*
X102133400Y-44729400D03*
X84353400Y-29489400D03*
X104673400Y-44729400D03*
X81813400Y-29489400D03*
X107213400Y-44729400D03*
X79273400Y-29489400D03*
D11*
X122699600Y-29979400D03*
D10*
X130319600Y-52839400D03*
X122699600Y-32519400D03*
X130319600Y-50299400D03*
X122699600Y-35059400D03*
X130319600Y-47759400D03*
X122699600Y-37599400D03*
X130319600Y-45219400D03*
X122699600Y-40139400D03*
X130319600Y-42679400D03*
X122699600Y-42679400D03*
X130319600Y-40139400D03*
X122699600Y-45219400D03*
X130319600Y-37599400D03*
X122699600Y-47759400D03*
X130319600Y-35059400D03*
X122699600Y-50299400D03*
X130319600Y-32519400D03*
X122699600Y-52839400D03*
X130319600Y-29979400D03*
D11*
X243484400Y-59740800D03*
D10*
X251104400Y-74980800D03*
X243484400Y-62280800D03*
X251104400Y-72440800D03*
X243484400Y-64820800D03*
X251104400Y-69900800D03*
X243484400Y-67360800D03*
X251104400Y-67360800D03*
X243484400Y-69900800D03*
X251104400Y-64820800D03*
X243484400Y-72440800D03*
X251104400Y-62280800D03*
X243484400Y-74980800D03*
X251104400Y-59740800D03*
X152006000Y-29979400D03*
X144386000Y-52839400D03*
X152006000Y-32519400D03*
X144386000Y-50299400D03*
X152006000Y-35059400D03*
X144386000Y-47759400D03*
X152006000Y-37599400D03*
X144386000Y-45219400D03*
X152006000Y-40139400D03*
X144386000Y-42679400D03*
X152006000Y-42679400D03*
X144386000Y-40139400D03*
X152006000Y-45219400D03*
X144386000Y-37599400D03*
X152006000Y-47759400D03*
X144386000Y-35059400D03*
X152006000Y-50299400D03*
X144386000Y-32519400D03*
X152006000Y-52839400D03*
D11*
X144386000Y-29979400D03*
D10*
X172066800Y-57581800D03*
X164446800Y-75361800D03*
X172066800Y-60121800D03*
X164446800Y-72821800D03*
X172066800Y-62661800D03*
X164446800Y-70281800D03*
X172066800Y-65201800D03*
X164446800Y-67741800D03*
X172066800Y-67741800D03*
X164446800Y-65201800D03*
X172066800Y-70281800D03*
X164446800Y-62661800D03*
X172066800Y-72821800D03*
X164446800Y-60121800D03*
X172066800Y-75361800D03*
D11*
X164446800Y-57581800D03*
D10*
X164896800Y-29489400D03*
X192836800Y-44729400D03*
X167436800Y-29489400D03*
X190296800Y-44729400D03*
X169976800Y-29489400D03*
X187756800Y-44729400D03*
X172516800Y-29489400D03*
X185216800Y-44729400D03*
X175056800Y-29489400D03*
X182676800Y-44729400D03*
X177596800Y-29489400D03*
X180136800Y-44729400D03*
X180136800Y-29489400D03*
X177596800Y-44729400D03*
X182676800Y-29489400D03*
X175056800Y-44729400D03*
X185216800Y-29489400D03*
X172516800Y-44729400D03*
X187756800Y-29489400D03*
X169976800Y-44729400D03*
X190296800Y-29489400D03*
X167436800Y-44729400D03*
X192836800Y-29489400D03*
D11*
X164896800Y-44729400D03*
X206121000Y-30124400D03*
D10*
X213741000Y-47904400D03*
X206121000Y-32664400D03*
X213741000Y-45364400D03*
X206121000Y-35204400D03*
X213741000Y-42824400D03*
X206121000Y-37744400D03*
X213741000Y-40284400D03*
X206121000Y-40284400D03*
X213741000Y-37744400D03*
X206121000Y-42824400D03*
X213741000Y-35204400D03*
X206121000Y-45364400D03*
X213741000Y-32664400D03*
X206121000Y-47904400D03*
X213741000Y-30124400D03*
D23*
X47269400Y-39216400D03*
D24*
X44729400Y-55016400D03*
D25*
X47269400Y-55016400D03*
X49809400Y-55016400D03*
D10*
X232511600Y-84785200D03*
X224891600Y-100025200D03*
X232511600Y-87325200D03*
X224891600Y-97485200D03*
X232511600Y-89865200D03*
X224891600Y-94945200D03*
X232511600Y-92405200D03*
X224891600Y-92405200D03*
X232511600Y-94945200D03*
X224891600Y-89865200D03*
X232511600Y-97485200D03*
X224891600Y-87325200D03*
X232511600Y-100025200D03*
D11*
X224891600Y-84785200D03*
D10*
X192726100Y-60045600D03*
X185106100Y-75285600D03*
X192726100Y-62585600D03*
X185106100Y-72745600D03*
X192726100Y-65125600D03*
X185106100Y-70205600D03*
X192726100Y-67665600D03*
X185106100Y-67665600D03*
X192726100Y-70205600D03*
X185106100Y-65125600D03*
X192726100Y-72745600D03*
X185106100Y-62585600D03*
X192726100Y-75285600D03*
D11*
X185106100Y-60045600D03*
D26*
X52857400Y-57581800D03*
D27*
X52857400Y-72581800D03*
D28*
X58648600Y-57581800D03*
D29*
X58648600Y-37261800D03*
D17*
X126923800Y-116662200D03*
D10*
X126923800Y-109162200D03*
D11*
X232740200Y-111302800D03*
D10*
X240360200Y-139242800D03*
X232740200Y-113842800D03*
X240360200Y-136702800D03*
X232740200Y-116382800D03*
X240360200Y-134162800D03*
X232740200Y-118922800D03*
X240360200Y-131622800D03*
X232740200Y-121462800D03*
X240360200Y-129082800D03*
X232740200Y-124002800D03*
X240360200Y-126542800D03*
X232740200Y-126542800D03*
X240360200Y-124002800D03*
X232740200Y-129082800D03*
X240360200Y-121462800D03*
X232740200Y-131622800D03*
X240360200Y-118922800D03*
X232740200Y-134162800D03*
X240360200Y-116382800D03*
X232740200Y-136702800D03*
X240360200Y-113842800D03*
X232740200Y-139242800D03*
X240360200Y-111302800D03*
D17*
X232765600Y-151257000D03*
D10*
X225265600Y-151257000D03*
M02*
